<svg xmlns="http://www.w3.org/2000/svg" width="243.255" height="220.329" viewBox="0 0 243.255 220.329">
  <g id="Children-pana" transform="translate(-19.198 -45.07)">
    <g id="freepik--background-complete--inject-51" transform="translate(24.618 45.07)">
      <path id="Path_70812" data-name="Path 70812" d="M339.843,163.492a22.685,22.685,0,0,1-13.913-10.473,20.173,20.173,0,0,1-1.458-16.63c1.518-4.229,4.451-7.95,5.7-12.255,1.426-4.888.578-10.073-.3-15.069S328.1,98.9,329.43,93.99s5.542-9.517,10.954-9.868c5.018-.324,9.652,3.149,11.747,7.421s2.106,9.182,1.62,13.843-1.442,9.344-1.14,14.043c.6,9.49,6.3,18.429,5.628,27.919-.351,4.942-2.4,8.1-5.9,11.818-3.025,3.2-8.042,5.309-12.493,4.321" transform="translate(-164.481 -63.02)" fill="#f5f5f5"/>
      <path id="Path_70813" data-name="Path 70813" d="M357.117,238.15c-.054,0-.1-21.027-.1-46.99s.043-46.99.1-46.99.092,21.021.092,46.99S357.166,238.15,357.117,238.15Z" transform="translate(-179.978 -90.645)" fill="#e0e0e0"/>
      <path id="Path_70814" data-name="Path 70814" d="M352,195.945a7.236,7.236,0,0,1-.864-.762c-.54-.492-1.221-1.183-1.961-1.971s-1.421-1.491-1.912-2a6.962,6.962,0,0,1-.767-.853,7.021,7.021,0,0,1,.864.767c.54.486,1.221,1.177,1.961,1.966s1.421,1.491,1.912,2a6.729,6.729,0,0,1,.767.848Z" transform="translate(-175.139 -111.887)" fill="#e0e0e0"/>
      <path id="Path_70815" data-name="Path 70815" d="M357.643,160.039a6.335,6.335,0,0,0,1.917-.8,5.255,5.255,0,0,0,1.539-1.55,5.169,5.169,0,0,0,.837-2.452v-.086l.108.1a4.094,4.094,0,0,0-2.312,1.269,8.777,8.777,0,0,0-1.291,1.728,13.5,13.5,0,0,0-.67,1.285,3.275,3.275,0,0,1-.243.475,3,3,0,0,1,.173-.5,11.629,11.629,0,0,1,.621-1.318,8.215,8.215,0,0,1,1.28-1.777,4.207,4.207,0,0,1,2.414-1.339h.119v.194a5.185,5.185,0,0,1-.875,2.528,5.255,5.255,0,0,1-1.62,1.566,4.71,4.71,0,0,1-1.426.6,2.834,2.834,0,0,1-.416.081Z" transform="translate(-180.212 -95.658)" fill="#e0e0e0"/>
      <path id="Path_70816" data-name="Path 70816" d="M357.74,161.593a12.425,12.425,0,0,1,1.318-1.62,12.706,12.706,0,0,1,1.458-1.523,24.778,24.778,0,0,1-2.776,3.143Z" transform="translate(-180.309 -97.212)" fill="#e0e0e0"/>
      <path id="Path_70817" data-name="Path 70817" d="M433.091,201.564a17.165,17.165,0,0,1-10.516-7.9,15.247,15.247,0,0,1-1.08-12.563c1.15-3.2,3.365-6.011,4.321-9.263,1.08-3.694.437-7.61-.227-11.386s-1.345-7.68-.335-11.391,4.191-7.189,8.275-7.454c3.781-.248,7.3,2.376,8.874,5.606s1.593,6.93,1.226,10.462-1.08,7.059-.864,10.6c.459,7.173,4.758,13.924,4.256,21.1-.265,3.732-1.815,6.119-4.461,8.928-2.279,2.425-6.076,4.013-9.436,3.273" transform="translate(-209.226 -89.458)" fill="#f5f5f5"/>
      <path id="Path_70818" data-name="Path 70818" d="M446.13,258c-.038,0-.07-15.89-.07-35.485s.032-35.491.07-35.491.07,15.885.07,35.491S446.168,258,446.13,258Z" transform="translate(-220.926 -110.351)" fill="#e0e0e0"/>
      <path id="Path_70819" data-name="Path 70819" d="M442.269,226.078a4.974,4.974,0,0,1-.654-.578c-.394-.367-.924-.891-1.48-1.485s-1.08-1.129-1.448-1.512a6.024,6.024,0,0,1-.578-.643,5.436,5.436,0,0,1,.654.578c.389.367.918.891,1.48,1.485s1.08,1.129,1.442,1.512A5.8,5.8,0,0,1,442.269,226.078Z" transform="translate(-217.27 -126.373)" fill="#e0e0e0"/>
      <path id="Path_70820" data-name="Path 70820" d="M446.531,198.944a4.915,4.915,0,0,0,1.453-.6,3.975,3.975,0,0,0,1.161-1.167,3.889,3.889,0,0,0,.632-1.858v-.059l.081.07a3.106,3.106,0,0,0-1.745.961,6.416,6.416,0,0,0-.972,1.307c-.238.4-.4.735-.513.967a2.062,2.062,0,0,1-.178.362,1.537,1.537,0,0,1,.13-.378,9.688,9.688,0,0,1,.47-1,6.344,6.344,0,0,1,.967-1.345,3.241,3.241,0,0,1,1.82-1.01h.092v.146a3.992,3.992,0,0,1-.664,1.912,4.056,4.056,0,0,1-1.221,1.183,3.781,3.781,0,0,1-1.08.459c-.135.038-.248.043-.319.059A.265.265,0,0,1,446.531,198.944Z" transform="translate(-221.105 -114.108)" fill="#e0e0e0"/>
      <path id="Path_70821" data-name="Path 70821" d="M446.6,200.107a9.629,9.629,0,0,1,.994-1.237,9.45,9.45,0,0,1,1.107-1.15,8.722,8.722,0,0,1-.994,1.237,8.99,8.99,0,0,1-1.107,1.15Z" transform="translate(-221.174 -115.272)" fill="#e0e0e0"/>
      <path id="Path_70822" data-name="Path 70822" d="M83.578,173.36a20.875,20.875,0,0,1-12.806-9.636,18.542,18.542,0,0,1-1.345-15.312c1.4-3.894,4.094-7.324,5.25-11.288,1.312-4.494.54-9.268-.281-13.87s-1.62-9.36-.405-13.876,5.1-8.766,10.084-9.085c4.618-.3,8.885,2.9,10.8,6.832s1.939,8.442,1.491,12.747-1.329,8.6-1.08,12.92c.54,8.739,5.8,16.965,5.185,25.7-.324,4.553-2.209,7.464-5.434,10.883-2.782,2.949-7.4,4.861-11.5,3.986" transform="translate(-47.23 -70.458)" fill="#f5f5f5"/>
      <path id="Path_70823" data-name="Path 70823" d="M99.482,242.151c-.049,0-.092-19.358-.092-43.209s.043-43.242.092-43.242.086,19.358.086,43.242S99.53,242.151,99.482,242.151Z" transform="translate(-61.497 -95.947)" fill="#e0e0e0"/>
      <path id="Path_70824" data-name="Path 70824" d="M94.776,203.242a7.5,7.5,0,0,1-.8-.708c-.475-.448-1.118-1.08-1.8-1.809s-1.307-1.372-1.761-1.842a6.005,6.005,0,0,1-.708-.783,6.739,6.739,0,0,1,.794.7c.481.454,1.123,1.08,1.8,1.815s1.307,1.372,1.761,1.842a6.006,6.006,0,0,1,.708.783Z" transform="translate(-57.045 -115.447)" fill="#e0e0e0"/>
      <path id="Path_70825" data-name="Path 70825" d="M99.973,170.222a6.124,6.124,0,0,0,1.766-.735,4.861,4.861,0,0,0,1.415-1.426,4.791,4.791,0,0,0,.772-2.263v-.076l.1.086a3.781,3.781,0,0,0-2.128,1.167,8.253,8.253,0,0,0-1.188,1.62c-.286.492-.486.9-.621,1.183a2.945,2.945,0,0,1-.221.443,2.225,2.225,0,0,1,.162-.464,10.377,10.377,0,0,1,.573-1.215,7.642,7.642,0,0,1,1.177-1.62A3.878,3.878,0,0,1,104,165.69h.108v.178a4.758,4.758,0,0,1-.8,2.328,4.861,4.861,0,0,1-1.485,1.442,4.548,4.548,0,0,1-1.318.54,3.826,3.826,0,0,1-.383.07Z" transform="translate(-61.718 -100.542)" fill="#e0e0e0"/>
      <path id="Path_70826" data-name="Path 70826" d="M100.06,171.6a10.575,10.575,0,0,1,1.21-1.507,11.466,11.466,0,0,1,1.345-1.4,10.576,10.576,0,0,1-1.21,1.507,11.468,11.468,0,0,1-1.345,1.4Z" transform="translate(-61.805 -101.921)" fill="#e0e0e0"/>
      <path id="Path_70827" data-name="Path 70827" d="M376.281,143.941a25.094,25.094,0,0,1-15.393-11.58,22.285,22.285,0,0,1-1.62-18.4c1.68-4.677,4.915-8.8,6.309-13.557,1.572-5.4.637-11.143-.34-16.668s-1.961-11.245-.486-16.673S370.891,56.534,376.9,56.15c5.552-.356,10.678,3.484,13,8.21s2.328,10.138,1.788,15.312S390.092,90.01,390.422,95.2c.67,10.5,6.967,20.384,6.228,30.884-.383,5.466-2.652,8.96-6.525,13.076-3.343,3.543-8.9,5.871-13.816,4.785" transform="translate(-180.427 -50.155)" fill="#ebebeb"/>
      <path id="Path_70828" data-name="Path 70828" d="M395.393,226.532c-.059,0-.1-23.263-.1-51.948s.043-51.954.1-51.954.108,23.252.108,51.954S395.452,226.532,395.393,226.532Z" transform="translate(-197.577 -80.739)" fill="#e0e0e0"/>
      <path id="Path_70829" data-name="Path 70829" d="M389.742,179.853a8.392,8.392,0,0,1-.956-.848c-.573-.54-1.35-1.3-2.16-2.16s-1.572-1.647-2.117-2.209a7.876,7.876,0,0,1-.848-.945,9.129,9.129,0,0,1,.956.848c.573.54,1.35,1.3,2.16,2.16s1.572,1.647,2.117,2.214A8.148,8.148,0,0,1,389.742,179.853Z" transform="translate(-192.229 -104.221)" fill="#e0e0e0"/>
      <path id="Path_70830" data-name="Path 70830" d="M395.974,140.16a7.021,7.021,0,0,0,2.123-.88,5.833,5.833,0,0,0,1.7-1.712,5.7,5.7,0,0,0,.929-2.7v-.092l.119.1a4.58,4.58,0,0,0-2.56,1.4,9.929,9.929,0,0,0-1.426,1.912c-.34.589-.578,1.08-.745,1.421a2.88,2.88,0,0,1-.265.54,3.116,3.116,0,0,1,.194-.54,12.5,12.5,0,0,1,.686-1.458,9.182,9.182,0,0,1,1.415-1.966,4.661,4.661,0,0,1,2.668-1.48h.135v.157a5.8,5.8,0,0,1-.972,2.8,5.86,5.86,0,0,1-1.782,1.734,5.4,5.4,0,0,1-1.583.67c-.194.054-.356.065-.459.086A.306.306,0,0,1,395.974,140.16Z" transform="translate(-197.835 -86.294)" fill="#e0e0e0"/>
      <path id="Path_70831" data-name="Path 70831" d="M396.08,141.825a13.889,13.889,0,0,1,1.458-1.809,14.214,14.214,0,0,1,1.62-1.685,12.342,12.342,0,0,1-1.453,1.809A12.653,12.653,0,0,1,396.08,141.825Z" transform="translate(-197.941 -87.959)" fill="#e0e0e0"/>
      <path id="Path_70832" data-name="Path 70832" d="M46.418,155.853a23.614,23.614,0,0,1-14.475-10.862,20.978,20.978,0,0,1-1.518-17.284c1.583-4.4,4.629-8.275,5.941-12.757,1.48-5.082.6-10.478-.319-15.663S34.2,88.706,35.594,83.624s5.763-9.906,11.391-10.262c5.223-.335,10.046,3.278,12.223,7.724s2.193,9.538,1.685,14.4-1.5,9.722-1.194,14.583c.632,9.879,6.557,19.174,5.86,29.047-.362,5.142-2.49,8.431-6.136,12.3-3.149,3.295-8.377,5.455-13.006,4.434" transform="translate(-29.233 -58.071)" fill="#ebebeb"/>
      <path id="Path_70833" data-name="Path 70833" d="M64.387,233.5c-.054,0-.1-21.88-.1-48.864s.043-48.87.1-48.87.1,21.875.1,48.87S64.441,233.5,64.387,233.5Z" transform="translate(-45.355 -86.782)" fill="#e0e0e0"/>
      <path id="Path_70834" data-name="Path 70834" d="M59.1,189.542a6.874,6.874,0,0,1-.929-.81c-.54-.508-1.269-1.226-2.036-2.047s-1.48-1.55-1.993-2.079a8.176,8.176,0,0,1-.8-.886,8.059,8.059,0,0,1,.9.8c.54.513,1.269,1.226,2.036,2.052s1.48,1.545,1.993,2.079a7.1,7.1,0,0,1,.832.886Z" transform="translate(-40.319 -108.833)" fill="#e0e0e0"/>
      <path id="Path_70835" data-name="Path 70835" d="M64.913,152.18a6.562,6.562,0,0,0,1.993-.832,5.477,5.477,0,0,0,1.62-1.62,5.358,5.358,0,0,0,.87-2.555v-.086l.113.1a4.283,4.283,0,0,0-2.409,1.323,9.247,9.247,0,0,0-1.339,1.8c-.324.54-.54,1.015-.7,1.339a3.045,3.045,0,0,1-.248.492,2.977,2.977,0,0,1,.178-.54,12.7,12.7,0,0,1,.648-1.372,8.685,8.685,0,0,1,1.329-1.853A4.445,4.445,0,0,1,69.493,147h.124v.2a5.493,5.493,0,0,1-.924,2.63,5.4,5.4,0,0,1-1.68,1.62,5.1,5.1,0,0,1-1.485.632,2.964,2.964,0,0,1-.432.081A.432.432,0,0,1,64.913,152.18Z" transform="translate(-45.594 -91.946)" fill="#e0e0e0"/>
      <path id="Path_70836" data-name="Path 70836" d="M65,153.794a24.441,24.441,0,0,1,2.89-3.284,12.072,12.072,0,0,1-1.366,1.7A12.542,12.542,0,0,1,65,153.794Z" transform="translate(-45.682 -93.561)" fill="#e0e0e0"/>
      <path id="Path_70837" data-name="Path 70837" d="M181.926,55.019c.313-2.306-2.944-4.207-5.4-4.407a13.635,13.635,0,0,1-3.489-.3c-2.4-.832-3.354-3.932-5.693-4.92-1.75-.735-3.781-.081-5.461.772s-3.376,1.928-5.266,2.052c-1.653.1-3.441-.508-4.861.3-1.08.6-1.62,1.842-2.625,2.571a6.229,6.229,0,0,1-3.435.929,9.781,9.781,0,0,0-3.543.578,2.792,2.792,0,0,0-1.772,2.841Z" transform="translate(-80.332 -45.07)" fill="#f5f5f5"/>
      <path id="Path_70838" data-name="Path 70838" d="M250.949,84.184c.421-3.084-3.927-5.617-7.2-5.882-1.556-.124-3.176.113-4.656-.4-3.2-1.118-4.478-5.25-7.6-6.568-2.333-.988-5.023-.108-7.286,1.032s-4.5,2.571-7.021,2.733c-2.2.14-4.591-.675-6.514.4-1.437.8-2.16,2.452-3.505,3.43a8.282,8.282,0,0,1-4.586,1.242,12.868,12.868,0,0,0-4.726.772c-1.458.67-2.668,2.214-2.366,3.781Z" transform="translate(-105.671 -56.952)" fill="#ebebeb"/>
    </g>
    <g id="freepik--Floor--inject-51" transform="translate(25.308 191.209)">
      <path id="Path_70839" data-name="Path 70839" d="M267.609,315.78c0,.076-53.082.14-118.544.14s-118.555-.065-118.555-.14,53.072-.14,118.555-.14S267.609,315.7,267.609,315.78Z" transform="translate(-30.51 -315.64)" fill="#263238"/>
    </g>
    <g id="freepik--character-1--inject-51" transform="translate(19.198 97.926)">
      <path id="Path_70840" data-name="Path 70840" d="M125.235,358.623a90.534,90.534,0,0,0-14.8-14.8c-8.388-6.633-18.159-11.828-28.729-13.433a7.007,7.007,0,0,0-3.738.167,2.645,2.645,0,0,0-1.691,3c.54,1.62,2.7,1.836,4.2,2.7,2.09,1.194,2.83,3.781,3.959,5.893,2.458,4.629,7.194,7.562,11.823,9.992,8.879,4.71,18.521,8.642,28.572,8.6" transform="translate(-45.405 -229.06)" fill="#ebebeb"/>
      <path id="Path_70841" data-name="Path 70841" d="M155.915,369.725a12.623,12.623,0,0,1-1.982-3.316,5.109,5.109,0,0,1,0-3.781l-9.317-.978a7.236,7.236,0,0,0-.54,4.224,7.664,7.664,0,0,0,1.469,2.16c2.209,2.555,4.623,5.239,7.886,6.125a4.251,4.251,0,0,0,2.031.135,2.16,2.16,0,0,0,1.566-1.21C157.509,371.923,156.671,370.7,155.915,369.725Z" transform="translate(-76.571 -243.516)" fill="#00a099"/>
      <path id="Path_70842" data-name="Path 70842" d="M161.633,375.443a7.86,7.86,0,0,0-2.393-.081,8.026,8.026,0,0,0-2.22.886,2.013,2.013,0,0,1,.54-.5,4.321,4.321,0,0,1,3.414-.6C161.4,375.264,161.643,375.41,161.633,375.443Z" transform="translate(-82.58 -249.666)" fill="#263238"/>
      <path id="Path_70843" data-name="Path 70843" d="M159.653,372.083a6.411,6.411,0,0,0-2.1-.367,6.672,6.672,0,0,0-2.052.589,1.714,1.714,0,0,1,.508-.427,3.538,3.538,0,0,1,1.529-.443,3.441,3.441,0,0,1,1.572.281C159.486,371.883,159.675,372.056,159.653,372.083Z" transform="translate(-81.881 -248.014)" fill="#263238"/>
      <path id="Path_70844" data-name="Path 70844" d="M156.723,368.537a1.1,1.1,0,0,1-.34,0,2.928,2.928,0,0,1-.891-.248,3.619,3.619,0,0,1-1.129-.789,3.29,3.29,0,0,1-.508-.654,1.431,1.431,0,0,1-.275-.886.492.492,0,0,1,.389-.416.772.772,0,0,1,.5.108,2.991,2.991,0,0,1,.627.54,4.4,4.4,0,0,1,.767,1.14,2.458,2.458,0,0,1,.324,1.215c-.043,0-.14-.464-.5-1.123a5.039,5.039,0,0,0-.783-1.08,3.041,3.041,0,0,0-.573-.481c-.216-.13-.443-.1-.47.108a1.183,1.183,0,0,0,.232.7,3.364,3.364,0,0,0,.454.616,3.834,3.834,0,0,0,1.032.789A11.1,11.1,0,0,0,156.723,368.537Z" transform="translate(-80.998 -245.305)" fill="#263238"/>
      <path id="Path_70845" data-name="Path 70845" d="M158.126,368.986a2.252,2.252,0,0,1,.167-1.015,4.98,4.98,0,0,1,.465-1.015,4.636,4.636,0,0,1,.383-.54.718.718,0,0,1,.772-.259.475.475,0,0,1,.292.378.8.8,0,0,1-.054.4,2.745,2.745,0,0,1-.329.6,4.093,4.093,0,0,1-.756.826,2.031,2.031,0,0,1-.891.513c0-.038.319-.232.756-.659a4.4,4.4,0,0,0,.675-.826,3.045,3.045,0,0,0,.286-.54c.07-.194.054-.383-.086-.427-.329-.124-.61.373-.826.681a6.1,6.1,0,0,0-.5.951C158.245,368.608,158.169,368.992,158.126,368.986Z" transform="translate(-83.086 -245.576)" fill="#263238"/>
      <path id="Path_70846" data-name="Path 70846" d="M157.257,375.137a.9.9,0,0,1-.135.1,2.106,2.106,0,0,1-.437.205,3.689,3.689,0,0,1-1.75.146,6.141,6.141,0,0,1-2.425-.961,23.9,23.9,0,0,1-2.544-1.9,29.275,29.275,0,0,1-2.3-2.16,10.873,10.873,0,0,1-1.62-2.052,4.931,4.931,0,0,1-.61-1.647,1.761,1.761,0,0,1,0-.648,5.8,5.8,0,0,0,.8,2.193,11.882,11.882,0,0,0,1.62,1.977,31.112,31.112,0,0,0,2.3,2.16,27.15,27.15,0,0,0,2.5,1.9,6.3,6.3,0,0,0,2.317.983,3.862,3.862,0,0,0,1.685-.059C157.068,375.235,157.241,375.116,157.257,375.137Z" transform="translate(-77.238 -245.618)" fill="#263238"/>
      <path id="Path_70847" data-name="Path 70847" d="M118.046,336.27c0,1.08-1.912,4.245-1.809,6.26s.54,3.657,2.393,4.753a3.212,3.212,0,0,0,3.349.243,3.37,3.37,0,0,0,1.053-1.62c.789-1.977,2.506-6.1,3.295-8.1" transform="translate(-63.823 -231.844)" fill="#00a099"/>
      <path id="Path_70848" data-name="Path 70848" d="M123.159,349.332a9.656,9.656,0,0,0-1.5-.913,10.228,10.228,0,0,0-1.718-.383,2.917,2.917,0,0,1,3.241,1.3Z" transform="translate(-65.528 -237.21)" fill="#263238"/>
      <path id="Path_70849" data-name="Path 70849" d="M124.69,346.547a13.394,13.394,0,0,0-1.745-1.01,12.847,12.847,0,0,0-1.955-.475A3.781,3.781,0,0,1,124.69,346.547Z" transform="translate(-66.011 -235.861)" fill="#263238"/>
      <path id="Path_70850" data-name="Path 70850" d="M123.117,344.059a2.669,2.669,0,0,1-.772-.41l-.8-.513-.47-.313a1.523,1.523,0,0,1-.259-.205.432.432,0,0,1-.086-.432.313.313,0,0,1,.2-.173.54.54,0,0,1,.2,0,1.569,1.569,0,0,1,.319.049,1.717,1.717,0,0,1,.54.227,1.755,1.755,0,0,1,.675.735,1.134,1.134,0,0,1,.135.886,5.056,5.056,0,0,0-.313-.826,1.68,1.68,0,0,0-.632-.61,1.778,1.778,0,0,0-.481-.184c-.162-.038-.437-.043-.4,0a.733.733,0,0,0,.243.3l.459.324.762.54C122.884,343.811,123.144,344.027,123.117,344.059Z" transform="translate(-65.879 -234.481)" fill="#263238"/>
      <path id="Path_70851" data-name="Path 70851" d="M124.522,343.987a1.982,1.982,0,0,1,.578-.886,3.716,3.716,0,0,1,1.566-.961,1.08,1.08,0,0,1,.394-.07.54.54,0,0,1,.427.227.486.486,0,0,1,0,.486,1.123,1.123,0,0,1-.265.3,4.473,4.473,0,0,1-.573.389,4.213,4.213,0,0,1-1.08.41,1.977,1.977,0,0,1-1.08.027c0-.043.4-.043,1.01-.221a4.471,4.471,0,0,0,1-.443,3.916,3.916,0,0,0,.54-.373c.162-.13.292-.335.211-.432a.475.475,0,0,0-.5-.043,4.057,4.057,0,0,0-1.507.848C124.765,343.652,124.56,344.014,124.522,343.987Z" transform="translate(-67.62 -234.512)" fill="#263238"/>
      <path id="Path_70852" data-name="Path 70852" d="M125.689,340.544a5.875,5.875,0,0,1-.319.859l-.956,2.285c-.211.486-.437,1.015-.675,1.577a16.062,16.062,0,0,1-.853,1.788,3.554,3.554,0,0,1-1.62,1.529,3.165,3.165,0,0,1-2.382-.027,3.916,3.916,0,0,1-1.831-1.523,5.736,5.736,0,0,1-.789-2.063,8.982,8.982,0,0,1,.151-3.7,8.891,8.891,0,0,1,.929-2.317,6.334,6.334,0,0,1,.362-.573.767.767,0,0,1,.151-.178,12.126,12.126,0,0,0-1.253,3.133,8.944,8.944,0,0,0-.086,3.608,5.488,5.488,0,0,0,.762,1.961,3.657,3.657,0,0,0,1.7,1.415,2.933,2.933,0,0,0,2.16.032,3.305,3.305,0,0,0,1.491-1.41,16.2,16.2,0,0,0,.859-1.745l.708-1.561c.427-.918.772-1.68,1.042-2.252A5.312,5.312,0,0,1,125.689,340.544Z" transform="translate(-63.78 -232.732)" fill="#263238"/>
      <path id="Path_70853" data-name="Path 70853" d="M115.188,324.09c-.081,2.7,1.728,7.9,4.186,9.582a5.272,5.272,0,0,0,3.576,1.08,5.741,5.741,0,0,0,2.825-1.437c2.16-1.766,3.106-3.581,4.861-7.367" transform="translate(-63.341 -226.243)" fill="#263238"/>
      <path id="Path_70854" data-name="Path 70854" d="M114.523,274.31s-.367,24.235.621,25.574c2.052,2.776,5.65,5.072,9.49,4.267s5.806-2.7,5.752-5.758.567-16.852.567-16.852l7.729-6.892-.627-3.311-23.392-4.569Z" transform="translate(-63.006 -199.882)" fill="#263238"/>
      <path id="Path_70855" data-name="Path 70855" d="M160,272.75c0,.162,1.545,28.664,1.161,31.24S153.88,323.3,153.88,323.3a19.733,19.733,0,0,1-10.1-1.48,72.171,72.171,0,0,1,1.08-10.262c1.015-5.082,1.739-7.351,1.739-7.351l-2.16-19.752,2.63-11.688Z" transform="translate(-76.491 -202.632)" fill="#263238"/>
      <path id="Path_70856" data-name="Path 70856" d="M152.407,279.939c.054.059-2.279,2.16-5.207,4.694s-5.342,4.542-5.4,4.483,2.285-2.16,5.212-4.694S152.358,279.879,152.407,279.939Z" transform="translate(-75.58 -205.938)" fill="#455a64"/>
      <path id="Path_70857" data-name="Path 70857" d="M152.527,288.63a5.816,5.816,0,0,1-1.08.54l-2.56,1.194L146.31,291.6a5.084,5.084,0,0,1-1.08.47,4.809,4.809,0,0,1,1-.648c.637-.362,1.534-.837,2.549-1.312s1.95-.864,2.641-1.123A4.6,4.6,0,0,1,152.527,288.63Z" transform="translate(-77.158 -209.935)" fill="#455a64"/>
      <path id="Path_70858" data-name="Path 70858" d="M136.36,311.468a9.609,9.609,0,0,1,.594-1.437c.389-.88.918-2.1,1.453-3.457s.988-2.609,1.307-3.516a10.348,10.348,0,0,1,.54-1.458,7.306,7.306,0,0,1-.362,1.518c-.27.924-.691,2.193-1.231,3.559a35.014,35.014,0,0,1-1.539,3.435A7.47,7.47,0,0,1,136.36,311.468Z" transform="translate(-73.079 -215.9)" fill="#455a64"/>
      <path id="Path_70859" data-name="Path 70859" d="M129.808,329.576a2.872,2.872,0,0,1-.54.41c-.346.243-.853.594-1.512.978a11.013,11.013,0,0,1-2.452,1.08,6.433,6.433,0,0,1-3.284.119,8.328,8.328,0,0,1-2.971-1.41,14.337,14.337,0,0,1-1.993-1.788,16.936,16.936,0,0,1-1.177-1.356,2.836,2.836,0,0,1-.389-.54,3.49,3.49,0,0,1,.47.459c.292.308.708.762,1.242,1.291a14.584,14.584,0,0,0,2,1.718,8.366,8.366,0,0,0,2.884,1.345,6.314,6.314,0,0,0,3.154-.1,11.623,11.623,0,0,0,2.409-.972C128.993,330.068,129.771,329.533,129.808,329.576Z" transform="translate(-63.481 -227.614)" fill="#455a64"/>
      <path id="Path_70860" data-name="Path 70860" d="M151.44,334.2a4.153,4.153,0,0,1-.61-1.037,17.177,17.177,0,0,1-1.042-2.7,16.338,16.338,0,0,1-.54-2.857,4.106,4.106,0,0,1-.032-1.2c.086,0,.232,1.826.859,3.986S151.521,334.161,151.44,334.2Z" transform="translate(-78.977 -227.305)" fill="#455a64"/>
      <path id="Path_70861" data-name="Path 70861" d="M150.106,338.683a3.468,3.468,0,0,1-.465-1.032,10.5,10.5,0,0,1-.292-5.4,3.241,3.241,0,0,1,.351-1.08,20.335,20.335,0,0,0-.281,3.781A21.178,21.178,0,0,0,150.106,338.683Z" transform="translate(-78.95 -229.499)" fill="#455a64"/>
      <path id="Path_70862" data-name="Path 70862" d="M168.669,335.17a3.9,3.9,0,0,1-1.863,1.372,3.851,3.851,0,0,1-2.3.335,18.52,18.52,0,0,0,2.187-.594A19.542,19.542,0,0,0,168.669,335.17Z" transform="translate(-86.025 -231.339)" fill="#455a64"/>
      <path id="Path_70863" data-name="Path 70863" d="M104,198.9c.146,8.685,2.042,17.321-2.641,24.64s-13.087,12.639-21.74,11.92c-3.819-.313-7.653-1.772-11.38-.972-5.671,1.167-9.079,6.762-11.807,11.834-2.16-4.467-7.254-6.53-11.445-9.182a68.82,68.82,0,0,1-10.705-9.079L21.408,215.52a6.733,6.733,0,0,1-2.117-3.019,4.527,4.527,0,0,1,1.82-4.386c2.738-2.2,6.724-1.907,10.079-.864s6.584,2.7,10.095,2.933c5.082.324,9.841-2.447,13.854-5.585s7.751-6.789,12.423-8.777,10.8-1.82,14.151,2.015l13.778.238s4.153-5.617,8.5.826" transform="translate(-19.198 -166.678)" fill="#00a099"/>
      <path id="Path_70864" data-name="Path 70864" d="M105.655,199.955c-4.321-6.444-8.5-.826-8.5-.826L83.4,198.891s-4.661-4.8-12.92,2.6-13.5,18.6-24.845,18.591-17.554-10.3-21.7-7.524c-1.89,1.269-.87,4.018-.87,4.018L35.942,229.1a68.819,68.819,0,0,0,10.705,9.079c4.191,2.668,9.263,4.731,11.445,9.182,2.7-5.066,6.136-10.667,11.78-11.834,3.781-.783,7.562.659,11.407.972,8.642.718,17.057-4.607,21.74-11.92s2.787-15.955,2.641-24.64" transform="translate(-20.85 -167.732)" opacity="0.4"/>
      <path id="Path_70865" data-name="Path 70865" d="M42.7,241.2a1.944,1.944,0,0,1,.34.205c.221.14.54.373.945.627a27.929,27.929,0,0,0,30,.362,28.775,28.775,0,0,0,3.387-2.431c.389-.308.664-.573.864-.74a1.431,1.431,0,0,1,.313-.243,3.172,3.172,0,0,1-.275.286c-.189.178-.454.459-.832.778a25.72,25.72,0,0,1-3.354,2.517A27.515,27.515,0,0,1,47.566,244.2a25.882,25.882,0,0,1-3.624-2.079c-.41-.27-.708-.54-.918-.67a2.4,2.4,0,0,1-.324-.254Z" transform="translate(-30.006 -187.102)" fill="#263238"/>
      <path id="Path_70866" data-name="Path 70866" d="M89.2,261.117s-4.143-2.015-5.86-1.15c0,0-1.793,3.554-1.961,3.781-.465.6-1.383,2.819-.945,3.311,0,0-.464,2.322.059,2.868s1.475-.859,1.475-.859-.691,2.1.151,2.436c1.2.486,1.345-1.253,1.345-1.253s-.113,1.372.967,1.518c.54.065,1.129-.7,1.156-2.285,0-.405,1.383-1.421,1.383-1.421a10.136,10.136,0,0,0,.356,3.17c.427.94,1.307.383,1.323-.437a7.988,7.988,0,0,1,.281-1.831,30.509,30.509,0,0,0,.167-3.624Z" transform="translate(-47.274 -196.654)" fill="#ffbe9d"/>
      <path id="Path_70867" data-name="Path 70867" d="M88.273,272.827a1.547,1.547,0,0,1-.459.5,13.039,13.039,0,0,0-1.275.918,1.739,1.739,0,0,0-.54,1.339,2.287,2.287,0,0,1-.032.664,1.372,1.372,0,0,1-.167-.654,2.16,2.16,0,0,1,.049-.751,1.691,1.691,0,0,1,.492-.8,6.941,6.941,0,0,1,1.361-.88C88.062,272.962,88.24,272.8,88.273,272.827Z" transform="translate(-49.821 -202.667)" fill="#eb996e"/>
      <path id="Path_70868" data-name="Path 70868" d="M85.091,271.825a7.779,7.779,0,0,0-1.129,1.3,7.622,7.622,0,0,0-.578,1.62,2.7,2.7,0,0,1,1.707-2.927Z" transform="translate(-48.702 -202.205)" fill="#eb996e"/>
      <path id="Path_70869" data-name="Path 70869" d="M82.493,269.84a10.9,10.9,0,0,0-1.08.843,11.086,11.086,0,0,0-.783,1.129A2.16,2.16,0,0,1,82.5,269.84Z" transform="translate(-47.45 -201.294)" fill="#eb996e"/>
      <path id="Path_70870" data-name="Path 70870" d="M209.744,150.672a.729.729,0,0,0-.967-.47,3,3,0,0,0,.189-.994,1.08,1.08,0,0,0-.427-.88.675.675,0,0,0-.907.13,1.08,1.08,0,0,0-1.847-1.021,1.28,1.28,0,0,0-.859-1.167,1.923,1.923,0,0,0-1.5.135,4.132,4.132,0,0,0-1.2.967,3.743,3.743,0,0,0-.848,1.334,4.591,4.591,0,0,0-.146,1.491l.065,5.59L205.558,158a2.4,2.4,0,0,0,2.263-1.21,6.351,6.351,0,0,0,.772-2.582,4.819,4.819,0,0,1,.308-1.3c.167-.378.438-.7.637-1.053A1.5,1.5,0,0,0,209.744,150.672Z" transform="translate(-102.908 -144.423)" fill="#ffbe9d"/>
      <path id="Path_70871" data-name="Path 70871" d="M205.65,151.913s2.2-1.928,2.7-2.241,1.539-1.377,2.16-.378c.5.8-.724,1.944-.821,2.036-.232.238-1.928,2.468-1.928,2.468a2.5,2.5,0,0,1-.27,3.008" transform="translate(-104.945 -145.664)" fill="#ffbe9d"/>
      <path id="Path_70872" data-name="Path 70872" d="M207.486,156.684c-.027-.027.205-.265.41-.778a2.436,2.436,0,0,0-.238-2.16l-.043-.07.049-.065,1.188-1.55.664-.853a5.758,5.758,0,0,0,.7-.848c.265-.405.394-.9.1-1.215a.578.578,0,0,0-.5-.248,1.269,1.269,0,0,0-.573.194c-.356.211-.708.5-1.026.7a10.682,10.682,0,0,0-.853.67l-1.231.994a2.474,2.474,0,0,1-.475.34,2.35,2.35,0,0,1,.4-.421c.275-.259.675-.621,1.177-1.08.254-.221.54-.459.843-.708a8.44,8.44,0,0,1,1.037-.735,1.513,1.513,0,0,1,.691-.243.848.848,0,0,1,.724.346.988.988,0,0,1,.232.783,1.928,1.928,0,0,1-.3.756,6.417,6.417,0,0,1-.74.891l-.637.853-1.2,1.507v-.135a2.539,2.539,0,0,1,.167,2.35,1.9,1.9,0,0,1-.189.335,1.232,1.232,0,0,1-.173.227C207.557,156.635,207.5,156.689,207.486,156.684Z" transform="translate(-104.945 -145.541)" fill="#eb996e"/>
      <path id="Path_70873" data-name="Path 70873" d="M204.976,147.94a6.3,6.3,0,0,1,.07,1.847,1.772,1.772,0,0,0,.043.654.464.464,0,0,0,.335.3c.286.065.508,0,.513.054s-.173.162-.54.146a.664.664,0,0,1-.54-.405,1.734,1.734,0,0,1-.086-.762,6.2,6.2,0,0,1,.205-1.836Z" transform="translate(-104.536 -145.234)" fill="#eb996e"/>
      <path id="Path_70874" data-name="Path 70874" d="M203.457,150.456c.076-.032.205.124.41.221s.405.119.427.2-.243.205-.54.054S203.381,150.473,203.457,150.456Z" transform="translate(-103.923 -146.389)" fill="#eb996e"/>
      <path id="Path_70875" data-name="Path 70875" d="M209.491,149.614c-.076-.032,0-.351,0-.74s0-.713.076-.735.232.313.205.751S209.562,149.641,209.491,149.614Z" transform="translate(-106.696 -145.325)" fill="#eb996e"/>
      <path id="Path_70876" data-name="Path 70876" d="M210.816,155.45c.032-.027.178.162.464.319a.54.54,0,0,0,.5.038,1.275,1.275,0,0,0,.47-.5c.6-.9.956-1.707,1.032-1.68a4.2,4.2,0,0,1-.794,1.836,1.415,1.415,0,0,1-.61.583.762.762,0,0,1-.7-.108C210.864,155.682,210.789,155.45,210.816,155.45Z" transform="translate(-107.318 -147.85)" fill="#eb996e"/>
      <path id="Path_70877" data-name="Path 70877" d="M212.476,157.33c.049,0,.038.2.119.438a.351.351,0,0,0,.275.243,1.037,1.037,0,0,0,.508-.162,6.778,6.778,0,0,0,1.21-.988,1.893,1.893,0,0,1-1.08,1.237,1.113,1.113,0,0,1-.686.167.54.54,0,0,1-.421-.437C212.357,157.476,212.449,157.33,212.476,157.33Z" transform="translate(-108.044 -149.336)" fill="#eb996e"/>
      <path id="Path_70878" data-name="Path 70878" d="M210.468,159.831c-.032-.07.34-.259.826-.178s.783.367.735.421-.362-.086-.778-.146S210.49,159.918,210.468,159.831Z" transform="translate(-107.16 -150.612)" fill="#eb996e"/>
      <path id="Path_70879" data-name="Path 70879" d="M146.313,162.65,139.6,177.3s-7.562,5.817-8.809,5.9a14.194,14.194,0,0,0-5.639,1.782l-.14-.054-11.283-1.723-4.812.961s-3-.481-7.427,3.619c-2.765,2.56-12.158,9.225-13.5,12.9s-4.726,15.766-4.726,15.766l8.064,1.847s4.942-12.055,5.741-13.379c.54-.848,4.213-3.516,6.805-5.326-.492,2.971-1.037,6.228-1.307,9.02-.821,8.323-3.322,10.646-2,11.758,2.906,2.447,29.614,3.143,31.219,1.955.627-.465,0-1.231,0-8.707,0-5.768.286-12.3.54-17.37,3.732-2.965,13.762-11.089,15.021-13.595,1.55-3.084,6.179-17.284,6.179-17.284Z" transform="translate(-48.659 -151.999)" fill="#455a64"/>
      <path id="Path_70880" data-name="Path 70880" d="M122.738,208.19a2.252,2.252,0,0,1,.281.632,8.48,8.48,0,0,1,.443,1.826,9.663,9.663,0,0,1,0,2.787,15.9,15.9,0,0,1-.367,1.62,8.988,8.988,0,0,1-.621,1.674,9.917,9.917,0,0,1-2.058,2.733,21.917,21.917,0,0,1-2.16,1.766c-.643.454-1.177.81-1.556,1.037a3.327,3.327,0,0,1-.6.329,2.885,2.885,0,0,1,.54-.421c.356-.254.87-.632,1.5-1.08a23.655,23.655,0,0,0,2.085-1.8,9.971,9.971,0,0,0,1.988-2.668,9.274,9.274,0,0,0,.589-1.62,16.1,16.1,0,0,0,.373-1.577,10.046,10.046,0,0,0,.086-2.7,17.23,17.23,0,0,0-.518-2.539Z" transform="translate(-63.762 -172.942)" fill="#263238"/>
      <path id="Path_70881" data-name="Path 70881" d="M135.3,233.936c.032-.356.124-.567.286-.637a.584.584,0,0,1,.211-.049.367.367,0,0,1,.346.211.864.864,0,0,1,.081.421v.627l.049,1.123v.41c.049.378.086.664.113.848a4.937,4.937,0,0,1,.043.853.729.729,0,0,1-.13.394.427.427,0,0,1-.356.173.735.735,0,0,1-.205-.032.459.459,0,0,1-.308-.367,2.257,2.257,0,0,1-.054-.508l-.038-1.032c0-.319-.14-.459-.405-.432a4.082,4.082,0,0,1-.627.027c-.167,0-.254.119-.259.378s0,.54,0,.875.027.54.027.729c0,.351-.216.492-.621.427a.4.4,0,0,1-.41-.459c0-.216,0-.329,0-.335q0-.162-.032-.745c0-.54-.049-.951-.059-1.172-.027-.481-.043-.843-.043-1.08v-.718c.038-.329.14-.54.308-.573a.724.724,0,0,1,.194-.032c.227,0,.389.189.481.578a2.3,2.3,0,0,1,.065.61,2.106,2.106,0,0,0,0,.481c.043.113.178.173.41.173a4.91,4.91,0,0,0,.567,0,.34.34,0,0,0,.308-.373Q135.3,234.06,135.3,233.936Z" transform="translate(-71.492 -184.467)" fill="#e0e0e0"/>
      <path id="Path_70882" data-name="Path 70882" d="M143.154,234.407a1.939,1.939,0,0,1-.427.038h-.54a1.231,1.231,0,0,0-.492.086.464.464,0,0,0-.3.27,1.943,1.943,0,0,0-.076.405v.438a.354.354,0,0,0,.335.362,2.585,2.585,0,0,0,.47,0h.864a.54.54,0,0,1,.3.1.313.313,0,0,1,.151.265,1.523,1.523,0,0,1,0,.227.367.367,0,0,1-.1.14.875.875,0,0,1-.54.086c-.259-.027-.454-.049-.583-.054a2.874,2.874,0,0,1-.335-.027h-.248c-.1,0-.162.081-.2.232a.318.318,0,0,0,.054.308.54.54,0,0,0,.254.135,3.478,3.478,0,0,0,.832.043c.448-.038.713.049.783.265a.4.4,0,0,1,0,.14c0,.313-.2.475-.594.475l-.389-.032c-.589-.049-.945-.081-1.08-.1a.918.918,0,0,1-.826-.994,14.659,14.659,0,0,0-.065-1.475v-.464a5.943,5.943,0,0,1,.108-1.08c.1-.5.492-.8,1.188-.913a2.851,2.851,0,0,1,.5-.043,3.359,3.359,0,0,1,.945.157.508.508,0,0,1,.248.259.594.594,0,0,1,.07.356.8.8,0,0,1,0,.119A.486.486,0,0,1,143.154,234.407Z" transform="translate(-74.942 -184.462)" fill="#e0e0e0"/>
      <path id="Path_70883" data-name="Path 70883" d="M149.076,233.242a5.5,5.5,0,0,1,1.258.07.951.951,0,0,1,.886.74,2.366,2.366,0,0,1,.065.5.848.848,0,0,1-.1.437,1.545,1.545,0,0,1-1.447.745h-.891c-.092,0-.059,0-.059.038s.038.1.113.178c.254.27.465.5.627.7.238.281.41.492.54.627a1.35,1.35,0,0,1,.367.681.416.416,0,0,1-.265.378.508.508,0,0,1-.194.043.913.913,0,0,1-.632-.41,2.7,2.7,0,0,1-.427-.621l-.654-1.237c.076.7.108,1.129.1,1.275v.438a.767.767,0,0,1-.059.275.373.373,0,0,1-.173.205.93.93,0,0,1-.275.065c-.238,0-.356-.173-.356-.594a1.914,1.914,0,0,1-.032-.286c-.049-.8-.076-1.485-.07-2.042v-.794a1.377,1.377,0,0,1,.389-1.08,2.328,2.328,0,0,1,1.291-.329Zm0,.81a.654.654,0,0,0-.362.1.508.508,0,0,0-.248.438.351.351,0,0,0,.389.389c.54.027.8-.086.859-.335a.4.4,0,0,0-.243-.5A.875.875,0,0,0,149.076,234.052Z" transform="translate(-78.152 -184.459)" fill="#e0e0e0"/>
      <path id="Path_70884" data-name="Path 70884" d="M156.232,238.187a2.846,2.846,0,0,0,.454.135c.13-.286.248-.578.389-.864h-.157c-.275-.054-.448-.319-.54-.8a4.861,4.861,0,0,1-.059-.772,5.35,5.35,0,0,1,.043-.708c.065-.508.205-.789.432-.843a1.151,1.151,0,0,1,.6,0c.189.054.329.248.421.589a3.578,3.578,0,0,1,.076.508c.205-.54.427-1.08.675-1.62a.913.913,0,0,0-.227-.259,1.08,1.08,0,0,0-.41-.232,2.567,2.567,0,0,0-.5-.07h-.34c-.88,0-1.4.292-1.572.886a4.353,4.353,0,0,0-.189,1.161v.783a3.5,3.5,0,0,0,.081.762l.162.643a.664.664,0,0,0,.232.421,1.08,1.08,0,0,0,.427.281Z" transform="translate(-81.803 -184.467)" fill="#e0e0e0"/>
      <path id="Path_70885" data-name="Path 70885" d="M159.733,237.191c-.027-.243-.049-.416-.054-.54a2.311,2.311,0,0,0-.173-.7.961.961,0,0,0-.286-.362,1.491,1.491,0,0,0-.248-.162l-.065.184a1.993,1.993,0,0,1-.113.346v.032a.547.547,0,0,1,0,.065h0a4.616,4.616,0,0,1-.221.5,1.3,1.3,0,0,1,.162.378,3.155,3.155,0,0,1,.092.772,5.753,5.753,0,0,1-.032.583c-.054.6-.167.961-.324,1.08a.686.686,0,0,1-.427.124,1.081,1.081,0,0,1-.227,0c-.211-.038-.356-.205-.454-.492-.113.275-.238.54-.367.826a2.071,2.071,0,0,1-.135.238,1.026,1.026,0,0,0,.27.173,2.793,2.793,0,0,0,.464.14,3.87,3.87,0,0,0,.475.049h.151a2.036,2.036,0,0,0,.675-.113.945.945,0,0,0,.621-.508,2.247,2.247,0,0,0,.14-.4,12.848,12.848,0,0,0,.151-1.691A2.739,2.739,0,0,1,159.733,237.191Z" transform="translate(-82.507 -185.47)" fill="#e0e0e0"/>
      <path id="Path_70886" data-name="Path 70886" d="M164.8,236.952a7.5,7.5,0,0,1-.059,1.053c-.076.54-.211.843-.416.843a.443.443,0,0,1-.389-.248.923.923,0,0,1-.124-.47c0-.508-.032-1.161-.1-1.955v-.216c0-.492.162-.74.486-.751a.405.405,0,0,1,.421.232,1.458,1.458,0,0,1,.162.475C164.779,236.028,164.79,236.374,164.8,236.952Zm-.6,3.365c-.254-.086-.383-.232-.383-.443a.761.761,0,0,1,.07-.3c.119-.3.281-.448.492-.448a.541.541,0,0,1,.189.043.454.454,0,0,1,.34.448.707.707,0,0,1,0,.211c-.092.324-.221.5-.378.508A.762.762,0,0,1,164.2,240.316Z" transform="translate(-85.657 -185.365)" fill="#e0e0e0"/>
      <path id="Path_70887" data-name="Path 70887" d="M145.8,226.84a1.172,1.172,0,0,1-.059.308c-.049.2-.119.492-.227.864-.211.751-.54,1.826-1.048,3.127a29.482,29.482,0,0,1-2.106,4.407,21.6,21.6,0,0,1-3.705,4.715,16.782,16.782,0,0,1-5.028,3.241,14.253,14.253,0,0,1-4.775,1.08,11.4,11.4,0,0,1-3.284-.313c-.378-.081-.659-.205-.859-.259a1.243,1.243,0,0,1-.286-.119c0-.027.416.108,1.172.27a11.986,11.986,0,0,0,3.241.221,14.248,14.248,0,0,0,4.683-1.123,16.744,16.744,0,0,0,4.937-3.214,22.015,22.015,0,0,0,3.673-4.64,30.916,30.916,0,0,0,2.16-4.353c.54-1.285.886-2.344,1.123-3.084.113-.346.211-.627.281-.848A1.659,1.659,0,0,1,145.8,226.84Z" transform="translate(-67.588 -181.519)" fill="#263238"/>
      <g id="Group_70930" data-name="Group 70930" transform="translate(59.014 50.203)" opacity="0.2">
        <path id="Path_70888" data-name="Path 70888" d="M128.46,248.8a8.755,8.755,0,0,1,5.288-5.342c1.561-.54,3.241-.648,4.807-1.226,2.971-1.08,5.012-3.781,6.886-6.352a16.744,16.744,0,0,1-16.841,12.8" transform="translate(-128.46 -235.88)"/>
      </g>
      <path id="Path_70889" data-name="Path 70889" d="M173.282,207.77a6.583,6.583,0,0,1,.356,1.545,22.257,22.257,0,0,1,.286,3.819,22.522,22.522,0,0,1-.351,3.813,7.2,7.2,0,0,1-.383,1.539,12.676,12.676,0,0,1,.189-1.572,31.866,31.866,0,0,0,.265-3.781,32.587,32.587,0,0,0-.2-3.781,12.65,12.65,0,0,1-.162-1.583Z" transform="translate(-90.017 -172.749)" fill="#263238"/>
      <path id="Path_70890" data-name="Path 70890" d="M147.832,175.87v-.1c4-.54,5.844-4.375,6.109-8.993a56.646,56.646,0,0,0,.076-7.95,41.449,41.449,0,0,0-1.339-9.268,11.31,11.31,0,0,0-9.371-3.6C137.176,146.4,134,154.6,134,154.6s.043,12.493.405,15.021a20.31,20.31,0,0,1,.308,3.424l.14,3.089a6.481,6.481,0,0,0,6.481,6.19h0A6.481,6.481,0,0,0,147.832,175.87Z" transform="translate(-71.994 -144.3)" fill="#ffbe9d"/>
      <path id="Path_70891" data-name="Path 70891" d="M131.014,176.384c-.108-.043-4.321-1.307-4.2,2.981s4.418,3.3,4.418,3.2S131.014,176.384,131.014,176.384Z" transform="translate(-68.689 -158.22)" fill="#ffbe9d"/>
      <path id="Path_70892" data-name="Path 70892" d="M130.805,182.137a1.461,1.461,0,0,1-.2.113.756.756,0,0,1-.54.027,1.833,1.833,0,0,1-.9-1.62,2.4,2.4,0,0,1,.184-1.08.859.859,0,0,1,.54-.589.389.389,0,0,1,.448.194c.059.119.032.205.054.211s.092-.07.054-.248a.492.492,0,0,0-.178-.265.54.54,0,0,0-.416-.1,1.042,1.042,0,0,0-.762.681,2.506,2.506,0,0,0-.227,1.2A1.939,1.939,0,0,0,130,182.493a.794.794,0,0,0,.681-.135C130.8,182.245,130.816,182.137,130.805,182.137Z" transform="translate(-69.631 -159.414)" fill="#eb996e"/>
      <path id="Path_70893" data-name="Path 70893" d="M163.4,173.644c-.119.124-.821-.405-1.826-.41s-1.745.492-1.853.367.07-.275.389-.5a2.566,2.566,0,0,1,1.485-.448,2.49,2.49,0,0,1,1.453.481C163.353,173.379,163.461,173.59,163.4,173.644Z" transform="translate(-83.809 -156.598)" fill="#263238"/>
      <path id="Path_70894" data-name="Path 70894" d="M145.171,174.264c-.119.124-.821-.405-1.826-.41s-1.745.492-1.853.367.065-.275.389-.5a2.566,2.566,0,0,1,1.485-.448,2.49,2.49,0,0,1,1.453.481C145.122,173.988,145.23,174.2,145.171,174.264Z" transform="translate(-75.425 -156.883)" fill="#263238"/>
      <path id="Path_70895" data-name="Path 70895" d="M144.1,167.9c-.054.216-.664.238-1.329.454s-1.188.54-1.35.367c-.076-.07-.032-.265.162-.5a1.987,1.987,0,0,1,.961-.61,2.09,2.09,0,0,1,1.145-.038C143.975,167.663,144.121,167.777,144.1,167.9Z" transform="translate(-75.39 -154.236)" fill="#263238"/>
      <path id="Path_70896" data-name="Path 70896" d="M163.439,166.879a1.86,1.86,0,0,1-1.448.07c-.627-.157-.988-.443-.81-.632a1.877,1.877,0,0,1,1.442-.07C163.245,166.4,163.612,166.684,163.439,166.879Z" transform="translate(-84.473 -153.608)" fill="#263238"/>
      <path id="Path_70897" data-name="Path 70897" d="M151.124,187.2c0,.059-.124.167-.389.2a1.4,1.4,0,0,1-.994-.275,1.42,1.42,0,0,1-.54-.886c-.038-.265.032-.427.092-.427a3.546,3.546,0,0,0,.729.94C150.519,187.122,151.091,187.074,151.124,187.2Z" transform="translate(-78.98 -162.65)" fill="#263238"/>
      <path id="Path_70898" data-name="Path 70898" d="M154.206,200.5s-5.136.086-6.346-.8c0,0,.772,2.468,6.217,2.209Z" transform="translate(-78.368 -169.038)" fill="#eb996e"/>
      <path id="Path_70899" data-name="Path 70899" d="M153.633,152.436c.059-1,.367-1.993.373-3a5.45,5.45,0,0,0-1.831-3.975,6.481,6.481,0,0,0-4.126-1.583,28.288,28.288,0,0,1-3.381.049c-.945-.14-1.826-.567-2.755-.794a7.021,7.021,0,0,0-5.666,1.053,19.5,19.5,0,0,0-4.391,3.959s-4.386.13-4.191,6.287.632,6.9.632,6.9l1.447-.443a2.965,2.965,0,0,0,.14,2.09,1.113,1.113,0,0,0,.988.578c.848-.038,1.129-1.021,1.226-1.809q.378-3.138.47-6.3c0-.589.146-1.339.718-1.475a2.053,2.053,0,0,1,1,.194,1.88,1.88,0,0,0,1.869-.6c.07.8,1.161,1.167,1.89.826a3.781,3.781,0,0,0,1.55-1.8,3.241,3.241,0,0,0,.108,1.334,1.08,1.08,0,0,0,1,.767c.54-.027.875-.54,1.113-.988a12.147,12.147,0,0,0,1.221-3.543,7.448,7.448,0,0,0,3.1,4.721c.184-.54.367-1.08.54-1.62a3.154,3.154,0,0,0,.751.87,1.08,1.08,0,0,0,1.08.146.724.724,0,0,0,.373-.675,1.248,1.248,0,0,0,1.62.405,1.291,1.291,0,0,0,.481-.54,38.36,38.36,0,0,0,.167,9.522l1.442-3.241a12.59,12.59,0,0,0,1.042-6.152A8.73,8.73,0,0,1,153.633,152.436Z" transform="translate(-69.077 -142.93)" fill="#263238"/>
      <path id="Path_70900" data-name="Path 70900" d="M132.549,152.259c-.032,0-.081-.281-.313-.675a2.668,2.668,0,0,0-3.035-1.275c-.443.119-.686.281-.7.259s.049-.059.162-.13a2.16,2.16,0,0,1,.508-.232,2.614,2.614,0,0,1,3.165,1.323,2.16,2.16,0,0,1,.194.54A.54.54,0,0,1,132.549,152.259Z" transform="translate(-69.462 -146.216)" fill="#263238"/>
      <path id="Path_70901" data-name="Path 70901" d="M135.879,149.525a.621.621,0,0,1-.184-.135,2.759,2.759,0,0,1-.427-.454,3.554,3.554,0,0,1-.7-1.912,3.5,3.5,0,0,1,.5-1.977,2.873,2.873,0,0,1,.367-.5c.1-.108.167-.157.173-.151a5.736,5.736,0,0,0-.448.7,3.684,3.684,0,0,0-.432,1.912,3.732,3.732,0,0,0,.637,1.858A6.766,6.766,0,0,0,135.879,149.525Z" transform="translate(-72.252 -143.606)" fill="#263238"/>
      <path id="Path_70902" data-name="Path 70902" d="M155.407,178.61c.065,0,.184.205.324.573.07.189.151.41.227.659.038.13.076.259.119.394a1.776,1.776,0,0,1,.1.481.772.772,0,0,1-.2.573.886.886,0,0,1-.486.243,1,1,0,0,1-.459-.043,1.183,1.183,0,0,1-.329-.173c-.34-.275-.448-.5-.41-.54s.259.1.583.265a.821.821,0,0,0,.54.076.54.54,0,0,0,.232-.135.33.33,0,0,0,.07-.243,1.9,1.9,0,0,0-.076-.373c-.032-.14-.065-.275-.092-.405-.059-.254-.1-.486-.135-.686C155.353,178.875,155.347,178.626,155.407,178.61Z" transform="translate(-81.323 -159.339)" fill="#263238"/>
      <path id="Path_70903" data-name="Path 70903" d="M131.588,160.29a1.162,1.162,0,0,1-.054-.3c0-.2-.054-.481-.081-.832a9.274,9.274,0,0,1,.146-2.755,4.6,4.6,0,0,1,1.345-2.4,3.111,3.111,0,0,1,.691-.481.972.972,0,0,1,.292-.108,5.465,5.465,0,0,0-.907.67,4.775,4.775,0,0,0-1.291,2.344,10.451,10.451,0,0,0-.189,2.7A9.03,9.03,0,0,1,131.588,160.29Z" transform="translate(-70.803 -147.754)" fill="#455a64"/>
      <path id="Path_70904" data-name="Path 70904" d="M137.41,158.862a2.48,2.48,0,0,1-.508-.616,5.784,5.784,0,0,1-.756-1.766,5.882,5.882,0,0,1-.13-1.923,2.874,2.874,0,0,1,.162-.778,7.826,7.826,0,0,1-.054.789,6.627,6.627,0,0,0,.173,1.874,6.773,6.773,0,0,0,.7,1.745C137.242,158.609,137.426,158.846,137.41,158.862Z" transform="translate(-72.908 -147.92)" fill="#455a64"/>
      <path id="Path_70905" data-name="Path 70905" d="M148.075,151.419a.508.508,0,0,1,0-.146v-.421a12.2,12.2,0,0,0-.124-1.539,4.494,4.494,0,0,0-.826-2.085,2.927,2.927,0,0,0-1.015-.837,3.726,3.726,0,0,0-1.366-.378,5.4,5.4,0,0,0-2.7.486,6.1,6.1,0,0,0-1.836,1.323,5.715,5.715,0,0,0-.9,1.242c-.173.324-.248.513-.259.508a.362.362,0,0,1,.043-.146,2.776,2.776,0,0,1,.162-.389,5.3,5.3,0,0,1,.875-1.291,5.529,5.529,0,0,1,.794-.729,6.482,6.482,0,0,1,1.08-.648,5.5,5.5,0,0,1,2.782-.513,3.921,3.921,0,0,1,1.421.4,2.992,2.992,0,0,1,1.08.886,4.6,4.6,0,0,1,.826,2.16,10.068,10.068,0,0,1,.07,1.556v.421a.508.508,0,0,1-.108.14Z" transform="translate(-74.316 -144.268)" fill="#455a64"/>
      <path id="Path_70906" data-name="Path 70906" d="M155.658,151.967a.594.594,0,0,1-.049-.146,2.023,2.023,0,0,0-.1-.427c-.081-.373-.2-.913-.389-1.566a9.181,9.181,0,0,0-.907-2.187,4.829,4.829,0,0,0-2.074-1.939,6.352,6.352,0,0,0-2.809-.578,11.478,11.478,0,0,0-2.355.292c-.664.151-1.194.3-1.561.394l-.427.113-.151.027a.54.54,0,0,1,.14-.059l.421-.14c.362-.113.886-.275,1.55-.437a10.754,10.754,0,0,1,2.382-.335,6.481,6.481,0,0,1,2.879.583,4.958,4.958,0,0,1,2.128,2.009,9.036,9.036,0,0,1,.891,2.231c.178.659.275,1.2.34,1.577.032.189.059.335.07.438A.539.539,0,0,1,155.658,151.967Z" transform="translate(-76.979 -143.871)" fill="#455a64"/>
      <path id="Path_70907" data-name="Path 70907" d="M166.355,154.122s.038-.475.1-1.237a6.6,6.6,0,0,0-.319-2.917,3.338,3.338,0,0,0-.907-1.312,2.8,2.8,0,0,0-1.156-.589,2.7,2.7,0,0,0-1.21,0l.076-.043a1.383,1.383,0,0,1,.238-.076,2.193,2.193,0,0,1,.918,0,2.749,2.749,0,0,1,1.226.589,3.365,3.365,0,0,1,.961,1.367,6.292,6.292,0,0,1,.281,2.981c-.043.378-.092.686-.13.9a1.438,1.438,0,0,1-.076.34Z" transform="translate(-85.266 -145.216)" fill="#455a64"/>
      <path id="Path_70908" data-name="Path 70908" d="M143.77,182.8c-.043,0-.059-.108-.038-.227s.076-.2.119-.189.059.108.038.221S143.813,182.8,143.77,182.8Z" transform="translate(-76.465 -161.072)" fill="#eb996e"/>
      <path id="Path_70909" data-name="Path 70909" d="M147.021,182.236c-.043,0-.1,0-.119-.1s0-.135.032-.151.092.032.113.1S147.059,182.225,147.021,182.236Z" transform="translate(-77.923 -160.891)" fill="#eb996e"/>
      <path id="Path_70910" data-name="Path 70910" d="M145.354,184.106c-.043,0-.086-.086-.1-.2s0-.211.059-.216.086.086.1.2S145.4,184.1,145.354,184.106Z" transform="translate(-77.169 -161.675)" fill="#eb996e"/>
      <path id="Path_70911" data-name="Path 70911" d="M141.231,183.721c-.043,0-.049-.119,0-.232s.092-.2.135-.189.049.119,0,.232S141.268,183.731,141.231,183.721Z" transform="translate(-75.303 -161.495)" fill="#eb996e"/>
      <path id="Path_70912" data-name="Path 70912" d="M163.258,182.058c-.043,0-.086-.076-.1-.178s0-.194.059-.2.086.076.1.178S163.3,182.052,163.258,182.058Z" transform="translate(-85.399 -160.75)" fill="#eb996e"/>
      <path id="Path_70913" data-name="Path 70913" d="M166.386,181.946c-.043,0-.076-.092-.076-.211s.032-.205.076-.205.076.092.076.205S166.429,181.946,166.386,181.946Z" transform="translate(-86.853 -160.682)" fill="#eb996e"/>
      <path id="Path_70914" data-name="Path 70914" d="M168.891,181.786c-.043,0-.1-.076-.119-.194s0-.216.032-.221.1.076.119.194S168.945,181.775,168.891,181.786Z" transform="translate(-87.981 -160.608)" fill="#eb996e"/>
      <path id="Path_70915" data-name="Path 70915" d="M164.971,184.57c-.043,0-.049-.119,0-.232s.1-.2.135-.189.049.119,0,.232S165,184.608,164.971,184.57Z" transform="translate(-86.221 -161.886)" fill="#eb996e"/>
      <path id="Path_70916" data-name="Path 70916" d="M167.814,184.255c-.043,0-.086-.065-.1-.157s0-.173.059-.178.086.065.1.157S167.868,184.249,167.814,184.255Z" transform="translate(-87.498 -161.781)" fill="#eb996e"/>
      <path id="Path_70917" data-name="Path 70917" d="M145.888,175.351a.924.924,0,0,1-.816,1,.891.891,0,0,1-1.015-.756.924.924,0,0,1,.816-1,.88.88,0,0,1,1.015.751Z" transform="translate(-76.617 -157.489)" fill="#263238"/>
      <path id="Path_70918" data-name="Path 70918" d="M164.028,175.347a.918.918,0,0,1-.816,1,.88.88,0,0,1-1.015-.751.929.929,0,0,1,.816-1,.886.886,0,0,1,1.015.756Z" transform="translate(-84.959 -157.486)" fill="#263238"/>
      <path id="Path_70919" data-name="Path 70919" d="M133.624,202.33s2.328,4.748,7.216,4.391,6.773-3.279,6.773-3.279l.907,2.7-3.975,4.494-3.705.891-4.283-.891-3.657-2.306Z" transform="translate(-71.488 -170.247)" fill="#455a64"/>
      <path id="Path_70920" data-name="Path 70920" d="M142.215,210.012c0,.076-.567,0-.972.47s-.275,1.01-.351,1.021-.124-.113-.146-.346a1.145,1.145,0,0,1,1.113-1.248C142.091,209.9,142.226,209.958,142.215,210.012Z" transform="translate(-75.094 -173.733)" fill="#263238"/>
      <path id="Path_70921" data-name="Path 70921" d="M148.533,212.121c-.081,0-.081-.4-.157-.864s-.194-.832-.124-.87.324.313.405.826S148.6,212.138,148.533,212.121Z" transform="translate(-78.538 -173.952)" fill="#263238"/>
      <path id="Path_70922" data-name="Path 70922" d="M154.046,210.945c-.076,0-.238-.389-.492-.859s-.492-.837-.432-.891.416.254.681.756S154.132,210.929,154.046,210.945Z" transform="translate(-80.783 -173.402)" fill="#263238"/>
      <path id="Path_70923" data-name="Path 70923" d="M158.827,208.178c-.081,0-.13-.367-.367-.724s-.54-.567-.5-.643.459.043.74.492S158.9,208.189,158.827,208.178Z" transform="translate(-83.01 -172.299)" fill="#263238"/>
      <path id="Path_70924" data-name="Path 70924" d="M134.825,208.079c-.07,0,.059-.459.47-.8s.859-.4.87-.324-.335.232-.686.54S134.911,208.116,134.825,208.079Z" transform="translate(-72.365 -172.361)" fill="#263238"/>
      <path id="Path_70925" data-name="Path 70925" d="M132.071,205.234c-.065-.043.167-.432.664-.627s.929-.086.913,0-.389.1-.81.275S132.13,205.309,132.071,205.234Z" transform="translate(-71.102 -171.244)" fill="#263238"/>
      <path id="Path_70926" data-name="Path 70926" d="M148.395,202.192a2.442,2.442,0,0,1-.475.437,9.544,9.544,0,0,1-1.48.978,10.43,10.43,0,0,1-5.671,1.231,10.63,10.63,0,0,1-5.434-2.042,10.09,10.09,0,0,1-1.329-1.172,2.668,2.668,0,0,1-.416-.5c.038-.043.648.664,1.863,1.507a10.986,10.986,0,0,0,5.336,1.923,10.754,10.754,0,0,0,5.563-1.123A20.8,20.8,0,0,0,148.395,202.192Z" transform="translate(-71.805 -169.694)" fill="#00a099"/>
      <path id="Path_70927" data-name="Path 70927" d="M145.064,204.5a1,1,0,0,1-.443-.1,3.84,3.84,0,0,1-1.08-.627,8.425,8.425,0,0,1-1.28-1.329,8.1,8.1,0,0,1-.654-.88,1.215,1.215,0,0,1-.167-.61.794.794,0,0,1,.286-.621,1.134,1.134,0,0,1,1.242-.054,3.241,3.241,0,0,1,.848.735,5.033,5.033,0,0,1,.94,1.593,4.526,4.526,0,0,1,.275,1.215,1.08,1.08,0,0,1,0,.454,10.526,10.526,0,0,0-.448-1.593,5.185,5.185,0,0,0-.951-1.5,3.041,3.041,0,0,0-.778-.659.859.859,0,0,0-.94,0,.7.7,0,0,0-.054.886,7.884,7.884,0,0,0,.616.848,9.464,9.464,0,0,0,1.2,1.334A5.941,5.941,0,0,0,145.064,204.5Z" transform="translate(-75.415 -169.229)" fill="#00a099"/>
      <path id="Path_70928" data-name="Path 70928" d="M147.9,204.8a2.34,2.34,0,0,1-.038-.416,7.021,7.021,0,0,1,.081-1.134,4.477,4.477,0,0,1,.54-1.62,3.408,3.408,0,0,1,.654-.789,2.392,2.392,0,0,1,.465-.308.875.875,0,0,1,.627-.07.686.686,0,0,1,.427.486,1.4,1.4,0,0,1,0,.578,3.517,3.517,0,0,1-.329.967,4.2,4.2,0,0,1-1.08,1.323,5.4,5.4,0,0,1-.951.627c-.238.124-.378.173-.389.157a9.312,9.312,0,0,0,1.21-.934,4.348,4.348,0,0,0,.978-1.285,3.241,3.241,0,0,0,.286-.9c.049-.3,0-.675-.265-.751a1.023,1.023,0,0,0-.821.319,3.149,3.149,0,0,0-.61.713,4.618,4.618,0,0,0-.583,1.512C147.935,204.208,147.935,204.808,147.9,204.8Z" transform="translate(-78.367 -169.377)" fill="#00a099"/>
      <path id="Path_70929" data-name="Path 70929" d="M133.615,217.527a1.183,1.183,0,0,1-.119-.54,2.809,2.809,0,0,1,.319-1.469,2.906,2.906,0,0,1,1.691-1.437,20.928,20.928,0,0,1,2.641-.54,4.04,4.04,0,0,0,2.225-1.264,3.927,3.927,0,0,0,.924-1.89,5.271,5.271,0,0,0-.076-1.977,1.372,1.372,0,0,1,.2.508,3.889,3.889,0,0,1,.07,1.5,3.943,3.943,0,0,1-.924,2.025,4.2,4.2,0,0,1-2.355,1.372,25.127,25.127,0,0,0-2.62.508,2.76,2.76,0,0,0-1.62,1.291,2.933,2.933,0,0,0-.383,1.372A4.926,4.926,0,0,1,133.615,217.527Z" transform="translate(-71.76 -173.043)" fill="#00a099"/>
      <path id="Path_70930" data-name="Path 70930" d="M127.66,211.666a1.382,1.382,0,0,1,.394-.373,3.376,3.376,0,0,1,1.35-.589,3.613,3.613,0,0,1,2.16.238,5.481,5.481,0,0,0,2.441.751,5.655,5.655,0,0,0,2.452-.718,4.013,4.013,0,0,0,1.566-1.356,2.609,2.609,0,0,0,.41-1.329c0-.34-.054-.54-.032-.54a.945.945,0,0,1,.14.54,2.539,2.539,0,0,1-.346,1.437,4.089,4.089,0,0,1-1.62,1.48,5.7,5.7,0,0,1-2.571.772,3.327,3.327,0,0,1-1.388-.259c-.421-.167-.794-.373-1.161-.54a3.489,3.489,0,0,0-2.036-.275A4.58,4.58,0,0,0,127.66,211.666Z" transform="translate(-69.078 -172.74)" fill="#00a099"/>
    </g>
    <g id="freepik--character-2--inject-51" transform="translate(103.738 80.264)">
      <path id="Path_70931" data-name="Path 70931" d="M291.517,409.868a58.732,58.732,0,0,0-27.859-12.018c-2.339-.34-5.023-.735-6.292-2.733-1.377-2.16-.292-5.028-.448-7.6-.232-3.846-3.241-6.924-6.395-9.139s-6.7-4.051-9.02-7.124-2.863-7.983.086-10.462c1.9-1.62,4.629-1.712,7.1-1.485,8.167.745,15.788,4.256,23.225,7.724,6.125,2.852,12.547,5.941,16.36,11.526,2.733,4,3.829,8.863,4.861,13.6l2.965,13.535c.259,1.177.475,2.533-.27,3.478s-2.765.508-2.544-.675" transform="translate(-205.082 -224.732)" fill="#ebebeb"/>
      <path id="Path_70932" data-name="Path 70932" d="M412.343,202.713c0-.221-1.842-.049-1.842-.049l.216-.54c.216-.54-.7-.594-.7-.594a55.773,55.773,0,0,1-7.308,1.188l-6.66.686h0l-40.357.151,5.331,11.731,35.853-5.677h0c2.587-.027,8.042-1.7,8.8-2.009.918-.378,1.858-2.187,1.858-2.187s2.317-.108,2.749-.216a3.678,3.678,0,0,0,1.3-.7c.216-.216-.864-.378-.864-.378a5.58,5.58,0,0,0,1.14-.432.8.8,0,0,0,.486-.972Z" transform="translate(-258.486 -152.217)" fill="#ffbe9d"/>
      <path id="Path_70933" data-name="Path 70933" d="M431.94,204.032s4.143-2.641,4.758-3.17,1.231-1.08,1.323,0a4.461,4.461,0,0,1-1.08,2.468l-2.382,2.025" transform="translate(-293.552 -151.625)" fill="#ffbe9d"/>
      <path id="Path_70934" data-name="Path 70934" d="M434.581,205.24a3.891,3.891,0,0,1,.61-.61c.4-.367.983-.886,1.7-1.507h0a6.483,6.483,0,0,0,.832-1.442,2.351,2.351,0,0,0,.178-.859c0-.292-.081-.659-.3-.54a6.238,6.238,0,0,0-1.08.767c-.356.259-.713.492-1.053.718-.675.443-1.291.832-1.809,1.156s-.945.578-1.242.751a2.014,2.014,0,0,1-.475.238,1.842,1.842,0,0,1,.416-.335l1.194-.821,1.777-1.2c.329-.227.681-.47,1.032-.724a5.4,5.4,0,0,1,1.145-.816.475.475,0,0,1,.351.027.481.481,0,0,1,.211.259,1.55,1.55,0,0,1,.1.54,2.561,2.561,0,0,1-.211.967,6.271,6.271,0,0,1-.9,1.485h0c-.724.6-1.329,1.08-1.761,1.437A4.317,4.317,0,0,1,434.581,205.24Z" transform="translate(-293.552 -151.509)" fill="#eb996e"/>
      <path id="Path_70935" data-name="Path 70935" d="M453.509,203.533a6.341,6.341,0,0,1-2.247,1.026,6.481,6.481,0,0,1-2.452.367c0-.081,1.08-.248,2.371-.637S453.477,203.457,453.509,203.533Z" transform="translate(-301.31 -153.135)" fill="#eb996e"/>
      <path id="Path_70936" data-name="Path 70936" d="M454.673,206.148a5.941,5.941,0,0,1-1.755.362,5.747,5.747,0,0,1-1.788.081,5.79,5.79,0,0,1,1.75-.362,5.585,5.585,0,0,1,1.793-.081Z" transform="translate(-302.377 -154.324)" fill="#eb996e"/>
      <path id="Path_70937" data-name="Path 70937" d="M450.191,208.715c-.065-.049.194-.54.481-1.08a4.95,4.95,0,0,1,.589-1.037,2.369,2.369,0,0,1-.335,1.167C450.624,208.391,450.251,208.758,450.191,208.715Z" transform="translate(-301.941 -154.547)" fill="#eb996e"/>
      <path id="Path_70938" data-name="Path 70938" d="M268.663,215.65a2.6,2.6,0,0,1-2.4-.621,6.751,6.751,0,0,1-1.48-2.106,12.035,12.035,0,0,1-1.62-5.574,5.073,5.073,0,0,1,2.922-4.7,4.662,4.662,0,0,1,5.369,1.977,6.784,6.784,0,0,1,.416,5.941,12.92,12.92,0,0,1-3.635,4.947" transform="translate(-215.932 -152.613)" fill="#00a099"/>
      <g id="Group_70931" data-name="Group 70931" transform="translate(47.227 49.777)" opacity="0.4">
        <path id="Path_70939" data-name="Path 70939" d="M268.663,215.65a2.6,2.6,0,0,1-2.4-.621,6.751,6.751,0,0,1-1.48-2.106,12.035,12.035,0,0,1-1.62-5.574,5.073,5.073,0,0,1,2.922-4.7,4.662,4.662,0,0,1,5.369,1.977,6.784,6.784,0,0,1,.416,5.941,12.92,12.92,0,0,1-3.635,4.947" transform="translate(-263.158 -202.39)"/>
      </g>
      <path id="Path_70940" data-name="Path 70940" d="M192.042,203.423h0l-6.66-.664a55.774,55.774,0,0,1-7.308-1.188s-.918.054-.7.594l.216.54s-1.836-.173-1.836.049a.8.8,0,0,0,.486.978,5.477,5.477,0,0,0,1.134.432s-1.08.162-.864.378a3.678,3.678,0,0,0,1.3.7c.432.108,2.755.216,2.755.216s.934,1.809,1.853,2.187c.767.313,6.217,1.982,8.8,2.009h0l37.851,5.99,3.332-12.077Z" transform="translate(-175.72 -152.236)" fill="#ffbe9d"/>
      <path id="Path_70941" data-name="Path 70941" d="M199.232,204.032s-4.137-2.641-4.758-3.17-1.231-1.08-1.318,0a4.5,4.5,0,0,0,1.08,2.468l2.382,2.025" transform="translate(-183.737 -151.625)" fill="#ffbe9d"/>
      <path id="Path_70942" data-name="Path 70942" d="M196.489,205.249a4.322,4.322,0,0,1-.7-.5c-.427-.34-1.037-.837-1.761-1.437h0a6.271,6.271,0,0,1-.9-1.485,2.555,2.555,0,0,1-.205-.967,1.421,1.421,0,0,1,.092-.54.5.5,0,0,1,.211-.259.475.475,0,0,1,.351-.027,5.4,5.4,0,0,1,1.145.816c.351.254.7.5,1.032.724l1.777,1.2,1.194.821a1.841,1.841,0,0,1,.416.335,2.015,2.015,0,0,1-.475-.238c-.3-.173-.718-.427-1.242-.751s-1.134-.713-1.809-1.156c-.34-.227-.691-.459-1.053-.718a6.238,6.238,0,0,0-1.08-.767c-.211-.108-.286.259-.3.54a2.247,2.247,0,0,0,.184.859,6.26,6.26,0,0,0,.826,1.442h0c.708.621,1.291,1.14,1.691,1.507A3.888,3.888,0,0,1,196.489,205.249Z" transform="translate(-183.634 -151.518)" fill="#eb996e"/>
      <path id="Path_70943" data-name="Path 70943" d="M178.84,203.533c.038-.076,1.037.378,2.328.756s2.376.54,2.371.637a6.481,6.481,0,0,1-2.447-.367A6.336,6.336,0,0,1,178.84,203.533Z" transform="translate(-177.155 -153.135)" fill="#eb996e"/>
      <path id="Path_70944" data-name="Path 70944" d="M178.66,206.148a5.59,5.59,0,0,1,1.793.081,5.855,5.855,0,0,1,1.755.362,5.784,5.784,0,0,1-1.793-.081A6.017,6.017,0,0,1,178.66,206.148Z" transform="translate(-177.072 -154.324)" fill="#eb996e"/>
      <path id="Path_70945" data-name="Path 70945" d="M185.245,208.708c-.065.043-.437-.362-.74-.961a2.122,2.122,0,0,1-.335-1.167,4.378,4.378,0,0,1,.589,1.037C185.056,208.195,185.31,208.659,185.245,208.708Z" transform="translate(-179.606 -154.54)" fill="#eb996e"/>
      <path id="Path_70946" data-name="Path 70946" d="M317.753,268.308a6.312,6.312,0,0,0-3.959-3.068c-4.947-1.62-10.424-.14-15.5-1.3-2-.454-3.878-1.307-5.822-1.955a12.3,12.3,0,0,0-6.033-.713,7.562,7.562,0,0,0-4.586,2.852,6.579,6.579,0,0,0-1.28,3.316v-.065a1.071,1.071,0,0,0,0,.135,8.867,8.867,0,0,0,0,1.653v-.135a4.8,4.8,0,0,0,1.258,2.7,12.778,12.778,0,0,0,3.381,2.8c4.321,2.517,9.414,3.349,14.4,3.738,5.115.405,10.6.308,14.891-2.506a8.556,8.556,0,0,0,3.025-3.171,5.034,5.034,0,0,0,.216-4.283Z" transform="translate(-223.925 -179.632)" fill="#00a099"/>
      <g id="Group_70932" data-name="Group 70932" transform="translate(56.614 81.509)" opacity="0.4">
        <path id="Path_70947" data-name="Path 70947" d="M317.753,268.308a6.312,6.312,0,0,0-3.959-3.068c-4.947-1.62-10.424-.14-15.5-1.3-2-.454-3.878-1.307-5.822-1.955a12.3,12.3,0,0,0-6.033-.713,7.562,7.562,0,0,0-4.586,2.852,6.579,6.579,0,0,0-1.28,3.316v-.065a1.071,1.071,0,0,0,0,.135,8.867,8.867,0,0,0,0,1.653v-.135a4.8,4.8,0,0,0,1.258,2.7,12.778,12.778,0,0,0,3.381,2.8c4.321,2.517,9.414,3.349,14.4,3.738,5.115.405,10.6.308,14.891-2.506a8.556,8.556,0,0,0,3.025-3.171,5.034,5.034,0,0,0,.216-4.283Z" transform="translate(-280.539 -261.141)"/>
      </g>
      <path id="Path_70948" data-name="Path 70948" d="M329.222,424.341a6.276,6.276,0,0,0,.324,4.623,15.432,15.432,0,0,0,2.7,3.883c1,1.134,2.133,2.555,1.658,3.986a2.647,2.647,0,0,1-1.809,1.62,5.267,5.267,0,0,1-2.5,0c-4.067-.8-7.243-3.883-10.17-6.822a9.506,9.506,0,0,1-1.977-2.485,3.241,3.241,0,0,1,0-3.062l1.269-3.975Z" transform="translate(-240.724 -253.659)" fill="#00a099"/>
      <path id="Path_70949" data-name="Path 70949" d="M339.709,440.75a6.8,6.8,0,0,0-5.569,1.383,2.871,2.871,0,0,1,.616-.643,5.249,5.249,0,0,1,1.95-.934,5.331,5.331,0,0,1,2.16-.086A2.053,2.053,0,0,1,339.709,440.75Z" transform="translate(-248.575 -262.069)" fill="#e0e0e0"/>
      <path id="Path_70950" data-name="Path 70950" d="M336.981,436.883a5.59,5.59,0,0,0-5.061.627,2.162,2.162,0,0,1,.589-.54,4.412,4.412,0,0,1,1.831-.659,4.321,4.321,0,0,1,1.934.194C336.743,436.667,337,436.851,336.981,436.883Z" transform="translate(-247.554 -260.174)" fill="#e0e0e0"/>
      <path id="Path_70951" data-name="Path 70951" d="M333.1,432.9a.973.973,0,0,1-.416,0,3.825,3.825,0,0,1-1.08-.238,4.488,4.488,0,0,1-2.106-1.62,1.761,1.761,0,0,1-.41-1.048.567.567,0,0,1,.416-.508.87.87,0,0,1,.594.086,3.861,3.861,0,0,1,.81.6,5.544,5.544,0,0,1,1.037,1.318,4.859,4.859,0,0,1,.443,1.037,1,1,0,0,1,.076.405c-.049,0-.194-.54-.691-1.34a5.874,5.874,0,0,0-1.037-1.226,3.617,3.617,0,0,0-.756-.54.643.643,0,0,0-.4-.065.281.281,0,0,0-.211.265,1.545,1.545,0,0,0,.356.864,4.369,4.369,0,0,0,.61.713,4.747,4.747,0,0,0,1.345.875A8.643,8.643,0,0,0,333.1,432.9Z" transform="translate(-246.253 -257.042)" fill="#e0e0e0"/>
      <path id="Path_70952" data-name="Path 70952" d="M334.987,433.256a2.944,2.944,0,0,1,.14-1.242,6.051,6.051,0,0,1,.486-1.275,5.132,5.132,0,0,1,.421-.7.837.837,0,0,1,.886-.373.573.573,0,0,1,.367.41,1.037,1.037,0,0,1-.027.486,3.57,3.57,0,0,1-.351.751,5.207,5.207,0,0,1-.843,1.08,2.7,2.7,0,0,1-1.032.718c-.027-.038.378-.3.886-.853a5.942,5.942,0,0,0,.767-1.08,3.779,3.779,0,0,0,.308-.691c.07-.243.032-.5-.162-.54a.573.573,0,0,0-.583.27,6,6,0,0,0-.411.654,7.521,7.521,0,0,0-.54,1.21C335.079,432.791,335.025,433.261,334.987,433.256Z" transform="translate(-248.958 -257.124)" fill="#e0e0e0"/>
      <path id="Path_70953" data-name="Path 70953" d="M334.257,440.937a1.185,1.185,0,0,1-.157.135,3.778,3.778,0,0,1-.54.275,4.553,4.553,0,0,1-2.123.324,7.735,7.735,0,0,1-3.035-.972,30.159,30.159,0,0,1-3.268-2.112,35.112,35.112,0,0,1-3-2.468,13.347,13.347,0,0,1-2.123-2.366,6.126,6.126,0,0,1-.9-1.95,3.782,3.782,0,0,1-.092-.578v-.205a6.924,6.924,0,0,0,1.15,2.62,14.09,14.09,0,0,0,2.16,2.29c.88.794,1.89,1.62,2.992,2.431a32.291,32.291,0,0,0,3.241,2.106,7.719,7.719,0,0,0,2.927,1,4.732,4.732,0,0,0,2.069-.227C334.014,441.077,334.24,440.915,334.257,440.937Z" transform="translate(-241.622 -257.757)" fill="#263238"/>
      <path id="Path_70954" data-name="Path 70954" d="M297.75,373.081c.5,1.167.038,5.585,1.156,7.729s2.436,3.705,4.985,3.981c1.388.151,3.079-.194,3.781-1.4a4.132,4.132,0,0,0,.335-2.3c-.13-2.549-.324-7.9-.448-10.451" transform="translate(-231.84 -229.989)" fill="#00a099"/>
      <path id="Path_70955" data-name="Path 70955" d="M307.96,374.89a.976.976,0,0,1,.032.281c0,.216.027.481.043.8,0,.745.049,1.75.086,2.976,0,.632.032,1.318.049,2.052a18.512,18.512,0,0,1-.032,2.371,4.288,4.288,0,0,1-.983,2.458,3.781,3.781,0,0,1-2.593,1.15,4.677,4.677,0,0,1-2.738-.74,6.849,6.849,0,0,1-1.885-1.853,11.024,11.024,0,0,1-1.842-7.076,8.109,8.109,0,0,1,.1-.8,1.079,1.079,0,0,1,.07-.275c.027,0-.038.389-.065,1.08a11.787,11.787,0,0,0,.243,2.938,10.8,10.8,0,0,0,1.7,3.981A6.552,6.552,0,0,0,301.975,386a4.37,4.37,0,0,0,2.576.7,3.521,3.521,0,0,0,2.4-1.053,4.034,4.034,0,0,0,.929-2.3,19.129,19.129,0,0,0,.059-2.339v-5.839A1.437,1.437,0,0,1,307.96,374.89Z" transform="translate(-231.982 -231.943)" fill="#263238"/>
      <path id="Path_70956" data-name="Path 70956" d="M323.288,268.837s-1.523-6.816-2.4-10.316-3.829-5.887-6.757-8c-2.2-1.588-5-2.052-7.7-2.4q-4.7-.616-9.441-.934a6.657,6.657,0,0,0-4.1.616c-1.518.983-1.982,2.944-2.323,4.715-1.14,5.876-1.939,10-3.073,15.879a167.194,167.194,0,0,0,35.788.443Z" transform="translate(-227.126 -173.188)" fill="#ffbe9d"/>
      <path id="Path_70957" data-name="Path 70957" d="M277.263,229.517a8.906,8.906,0,0,1-1.577,5.088c-4.321,6.319-1.62,8.518-1.62,8.518,6.438-9.835,9-.308,22.388-.049s17.64,3.106,18.726,1.14-1.669-10.322-2.2-15.042c-.616-5.579-1.62-9.182.184-12.288.918-1.62,11.153-2.339,11.153-2.339l-2.474-11.272a1.723,1.723,0,0,0-1.62-1.35c-13.13-.6-19.412-.259-19.412-.259-5.509,3.414-15.031-.848-15.031-.848s-1.809-.119-5.876,0-9.646.135-12.531.383-2.3,1.955-2.3,1.955,5.05-1.9,6.719,1.134c1.885,3.43-3.435,9.587-2.922,11.213.259.821,2.1,1.01,3.651.859a4.218,4.218,0,0,1,4.629,4.137C277.209,223.619,277.241,227.092,277.263,229.517Z" transform="translate(-216.792 -151.864)" fill="#00a099"/>
      <path id="Path_70958" data-name="Path 70958" d="M336.549,152.371c.108-1.966.772-3.873.729-5.839-.07-3.457-2.274-6.411-4.515-8.917a17.662,17.662,0,0,0-4.294-3.781,5.1,5.1,0,0,0-6.017.994c-1.042,4.359-2.355,8.674-2.76,13.152s.211,9.241,2.7,12.876a6.836,6.836,0,0,0,4.569,3.241,7.826,7.826,0,0,0,4.17-1.026c2.16-1.048,4.429-2.549,5.169-4.974C336.841,156.287,336.425,154.294,336.549,152.371Z" transform="translate(-241.878 -120.823)" fill="#263238"/>
      <path id="Path_70959" data-name="Path 70959" d="M255.327,168.4c1.329-.459,1.9-1.226,3.019-2.112a6.743,6.743,0,0,1,3.781-1.745c2.733-.081,5.131,2.83,7.8,2.209,2.16-.5,3.441-3.138,5.6-3.635,2.268-.54,4.359,1.512,6.665,1.755,2.409.248,4.569-1.453,6.449-3.079s3.991-3.37,6.411-3.241L293.5,135.865a10.231,10.231,0,0,0-8.977-2.02,19.331,19.331,0,0,0-8.334,4.618c-1.718,1.507-3.522,3.289-5.747,3.322-2.069.032-3.921-1.507-5.99-1.62-2.258-.13-4.051,2.328-5.725,4.321a6.233,6.233,0,0,1-4.1,2.225,4.515,4.515,0,0,1-2.22-.3l1.113,8.312a3.937,3.937,0,0,0,2.954-.243,9.394,9.394,0,0,0,2.112-1.437,7.415,7.415,0,0,1-1.4,2.074,8.841,8.841,0,0,1-3.073,1.129l.783,6.994,3.041-.686-2.7,2.058-.362,3.516" transform="translate(-210.984 -120.963)" fill="#263238"/>
      <path id="Path_70960" data-name="Path 70960" d="M325.9,149.113v-.184a11.521,11.521,0,0,0-11.834-11.153l-.934.049a14.006,14.006,0,0,0-1.48.189,11.472,11.472,0,0,0-9.247,11.494c.054,4.515.173,10.538.432,12.32a24.535,24.535,0,0,1,.362,4.029l.162,6.924a7.626,7.626,0,0,0,7.464,7.443h0a7.626,7.626,0,0,0,7.81-7.61v-3.576c4.7-.6,6.87-5.147,7.184-10.575A69.261,69.261,0,0,0,325.9,149.113Z" transform="translate(-233.981 -122.896)" fill="#ffbe9d"/>
      <path id="Path_70961" data-name="Path 70961" d="M298.8,166.493c-.124-.054-5.05-1.534-4.931,3.505s5.158,3.878,5.163,3.732S298.8,166.493,298.8,166.493Z" transform="translate(-230.054 -135.992)" fill="#ffbe9d"/>
      <path id="Path_70962" data-name="Path 70962" d="M298.566,173.253a1.527,1.527,0,0,1-.232.135.886.886,0,0,1-.659.032,2.17,2.17,0,0,1-1.053-1.923,2.885,2.885,0,0,1,.216-1.264,1.021,1.021,0,0,1,.643-.691.443.443,0,0,1,.54.227c.07.14.043.243.07.248s.108-.086.059-.292a.54.54,0,0,0-.205-.313.675.675,0,0,0-.492-.119,1.242,1.242,0,0,0-.9.8,3,3,0,0,0-.27,1.415,2.325,2.325,0,0,0,1.334,2.16.945.945,0,0,0,.8-.151C298.56,173.377,298.582,173.264,298.566,173.253Z" transform="translate(-231.165 -137.389)" fill="#eb996e"/>
      <path id="Path_70963" data-name="Path 70963" d="M336.745,165.2c-.14.14-.967-.481-2.16-.486s-2.052.578-2.16.432.081-.319.459-.594a3.041,3.041,0,0,1,1.745-.54,2.9,2.9,0,0,1,1.707.567C336.691,164.874,336.81,165.133,336.745,165.2Z" transform="translate(-247.772 -134.963)" fill="#263238"/>
      <path id="Path_70964" data-name="Path 70964" d="M314.938,165.378c-.135.14-.961-.481-2.16-.486s-2.052.578-2.16.432c-.065-.065.076-.319.459-.594a3.024,3.024,0,0,1,1.745-.54,2.906,2.906,0,0,1,1.707.567C314.884,165.054,315.008,165.313,314.938,165.378Z" transform="translate(-237.75 -135.045)" fill="#263238"/>
      <path id="Path_70965" data-name="Path 70965" d="M315.436,156.516c-.065.254-.778.281-1.561.54s-1.393.6-1.588.432c-.086-.086-.032-.313.189-.589a2.452,2.452,0,0,1,1.134-.718,2.4,2.4,0,0,1,1.345-.038C315.29,156.235,315.463,156.4,315.436,156.516Z" transform="translate(-238.507 -131.309)" fill="#263238"/>
      <path id="Path_70966" data-name="Path 70966" d="M338.53,156.124c-.184.27-.859.313-1.507.092s-1.026-.61-.843-.886.853-.313,1.5-.092S338.708,155.843,338.53,156.124Z" transform="translate(-249.492 -130.862)" fill="#263238"/>
      <path id="Path_70967" data-name="Path 70967" d="M322.457,179.211c0,.07-.14.194-.454.238a1.658,1.658,0,0,1-1.8-1.372c-.043-.308.038-.5.108-.5a3.817,3.817,0,0,0,.859,1.08C321.755,179.076,322.425,179.065,322.457,179.211Z" transform="translate(-242.159 -141.203)" fill="#263238"/>
      <path id="Path_70968" data-name="Path 70968" d="M326.084,194.855s-6.038.1-7.464-.945c0,0,1.08,2.927,7.464,2.62Z" transform="translate(-241.438 -148.713)" fill="#eb996e"/>
      <path id="Path_70969" data-name="Path 70969" d="M327.493,169.1c.076,0,.216.243.378.681.086.216.178.475.27.772.043.146.092.3.135.459a2.161,2.161,0,0,1,.124.567.886.886,0,0,1-.238.675.972.972,0,0,1-.573.281,1.129,1.129,0,0,1-.54-.043,1.506,1.506,0,0,1-.383-.205c-.405-.324-.54-.594-.486-.643s.308.124.686.308a.913.913,0,0,0,.632.092.54.54,0,0,0,.27-.157.368.368,0,0,0,.086-.286,2.319,2.319,0,0,0-.092-.443c-.038-.162-.076-.319-.108-.47-.065-.3-.119-.578-.157-.81C327.428,169.419,327.423,169.122,327.493,169.1Z" transform="translate(-244.909 -137.303)" fill="#263238"/>
      <path id="Path_70970" data-name="Path 70970" d="M313.812,174.025c-.054,0-.07-.124-.043-.259s.092-.238.14-.227.065.124.038.259S313.888,174.036,313.812,174.025Z" transform="translate(-239.201 -139.345)" fill="#eb996e"/>
      <path id="Path_70971" data-name="Path 70971" d="M317.636,173.375a.155.155,0,0,1-.135-.119.163.163,0,0,1,.032-.178c.032-.016.113.038.14.119S317.684,173.358,317.636,173.375Z" transform="translate(-240.918 -139.131)" fill="#eb996e"/>
      <path id="Path_70972" data-name="Path 70972" d="M315.68,175.581c-.049,0-.1-.1-.113-.238s0-.248.065-.254.1.1.113.238S315.729,175.581,315.68,175.581Z" transform="translate(-240.032 -140.058)" fill="#eb996e"/>
      <path id="Path_70973" data-name="Path 70973" d="M310.827,175.115c-.049,0-.054-.135,0-.27s.113-.232.162-.216.054.135,0,.27S310.9,175.131,310.827,175.115Z" transform="translate(-237.836 -139.845)" fill="#eb996e"/>
      <path id="Path_70974" data-name="Path 70974" d="M336.73,173.163c-.049,0-.1-.092-.113-.211s0-.227.065-.232.1.086.113.211S336.779,173.157,336.73,173.163Z" transform="translate(-249.713 -138.968)" fill="#eb996e"/>
      <path id="Path_70975" data-name="Path 70975" d="M340.4,173.026c-.049,0-.092-.108-.092-.243s.043-.243.092-.243.092.108.092.243S340.45,173.026,340.4,173.026Z" transform="translate(-251.413 -138.885)" fill="#eb996e"/>
      <path id="Path_70976" data-name="Path 70976" d="M343.376,172.841c-.049,0-.108-.092-.135-.227s0-.254.038-.265.113.092.14.227S343.424,172.83,343.376,172.841Z" transform="translate(-252.755 -138.797)" fill="#eb996e"/>
      <path id="Path_70977" data-name="Path 70977" d="M338.717,176.115c-.049,0-.054-.135,0-.27s.113-.232.162-.216.054.135,0,.27S338.766,176.131,338.717,176.115Z" transform="translate(-250.662 -140.305)" fill="#eb996e"/>
      <path id="Path_70978" data-name="Path 70978" d="M342.09,175.744c-.049,0-.1-.076-.113-.184s0-.2.065-.211.1.081.113.189S342.139,175.738,342.09,175.744Z" transform="translate(-252.178 -140.177)" fill="#eb996e"/>
      <path id="Path_70979" data-name="Path 70979" d="M289.278,154.277c1.939.135,3.284-2.247,3.991-4.094.54-1.372.438-3.008,1.318-4.17a4.521,4.521,0,0,1,2.7-1.5,31.4,31.4,0,0,0,3.079-.627,6.546,6.546,0,0,0,4.224-4.683,1.647,1.647,0,0,0-.281-1.62,1.788,1.788,0,0,0-1.264-.275,27.82,27.82,0,0,0-6.589.8,9.5,9.5,0,0,0-5.4,3.694,20.924,20.924,0,0,0-1.809,4.256,7.765,7.765,0,0,1-2.549,3.781c-2.506,1.707-6.152.5-8.642,2.2-1.523,1.032-2.258,2.9-2.906,4.64-.362.978-.664,2.236.092,2.944a1.674,1.674,0,0,0,1.572.3c.54-.151,2.4-.032,2.825-.4,2.214-1.95,2.5-4.532,5.336-5.261,1.9-.492,3.414.983,5.088-.054" transform="translate(-221.273 -122.674)" fill="#263238"/>
      <path id="Path_70980" data-name="Path 70980" d="M329.039,137.69a23.765,23.765,0,0,0,8.712,8.69c.248.14.637.243.762,0a.54.54,0,0,0,0-.378,14.529,14.529,0,0,0-6.071-7.853,5.158,5.158,0,0,0-1.8-.778,2.252,2.252,0,0,0-1.858.448" transform="translate(-246.11 -122.691)" fill="#263238"/>
      <path id="Path_70981" data-name="Path 70981" d="M284.74,159.829a1.57,1.57,0,0,1,.038-.383,2.533,2.533,0,0,1,.443-1.015,3.862,3.862,0,0,1,1.329-1.156,5.434,5.434,0,0,1,2.241-.6,22.491,22.491,0,0,1,2.8.049,9.106,9.106,0,0,0,3.138-.281,3.975,3.975,0,0,0,1.458-.81,4.418,4.418,0,0,0,1.037-1.4,14.194,14.194,0,0,0,.983-3.624,9.09,9.09,0,0,1,1.313-3.6,4.083,4.083,0,0,1,1.393-1.226,5.849,5.849,0,0,1,1.685-.54c1.123-.2,2.2-.238,3.16-.481a3.954,3.954,0,0,0,2.279-1.388,5.4,5.4,0,0,0,.945-2.047,11.884,11.884,0,0,0,.281-1.7c.049-.475.07-.848.086-1.08a2.786,2.786,0,0,1,.038-.383,1.945,1.945,0,0,1,0,.383c0,.254,0,.627-.038,1.08a11.02,11.02,0,0,1-.238,1.734,5.5,5.5,0,0,1-.94,2.128,4.153,4.153,0,0,1-2.376,1.5c-.988.259-2.074.308-3.17.508a5.714,5.714,0,0,0-1.62.54,3.781,3.781,0,0,0-1.3,1.145,8.988,8.988,0,0,0-1.264,3.5,14.22,14.22,0,0,1-1.01,3.689,4.731,4.731,0,0,1-1.107,1.485,4.251,4.251,0,0,1-1.561.848,9.182,9.182,0,0,1-3.241.27,22.519,22.519,0,0,0-2.776-.081,5.282,5.282,0,0,0-2.16.54,3.857,3.857,0,0,0-1.307,1.08A3.16,3.16,0,0,0,284.74,159.829Z" transform="translate(-225.856 -123.074)" fill="#263238"/>
      <path id="Path_70982" data-name="Path 70982" d="M258.57,140.471a2.589,2.589,0,0,1,.248-.3c.167-.189.416-.464.751-.8a13,13,0,0,1,3.2-2.5,6.233,6.233,0,0,1,2.733-.7,8.679,8.679,0,0,1,3.165.686c1.08.405,2.123.945,3.273,1.356a7.081,7.081,0,0,0,3.662.443,6.444,6.444,0,0,0,3.143-1.907,25.922,25.922,0,0,1,2.609-2.425,10.322,10.322,0,0,1,5.66-1.955,10.2,10.2,0,0,1,4.008.61,8.1,8.1,0,0,1,1.01.459,1.67,1.67,0,0,1,.329.194c0,.027-.475-.243-1.372-.54a10.565,10.565,0,0,0-3.964-.513,10.176,10.176,0,0,0-5.515,1.966,24.65,24.65,0,0,0-2.571,2.414,6.665,6.665,0,0,1-3.284,1.982,7.281,7.281,0,0,1-3.781-.459c-1.172-.421-2.231-.967-3.273-1.372a8.588,8.588,0,0,0-3.073-.7,6.093,6.093,0,0,0-2.647.648,13.9,13.9,0,0,0-3.214,2.393l-.789.767A1.62,1.62,0,0,1,258.57,140.471Z" transform="translate(-213.822 -120.406)" fill="#263238"/>
      <path id="Path_70983" data-name="Path 70983" d="M313.7,132.4a10.614,10.614,0,0,0-9.182-.729,13.146,13.146,0,0,0-7.837,17.316c1.82-2.728,1.718-6.33,3.181-9.268a9.544,9.544,0,0,1,4.494-4.353c3.343-1.539,6.481-.67,9.355-2.965" transform="translate(-230.909 -119.758)" fill="#00a099"/>
      <path id="Path_70984" data-name="Path 70984" d="M310.82,123.49s.508-13.573,1.215-13.254,4.694,12.785,4.694,12.785S313.807,125.277,310.82,123.49Z" transform="translate(-237.851 -110.23)" fill="#00a099"/>
      <path id="Path_70985" data-name="Path 70985" d="M310.82,123.49s.508-13.573,1.215-13.254,4.694,12.785,4.694,12.785S313.807,125.277,310.82,123.49Z" transform="translate(-237.851 -110.23)" fill="#fff" opacity="0.6"/>
      <path id="Path_70986" data-name="Path 70986" d="M315.584,126.66a1.03,1.03,0,0,1-.054.243,4.553,4.553,0,0,1-.238.632,5.115,5.115,0,0,1-1.345,1.766,4.472,4.472,0,0,1-2,.951,3.648,3.648,0,0,1-.675.07.676.676,0,0,1-.248,0,4.568,4.568,0,0,0,.907-.124,4.672,4.672,0,0,0,1.944-.961,5.4,5.4,0,0,0,1.345-1.712C315.471,126.995,315.568,126.655,315.584,126.66Z" transform="translate(-237.943 -117.786)" fill="#fff"/>
      <path id="Path_70987" data-name="Path 70987" d="M314.706,121.84a.74.74,0,0,1,0,.227,2.741,2.741,0,0,1-.113.6,4.2,4.2,0,0,1-1.021,1.734,5.547,5.547,0,0,1-1.653,1.15,6.063,6.063,0,0,1-.573.221l-.216.054s.3-.119.751-.346a6.168,6.168,0,0,0,1.62-1.161,4.369,4.369,0,0,0,1.026-1.674C314.668,122.159,314.684,121.84,314.706,121.84Z" transform="translate(-237.993 -115.569)" fill="#fff"/>
      <path id="Path_70988" data-name="Path 70988" d="M314.054,117.35a.507.507,0,0,1,0,.167,2.762,2.762,0,0,1-.07.454,3.241,3.241,0,0,1-.67,1.345,3.165,3.165,0,0,1-1.2.9,2.518,2.518,0,0,1-.432.146.5.5,0,0,1-.167,0,5.045,5.045,0,0,0,.567-.243,3.462,3.462,0,0,0,1.831-2.193C314.016,117.582,314.032,117.345,314.054,117.35Z" transform="translate(-238.168 -113.504)" fill="#fff"/>
      <path id="Path_70989" data-name="Path 70989" d="M313.5,113.92a1.582,1.582,0,0,1-.492,1.2,1.539,1.539,0,0,1-1.183.54,2.474,2.474,0,0,0,1.08-.594A2.533,2.533,0,0,0,313.5,113.92Z" transform="translate(-238.315 -111.927)" fill="#fff"/>
      <path id="Path_70990" data-name="Path 70990" d="M313.131,111.41a.745.745,0,0,1-.751.843,1.707,1.707,0,0,0,.486-.324,1.733,1.733,0,0,0,.265-.519Z" transform="translate(-238.568 -110.773)" fill="#fff"/>
      <path id="Path_70991" data-name="Path 70991" d="M257.53,159.323a3.156,3.156,0,0,0,.394.173,2.647,2.647,0,0,0,1.2.14,4.04,4.04,0,0,0,1.788-.67,7.1,7.1,0,0,0,1.772-1.831,20.856,20.856,0,0,1,1.928-2.506,8.377,8.377,0,0,1,7.054-2.377c1.388.189,2.76.654,4.2.724a4.445,4.445,0,0,0,2.052-.373,4.121,4.121,0,0,0,1.545-1.307,9.068,9.068,0,0,0,1.453-3.619,22.438,22.438,0,0,1,.913-3.505,11.293,11.293,0,0,1,1.561-2.755,11.153,11.153,0,0,1,3.451-3,9.279,9.279,0,0,1,1.118-.54,2.355,2.355,0,0,1,.41-.14,2.252,2.252,0,0,1-.383.194,9.768,9.768,0,0,0-1.08.573,11.537,11.537,0,0,0-3.349,3,11.407,11.407,0,0,0-1.5,2.7,23.225,23.225,0,0,0-.875,3.478,9.333,9.333,0,0,1-1.485,3.732,4.456,4.456,0,0,1-1.647,1.393,4.7,4.7,0,0,1-2.16.4c-1.5-.076-2.873-.54-4.229-.729a8.021,8.021,0,0,0-3.862.394,8.1,8.1,0,0,0-2.987,1.874,21.385,21.385,0,0,0-1.934,2.452,7.021,7.021,0,0,1-1.847,1.847,4.089,4.089,0,0,1-1.863.648,2.555,2.555,0,0,1-1.231-.2A1.383,1.383,0,0,1,257.53,159.323Z" transform="translate(-213.343 -122.881)" fill="#455a64"/>
      <path id="Path_70992" data-name="Path 70992" d="M258.92,177.286a1.611,1.611,0,0,1,.146-.2,4.95,4.95,0,0,1,.508-.5,6.725,6.725,0,0,1,2.285-1.312,6.86,6.86,0,0,1,1.793-.351,10.377,10.377,0,0,1,2.09.146c.724.113,1.475.259,2.258.313a4.44,4.44,0,0,0,2.322-.383,4.807,4.807,0,0,0,1.739-1.62,21.412,21.412,0,0,0,1.167-1.955,14.368,14.368,0,0,1,1.08-1.772,5.206,5.206,0,0,1,1.334-1.258,3.592,3.592,0,0,1,2.576-.459,2.986,2.986,0,0,1,.686.211c.151.065.221.108.216.119a7.845,7.845,0,0,0-.924-.221,3.565,3.565,0,0,0-2.447.54,5.2,5.2,0,0,0-1.258,1.231,15.245,15.245,0,0,0-1.08,1.755,22.275,22.275,0,0,1-1.167,1.988,5.018,5.018,0,0,1-1.842,1.691,4.667,4.667,0,0,1-2.468.41c-.8-.059-1.561-.211-2.279-.329a10.035,10.035,0,0,0-2.036-.173,7.07,7.07,0,0,0-1.745.308,7.308,7.308,0,0,0-2.274,1.2A7.624,7.624,0,0,1,258.92,177.286Z" transform="translate(-213.983 -136.734)" fill="#455a64"/>
      <path id="Path_70993" data-name="Path 70993" d="M297.9,152.433a5.6,5.6,0,0,0,.918-.259,4.283,4.283,0,0,0,1.874-1.723,11.073,11.073,0,0,0,1.156-3.662,16.324,16.324,0,0,1,.54-2.252,5.865,5.865,0,0,1,1.264-2.16,5.633,5.633,0,0,1,2.128-1.334,12.714,12.714,0,0,1,2.252-.583c.729-.135,1.421-.232,2.052-.362a11.559,11.559,0,0,0,1.739-.47,5.687,5.687,0,0,0,2.209-1.323c.427-.437.583-.751.61-.735s-.027.081-.108.227a2.946,2.946,0,0,1-.378.546,5.531,5.531,0,0,1-2.214,1.437,12.421,12.421,0,0,1-1.761.54c-.643.14-1.334.243-2.052.383a13.877,13.877,0,0,0-2.2.583,5.542,5.542,0,0,0-2.031,1.269,5.634,5.634,0,0,0-1.2,2.074,17.483,17.483,0,0,0-.567,2.209,11,11,0,0,1-1.242,3.721,4.213,4.213,0,0,1-2,1.712,2.7,2.7,0,0,1-.7.167.827.827,0,0,1-.275-.005Z" transform="translate(-231.909 -122.803)" fill="#455a64"/>
      <path id="Path_70994" data-name="Path 70994" d="M339.633,154.556a7.488,7.488,0,0,1,.248-.913c.167-.578.432-1.415.637-2.474a8.89,8.89,0,0,0,0-3.727,5.871,5.871,0,0,0-.864-2,6.125,6.125,0,0,0-1.739-1.577,9.567,9.567,0,0,1-.988-.756,5.8,5.8,0,0,1-.8-.918,13.2,13.2,0,0,1-1.08-1.988,10.089,10.089,0,0,0-1.939-3.2,3.624,3.624,0,0,0-2.225-1.08,3.926,3.926,0,0,0-.924.081.8.8,0,0,1,.227-.1,2.393,2.393,0,0,1,.7-.092,3.635,3.635,0,0,1,2.355,1.015,10.084,10.084,0,0,1,2.042,3.241,12.805,12.805,0,0,0,1.08,1.939,6.12,6.12,0,0,0,1.718,1.62,11.031,11.031,0,0,1,.994.74,5.136,5.136,0,0,1,.81.907,6.028,6.028,0,0,1,.9,2.106,8.814,8.814,0,0,1-.065,3.824,20.03,20.03,0,0,1-.729,2.468c-.1.254-.178.47-.243.654A.787.787,0,0,1,339.633,154.556Z" transform="translate(-246.653 -121.998)" fill="#455a64"/>
      <path id="Path_70995" data-name="Path 70995" d="M320.77,129.234a2.091,2.091,0,0,0,.459-.027,2.285,2.285,0,0,0,1.053-.643,4.078,4.078,0,0,1,1.658-1.032,3.97,3.97,0,0,1,2.393,0,2.82,2.82,0,0,1,1.08.621,1.393,1.393,0,0,1,.486,1.107,1.653,1.653,0,0,1-.481.972,4.774,4.774,0,0,1-.7.589,4.7,4.7,0,0,1-1.177.578,1.215,1.215,0,0,1-.465.1,9.544,9.544,0,0,0,1.523-.843,4.273,4.273,0,0,0,.648-.583,1.415,1.415,0,0,0,.394-.832,1.15,1.15,0,0,0-.416-.891,2.7,2.7,0,0,0-1-.54,3.835,3.835,0,0,0-2.231,0,4.127,4.127,0,0,0-1.62.929,2.16,2.16,0,0,1-1.167.6A.647.647,0,0,1,320.77,129.234Z" transform="translate(-242.426 -118.102)" fill="#455a64"/>
      <path id="Path_70996" data-name="Path 70996" d="M317.514,255.24a2.271,2.271,0,0,1-.076.373,10.449,10.449,0,0,1-.324,1.032,12.687,12.687,0,0,1-6.568,7.108,13,13,0,0,1-7.1,1.037,21.938,21.938,0,0,1-6.746-2.522c-.988-.5-1.934-.951-2.841-1.312a14.867,14.867,0,0,0-2.6-.762,8.642,8.642,0,0,0-3.894.07,11.415,11.415,0,0,0-1.35.5,4.862,4.862,0,0,1,1.323-.61A8.383,8.383,0,0,1,291.3,260a14.736,14.736,0,0,1,2.652.74c.924.356,1.874.81,2.868,1.3a21.339,21.339,0,0,0,6.67,2.474,12.8,12.8,0,0,0,6.951-.994A12.558,12.558,0,0,0,315.008,260a13.113,13.113,0,0,0,2-3.37c.178-.427.3-.772.373-1A2.013,2.013,0,0,1,317.514,255.24Z" transform="translate(-226.445 -176.918)" fill="#263238"/>
      <path id="Path_70997" data-name="Path 70997" d="M281.079,223a10.592,10.592,0,0,1,3.748,4.256c-.07.043-.762-1.026-1.8-2.2S281.036,223.043,281.079,223Z" transform="translate(-224.172 -162.091)" fill="#263238"/>
      <path id="Path_70998" data-name="Path 70998" d="M354.048,220.59a32.2,32.2,0,0,0-2.317,2.7,33.159,33.159,0,0,0-1.761,3.095,3.025,3.025,0,0,1,.3-1.015,11.424,11.424,0,0,1,1.231-2.241,11.282,11.282,0,0,1,1.691-1.923,3.181,3.181,0,0,1,.853-.616Z" transform="translate(-255.855 -160.983)" fill="#263238"/>
      <path id="Path_70999" data-name="Path 70999" d="M309.678,236.736a.654.654,0,0,1,.286-.632.486.486,0,0,1,.211-.054.357.357,0,0,1,.34.216.783.783,0,0,1,.086.421,6.218,6.218,0,0,0,0,.627l.049,1.118v.41c.049.383.086.664.113.853a4.856,4.856,0,0,1,.038.853.7.7,0,0,1-.124.394.427.427,0,0,1-.356.173.621.621,0,0,1-.211-.038.465.465,0,0,1-.308-.362,2.348,2.348,0,0,1-.049-.508l-.038-1.037c0-.313-.146-.459-.405-.432a3.615,3.615,0,0,1-.627.032q-.248,0-.259.373c0,.27,0,.54.027.875a6.427,6.427,0,0,1,0,.729c0,.356-.216.5-.621.427a.54.54,0,0,1-.313-.135.443.443,0,0,1-.1-.319v-.34q0-.151-.032-.745c-.027-.54-.049-.951-.059-1.172-.027-.475-.043-.843-.049-1.08v-.724q.059-.492.308-.54a.584.584,0,0,1,.194-.038c.227,0,.383.194.475.578a2.58,2.58,0,0,1,.07.61,1.857,1.857,0,0,0,0,.486c.043.108.178.167.41.173h.54a.346.346,0,0,0,.308-.373A5.14,5.14,0,0,0,309.678,236.736Z" transform="translate(-236.223 -168.093)" fill="#fff"/>
      <path id="Path_71000" data-name="Path 71000" d="M317.557,237.263a2.107,2.107,0,0,1-.427.032h-.54a1.452,1.452,0,0,0-.492.086.475.475,0,0,0-.3.27,2.7,2.7,0,0,0-.07.405,3.214,3.214,0,0,0,.027.437.384.384,0,0,0,.335.367,3.2,3.2,0,0,0,.47,0,3.776,3.776,0,0,1,.5,0h.362a.632.632,0,0,1,.3.1.329.329,0,0,1,.157.27,1.513,1.513,0,0,1,0,.227.319.319,0,0,1-.1.135.853.853,0,0,1-.54.086c-.259,0-.448-.043-.578-.049h-.583c-.1,0-.167.076-.2.232a.308.308,0,0,0,.049.308.54.54,0,0,0,.259.13,3.24,3.24,0,0,0,.832.049c.448-.038.713.049.783.259a.6.6,0,0,1,0,.146c0,.313-.2.47-.594.47h-.394c-.583-.049-.94-.086-1.08-.108a.918.918,0,0,1-.832-.988c0-.567-.027-1.08-.059-1.475v-.464a5.942,5.942,0,0,1,.108-1.08c.1-.5.492-.81,1.183-.913a3.037,3.037,0,0,1,.5-.049,3.359,3.359,0,0,1,.951.162.54.54,0,0,1,.248.254.637.637,0,0,1,.07.356.792.792,0,0,1,0,.119A.481.481,0,0,1,317.557,237.263Z" transform="translate(-239.699 -168.139)" fill="#fff"/>
      <path id="Path_71001" data-name="Path 71001" d="M323.477,236.043a5.822,5.822,0,0,1,1.258.07.967.967,0,0,1,.886.745,2.319,2.319,0,0,1,.065.491.87.87,0,0,1-.1.443,1.555,1.555,0,0,1-1.448.74h-.9c-.1,0-.054,0-.054.032a.4.4,0,0,0,.113.184c.254.27.459.5.627.7.232.281.41.486.54.621a1.318,1.318,0,0,1,.373.686.411.411,0,0,1-.27.373.432.432,0,0,1-.194.049.913.913,0,0,1-.643-.351,2.7,2.7,0,0,1-.427-.627l-.621-1.242c.07.7.108,1.129.1,1.275v.437a.793.793,0,0,1-.059.275.4.4,0,0,1-.178.205.773.773,0,0,1-.27.059c-.238.027-.356-.167-.356-.594a1.837,1.837,0,0,1-.032-.281c-.054-.8-.076-1.491-.07-2.047V237.5q.038-.848.389-1.08a2.366,2.366,0,0,1,1.269-.373Zm0,.81a.648.648,0,0,0-.362.108.508.508,0,0,0-.248.437q0,.362.389.389.778.043.859-.34a.405.405,0,0,0-.243-.5A.972.972,0,0,0,323.477,236.853Z" transform="translate(-242.909 -168.086)" fill="#fff"/>
      <path id="Path_71002" data-name="Path 71002" d="M330.6,240.991a2.614,2.614,0,0,0,.459.14c.124-.292.248-.583.389-.87a.732.732,0,0,1-.157,0c-.275-.049-.448-.313-.54-.8a4.805,4.805,0,0,1-.065-.772,5.448,5.448,0,0,1,.049-.708c.059-.5.205-.783.432-.843a1.15,1.15,0,0,1,.6,0c.189.059.329.254.416.594a2.933,2.933,0,0,1,.081.508c.205-.54.427-1.08.675-1.62a1.081,1.081,0,0,0-.227-.259,1.183,1.183,0,0,0-.41-.232,3.073,3.073,0,0,0-.5-.07h-.34c-.88,0-1.4.3-1.572.886a4.179,4.179,0,0,0-.189,1.167c0,.259,0,.54,0,.778a3.581,3.581,0,0,0,.076.767l.167.637a.691.691,0,0,0,.227.427A1.145,1.145,0,0,0,330.6,240.991Z" transform="translate(-246.533 -168.097)" fill="#fff"/>
      <path id="Path_71003" data-name="Path 71003" d="M334.085,240.005c-.027-.243-.043-.416-.049-.54a2.279,2.279,0,0,0-.173-.691.983.983,0,0,0-.292-.362,1.081,1.081,0,0,0-.243-.162l-.065.184a2.6,2.6,0,0,1-.113.346v.027a.092.092,0,0,1-.027.065h0a4.7,4.7,0,0,1-.221.5,1.243,1.243,0,0,1,.162.378,3.11,3.11,0,0,1,.092.767,3.823,3.823,0,0,1-.032.589c-.059.6-.167.956-.329,1.08a.707.707,0,0,1-.421.124,1.622,1.622,0,0,1-.227,0c-.211-.038-.362-.205-.454-.5-.113.281-.238.54-.367.826a2.16,2.16,0,0,1-.135.243.945.945,0,0,0,.27.173,2.646,2.646,0,0,0,.464.14c.07,0,.227.027.47.049h.157a2.036,2.036,0,0,0,.675-.113.978.978,0,0,0,.621-.508,2.25,2.25,0,0,0,.14-.4,12.914,12.914,0,0,0,.151-1.7A4.243,4.243,0,0,0,334.085,240.005Z" transform="translate(-247.218 -169.104)" fill="#fff"/>
      <path id="Path_71004" data-name="Path 71004" d="M339.17,239.774a7.615,7.615,0,0,1-.054,1.08c-.076.54-.216.837-.416.837a.438.438,0,0,1-.389-.243.923.923,0,0,1-.124-.47c0-.54-.032-1.161-.1-1.955V238.8c0-.486.162-.74.481-.745a.411.411,0,0,1,.427.227,1.648,1.648,0,0,1,.162.475C339.159,238.851,339.17,239.2,339.17,239.774Zm-.594,3.37c-.254-.086-.383-.232-.383-.448a.87.87,0,0,1,.065-.3c.124-.3.286-.443.492-.443a.54.54,0,0,1,.194.038.459.459,0,0,1,.34.454.771.771,0,0,1-.032.211c-.092.324-.216.492-.378.508a.648.648,0,0,1-.292-.016Z" transform="translate(-250.392 -169.014)" fill="#fff"/>
      <path id="Path_71005" data-name="Path 71005" d="M320.183,229.65a1.215,1.215,0,0,1-.059.308c-.049.194-.119.492-.227.864-.211.745-.54,1.82-1.048,3.122a28.825,28.825,0,0,1-2.112,4.413,21.645,21.645,0,0,1-3.7,4.71A16.7,16.7,0,0,1,308,246.307a14.216,14.216,0,0,1-4.769,1.08,11.175,11.175,0,0,1-3.284-.319,6.7,6.7,0,0,1-.859-.259,1.658,1.658,0,0,1-.292-.113c0-.027.421.108,1.177.27a12.19,12.19,0,0,0,3.241.221,14.384,14.384,0,0,0,4.683-1.123,16.878,16.878,0,0,0,4.937-3.241,21.874,21.874,0,0,0,3.673-4.64,31.168,31.168,0,0,0,2.16-4.348c.54-1.285.88-2.35,1.123-3.084.113-.346.205-.627.281-.848A1.124,1.124,0,0,1,320.183,229.65Z" transform="translate(-232.323 -165.149)" fill="#263238"/>
      <g id="Group_70933" data-name="Group 70933" transform="translate(68.654 69.383)" opacity="0.2">
        <path id="Path_71006" data-name="Path 71006" d="M302.83,251.6a8.782,8.782,0,0,1,5.288-5.342c1.561-.54,3.241-.648,4.812-1.226,2.971-1.107,5.012-3.781,6.886-6.346a16.744,16.744,0,0,1-16.841,12.8" transform="translate(-302.83 -238.69)"/>
      </g>
      <path id="Path_71007" data-name="Path 71007" d="M321.734,281.621,306.2,283a17.017,17.017,0,0,1-3.921-.1l-15.734-2.241a21.55,21.55,0,0,0-2.425,9.468c0,11.51,2.7,34.108,3.9,37.268,1.62,4.229,4.861,7.761,8.6,7.113s8.134-3.241,7.021-11.062c-.929-6.352.416-18.467.951-22.771l.54,29.123-2.16,28.324,10.851,2.6,9.387-31.813.864-24.359a83.032,83.032,0,0,0-1.728-20.017Z" transform="translate(-225.572 -188.608)" fill="#263238"/>
      <circle id="Ellipse_3568" data-name="Ellipse 3568" cx="1.134" cy="1.134" r="1.134" transform="translate(63.96 109.951)" fill="#fff"/>
      <circle id="Ellipse_3569" data-name="Ellipse 3569" cx="1.134" cy="1.134" r="1.134" transform="translate(72.294 119.938)" fill="#fff"/>
      <circle id="Ellipse_3570" data-name="Ellipse 3570" cx="1.134" cy="1.134" r="1.134" transform="translate(70.642 136.606)" fill="#fff"/>
      <circle id="Ellipse_3571" data-name="Ellipse 3571" cx="1.134" cy="1.134" r="1.134" transform="translate(72.759 101.174)" fill="#fff"/>
      <circle id="Ellipse_3572" data-name="Ellipse 3572" cx="1.134" cy="1.134" r="1.134" transform="translate(89.049 104.577)" fill="#fff"/>
      <circle id="Ellipse_3573" data-name="Ellipse 3573" cx="1.134" cy="1.134" r="1.134" transform="translate(84.431 117.902)" fill="#fff"/>
      <circle id="Ellipse_3574" data-name="Ellipse 3574" cx="1.134" cy="1.134" r="1.134" transform="translate(91.36 126.284)" fill="#fff"/>
      <path id="Path_71008" data-name="Path 71008" d="M344.274,381.71a1.134,1.134,0,1,1-.81-.34A1.134,1.134,0,0,1,344.274,381.71Z" transform="translate(-252.342 -234.923)" fill="#fff"/>
      <circle id="Ellipse_3575" data-name="Ellipse 3575" cx="1.134" cy="1.134" r="1.134" transform="translate(85.695 163.363)" fill="#fff"/>
      <circle id="Ellipse_3576" data-name="Ellipse 3576" cx="1.134" cy="1.134" r="1.134" transform="translate(85.695 135.801)" fill="#fff"/>
      <circle id="Ellipse_3577" data-name="Ellipse 3577" cx="1.134" cy="1.134" r="1.134" transform="translate(81.644 151.529)" fill="#fff"/>
      <circle id="Ellipse_3578" data-name="Ellipse 3578" cx="1.134" cy="1.134" r="1.134" transform="translate(64.776 127.915)" fill="#fff"/>
      <path id="Path_71009" data-name="Path 71009" d="M326.286,306.159a4.322,4.322,0,0,1-.481,1.048c-.335.627-.832,1.48-1.426,2.387s-1.167,1.707-1.62,2.263a4.321,4.321,0,0,1-.762.864c-.065-.049.961-1.469,2.16-3.279S326.216,306.122,326.286,306.159Z" transform="translate(-242.99 -200.335)" fill="#455a64"/>
      <path id="Path_71010" data-name="Path 71010" d="M328.784,309.61c.043.076-.972.724-2.117,1.658s-1.988,1.793-2.047,1.739a7.756,7.756,0,0,1,1.869-1.955A7.972,7.972,0,0,1,328.784,309.61Z" transform="translate(-244.197 -201.922)" fill="#455a64"/>
      <path id="Path_71011" data-name="Path 71011" d="M323.978,286.65a1.619,1.619,0,0,1-.324.086l-.945.184c-.41.081-.913.173-1.5.254s-1.253.2-2,.275c-1.48.189-3.241.34-5.223.443s-4.143.1-6.417,0-4.44-.324-6.395-.583-3.705-.589-5.163-.913c-.729-.146-1.383-.319-1.961-.454s-1.08-.275-1.469-.389l-.918-.27a1.492,1.492,0,0,1-.319-.113,1.318,1.318,0,0,1,.329.059l.934.216c.405.1.9.221,1.48.34s1.231.281,1.966.416c1.458.3,3.2.589,5.153.848s4.1.454,6.373.54,4.434.086,6.395,0,3.732-.216,5.212-.378c.745-.07,1.41-.167,2-.238s1.08-.14,1.5-.205l.951-.135a1.9,1.9,0,0,1,.335.016Z" transform="translate(-228.897 -190.682)" fill="#455a64"/>
      <path id="Path_71012" data-name="Path 71012" d="M345.605,368.45a4.013,4.013,0,0,1-1.107.7,11.023,11.023,0,0,1-3,.988,11.278,11.278,0,0,1-3.165.1,4.122,4.122,0,0,1-1.28-.281,18.217,18.217,0,0,0,4.4-.092A18.466,18.466,0,0,0,345.605,368.45Z" transform="translate(-249.913 -228.982)" fill="#455a64"/>
      <path id="Path_71013" data-name="Path 71013" d="M301.639,373.489a2.425,2.425,0,0,1-1.026,0,6.249,6.249,0,0,1-2.333-.859,6.158,6.158,0,0,1-1.8-1.712A2.274,2.274,0,0,1,296,370a8.272,8.272,0,0,1,.616.8,7.075,7.075,0,0,0,4.013,2.5,6.865,6.865,0,0,1,1.01.194Z" transform="translate(-231.035 -229.694)" fill="#455a64"/>
      <path id="Path_71014" data-name="Path 71014" d="M317.846,358.72a2.641,2.641,0,0,1,.146,1.021,7.854,7.854,0,0,1-1.48,4.7,2.851,2.851,0,0,1-.7.756,14.488,14.488,0,0,0,1.556-3.068A13.937,13.937,0,0,0,317.846,358.72Z" transform="translate(-240.145 -224.507)" fill="#455a64"/>
      <path id="Path_71015" data-name="Path 71015" d="M308.213,387.049a9.461,9.461,0,0,0-2.1-.275,9.144,9.144,0,0,0-2.058.47,3,3,0,0,1,2.047-.751,2.965,2.965,0,0,1,2.106.556Z" transform="translate(-234.742 -237.27)" fill="#e0e0e0"/>
      <path id="Path_71016" data-name="Path 71016" d="M308.465,383.2a13.123,13.123,0,0,0-2.4-.248,12.963,12.963,0,0,0-2.371.481A4.742,4.742,0,0,1,308.465,383.2Z" transform="translate(-234.572 -235.521)" fill="#e0e0e0"/>
      <path id="Path_71017" data-name="Path 71017" d="M305.616,381.6a3.938,3.938,0,0,1-1.053-.081l-1.129-.167-.659-.108a1.7,1.7,0,0,1-.383-.092.475.475,0,0,1-.292-.4.346.346,0,0,1,.119-.27.67.67,0,0,1,.2-.119,3.145,3.145,0,0,1,.367-.108,2.24,2.24,0,0,1,.708,0,2.08,2.08,0,0,1,1.08.454,1.431,1.431,0,0,1,.6.88,4.532,4.532,0,0,0-.718-.718,2.041,2.041,0,0,0-1-.362,2.078,2.078,0,0,0-.627.043c-.189.043-.5.151-.459.216a.654.654,0,0,0,.438.232l.664.124,1.113.227A4.024,4.024,0,0,1,305.616,381.6Z" transform="translate(-233.84 -234.398)" fill="#e0e0e0"/>
      <path id="Path_71018" data-name="Path 71018" d="M307.747,379.988a2.479,2.479,0,0,1,.205-1.248,4.559,4.559,0,0,1,.664-1.215,4.861,4.861,0,0,1,.54-.6,1.4,1.4,0,0,1,.389-.265.578.578,0,0,1,.54.032.54.54,0,0,1,.221.508,1.312,1.312,0,0,1-.135.454,4.325,4.325,0,0,1-.427.708,4.818,4.818,0,0,1-.967.988,2.647,2.647,0,0,1-1.129.578c0-.043.427-.238,1-.735a5.174,5.174,0,0,0,.88-.983,4.784,4.784,0,0,0,.389-.675c.113-.216.162-.54,0-.61a.57.57,0,0,0-.6.205,4.379,4.379,0,0,0-.54.54,4.895,4.895,0,0,0-.686,1.129C307.839,379.518,307.8,379.994,307.747,379.988Z" transform="translate(-236.393 -232.731)" fill="#e0e0e0"/>
    </g>
    <g id="freepik--Plants--inject-51" transform="translate(28.066 163.317)">
      <path id="Path_71019" data-name="Path 71019" d="M182.007,365.25a24.993,24.993,0,0,0-1.529,3.289,25.821,25.821,0,0,0-.767,3.543,3.241,3.241,0,0,1,0-1.08,10.918,10.918,0,0,1,1.669-4.9A3.127,3.127,0,0,1,182.007,365.25Z" transform="translate(-101.863 -310.563)" fill="#263238"/>
      <path id="Path_71020" data-name="Path 71020" d="M186.509,365.87c.07.054-.913,1.421-1.869,3.241s-1.534,3.414-1.62,3.387a3.883,3.883,0,0,1,.292-1.08,19.358,19.358,0,0,1,2.479-4.726,3.906,3.906,0,0,1,.718-.821Z" transform="translate(-103.405 -310.849)" fill="#263238"/>
      <path id="Path_71021" data-name="Path 71021" d="M201.355,357.67c0,.054-1.01.189-2.555.767a15.042,15.042,0,0,0-8.836,8.755c-.594,1.534-.74,2.56-.794,2.544a3.161,3.161,0,0,1,.086-.713,13.279,13.279,0,0,1,.54-1.9,14.459,14.459,0,0,1,8.96-8.874,12.731,12.731,0,0,1,1.907-.5A2.916,2.916,0,0,1,201.355,357.67Z" transform="translate(-106.234 -307.078)" fill="#263238"/>
      <path id="Path_71022" data-name="Path 71022" d="M109,386.64a3.338,3.338,0,0,1,.74.756,20.357,20.357,0,0,1,2.776,4.278,3.667,3.667,0,0,1,.389.983c-.076.038-.8-1.4-1.88-3.057S108.944,386.694,109,386.64Z" transform="translate(-69.363 -320.4)" fill="#263238"/>
      <path id="Path_71023" data-name="Path 71023" d="M110.218,381.52a10.9,10.9,0,0,1,2.117,2.339,11.1,11.1,0,0,1,1.62,2.7c-.07.043-.816-1.15-1.847-2.533S110.158,381.574,110.218,381.52Z" transform="translate(-69.923 -318.046)" fill="#263238"/>
      <path id="Path_71024" data-name="Path 71024" d="M371.5,369.52a4.859,4.859,0,0,1-.578.681c-.184.216-.389.5-.643.816s-.486.713-.778,1.134a33.436,33.436,0,0,0-3.365,7.205,28.761,28.761,0,0,0-1.55,7.794c-.081,2.036.167,3.289.1,3.3a5.4,5.4,0,0,1-.167-.88,3.194,3.194,0,0,0-.07-.47c-.027-.167,0-.367-.032-.573a11.4,11.4,0,0,1-.027-1.388,26.539,26.539,0,0,1,1.48-7.869,30.787,30.787,0,0,1,3.462-7.232c.3-.41.54-.8.821-1.118s.486-.583.686-.794A7.2,7.2,0,0,1,371.5,369.52Z" transform="translate(-186.811 -312.527)" fill="#263238"/>
      <path id="Path_71025" data-name="Path 71025" d="M368.836,394.92c.043,0-.227.691-.583,1.8a30.917,30.917,0,0,0-1.534,8.944,18.377,18.377,0,0,1-.049,1.89,1.663,1.663,0,0,1-.081-.508c-.032-.324-.059-.8-.07-1.388a25.228,25.228,0,0,1,1.545-9c.205-.54.389-.988.54-1.285A2.062,2.062,0,0,1,368.836,394.92Z" transform="translate(-187.793 -324.208)" fill="#263238"/>
      <path id="Path_71026" data-name="Path 71026" d="M373.487,398c.038,0-.265.54-.675,1.42a18.845,18.845,0,0,0-1.782,7.3,12.342,12.342,0,0,1-.059,1.572c-.059,0-.049-.146-.081-.421a11.423,11.423,0,0,1-.059-1.156,15.7,15.7,0,0,1,1.8-7.383,10.074,10.074,0,0,1,.589-1A2.388,2.388,0,0,1,373.487,398Z" transform="translate(-189.776 -325.625)" fill="#263238"/>
      <path id="Path_71027" data-name="Path 71027" d="M378.879,403.87c.027.043-.437.281-1.08.783a9.912,9.912,0,0,0-2.209,2.339,10.067,10.067,0,0,0-1.323,2.927c-.211.8-.254,1.318-.3,1.313a3.845,3.845,0,0,1,.108-1.361,8.728,8.728,0,0,1,3.608-5.4A3.916,3.916,0,0,1,378.879,403.87Z" transform="translate(-191.209 -328.324)" fill="#263238"/>
      <path id="Path_71028" data-name="Path 71028" d="M427.21,264a2.47,2.47,0,0,1-.227.243l-.7.654c-.308.281-.675.627-1.08,1.048s-.9.88-1.393,1.437-1.08,1.134-1.62,1.809-1.129,1.4-1.728,2.16A52.482,52.482,0,0,0,417,276.687a51.366,51.366,0,0,0-2.7,5.752c-.34.913-.681,1.782-.934,2.614s-.508,1.62-.7,2.317-.346,1.366-.486,1.939-.243,1.08-.324,1.475l-.189.934a1.621,1.621,0,0,1-.086.324,1.3,1.3,0,0,1,.032-.335c.032-.243.081-.54.14-.945s.14-.913.27-1.491.248-1.237.454-1.955.389-1.507.664-2.333.583-1.718.918-2.641a50.33,50.33,0,0,1,2.7-5.79,49.489,49.489,0,0,1,3.5-5.358c.61-.772,1.177-1.512,1.761-2.16s1.129-1.253,1.669-1.793,1-1,1.431-1.41.8-.745,1.123-1.015l.729-.616A1.205,1.205,0,0,1,427.21,264Z" transform="translate(-208.516 -264)" fill="#263238"/>
      <path id="Path_71029" data-name="Path 71029" d="M423.414,297.98c0,.043-.848.189-2.209.508a14.209,14.209,0,0,0-2.3.735,7.756,7.756,0,0,0-2.43,1.664,13.368,13.368,0,0,0-2.744,4.629c-.254.654-.437,1.188-.573,1.561a2.918,2.918,0,0,1-.232.54,2.328,2.328,0,0,1,.13-.6c.1-.378.259-.924.486-1.588a12.606,12.606,0,0,1,2.733-4.764,7.757,7.757,0,0,1,2.528-1.7,12.777,12.777,0,0,1,2.377-.718c.691-.14,1.253-.221,1.62-.27A2.263,2.263,0,0,1,423.414,297.98Z" transform="translate(-209.138 -279.616)" fill="#263238"/>
      <path id="Path_71030" data-name="Path 71030" d="M413.693,285.73c.043,0-.448.837-1.08,2.214a28.383,28.383,0,0,0-1.928,5.612,28.084,28.084,0,0,0-.67,5.893c0,1.529.086,2.468.032,2.474a3.619,3.619,0,0,1-.108-.659,17.506,17.506,0,0,1-.124-1.809,24.6,24.6,0,0,1,2.62-11.6,15.96,15.96,0,0,1,.891-1.583A3.037,3.037,0,0,1,413.693,285.73Z" transform="translate(-207.703 -273.993)" fill="#263238"/>
      <path id="Path_71031" data-name="Path 71031" d="M424.769,354.685a4.731,4.731,0,0,1,2.252,2.965,8.4,8.4,0,0,1,.049,3.781,14.791,14.791,0,0,1-3.673,6.633c-1.928-1.95-2.16-5.12-2.187-6.735-.038-2.555,1.453-7.189,3.559-6.654" transform="translate(-212.945 -305.68)" fill="#00a099"/>
      <path id="Path_71032" data-name="Path 71032" d="M429.113,383.264a4.051,4.051,0,0,1,1.588-3.748,5.4,5.4,0,0,1,4.051-.94,2.258,2.258,0,0,1,1.68.907,1.723,1.723,0,0,1-.1,1.755,3.559,3.559,0,0,1-1.388,1.183c-1.869.988-3.856,1.62-5.828.843" transform="translate(-216.565 -316.657)" fill="#00a099"/>
      <path id="Path_71033" data-name="Path 71033" d="M423.22,392.6a2.407,2.407,0,0,1,.108-.5l.351-1.339a14.252,14.252,0,0,1,1.723-4.235,8.766,8.766,0,0,1,3.359-3.079,6.078,6.078,0,0,1,1.313-.464,2.348,2.348,0,0,1,.373-.065h.13a9.658,9.658,0,0,0-1.761.654,9,9,0,0,0-3.241,3.062,15.371,15.371,0,0,0-1.755,4.175c-.167.54-.3,1.01-.405,1.323A2.545,2.545,0,0,1,423.22,392.6Z" transform="translate(-213.87 -318.69)" fill="#263238"/>
      <path id="Path_71034" data-name="Path 71034" d="M424.828,361.45a1,1,0,0,1,0,.221v.632c0,.54-.038,1.345-.081,2.328-.081,1.966-.232,4.677-.464,7.67s-.508,5.693-.735,7.643c-.113.978-.211,1.766-.286,2.312-.038.259-.065.465-.092.627s-.032.221-.043.216a1.3,1.3,0,0,1,0-.216c0-.167.032-.373.054-.632.059-.573.135-1.356.232-2.317.189-1.955.443-4.656.681-7.648s.405-5.7.54-7.659c.054-.967.1-1.75.135-2.322,0-.259.032-.47.043-.632a1.032,1.032,0,0,1,.016-.221Z" transform="translate(-213.825 -308.816)" fill="#263238"/>
      <path id="Path_71035" data-name="Path 71035" d="M416.122,382.992a9.484,9.484,0,0,0-4.65-7.313,2.019,2.019,0,0,0-2.16-.189c-.616.47-.54,1.4-.319,2.133a8.1,8.1,0,0,0,7.07,5.59" transform="translate(-207.253 -315.159)" fill="#00a099"/>
      <path id="Path_71036" data-name="Path 71036" d="M414,380.39a2.522,2.522,0,0,1,.427.227,4.526,4.526,0,0,1,.47.3,6.75,6.75,0,0,1,.6.443,7.219,7.219,0,0,1,.681.594,7.967,7.967,0,0,1,.713.751,9.722,9.722,0,0,1,2.117,4.213,9.859,9.859,0,0,1,.167,1.026,7.742,7.742,0,0,1,.054.9,6.34,6.34,0,0,1,0,.74,4.616,4.616,0,0,1-.054.54,2.833,2.833,0,0,1-.092.47c-.038,0,.081-.681.043-1.772a7.923,7.923,0,0,0-.081-.886,9.416,9.416,0,0,0-.178-1,10.631,10.631,0,0,0-.8-2.193,10.8,10.8,0,0,0-1.28-1.95,9.692,9.692,0,0,0-.691-.756c-.232-.216-.448-.421-.654-.6C414.589,380.752,414,380.422,414,380.39Z" transform="translate(-209.63 -317.526)" fill="#263238"/>
      <path id="Path_71037" data-name="Path 71037" d="M37.086,288.651a3.149,3.149,0,0,1,2.344.778,5.574,5.574,0,0,1,1.442,2.052,9.83,9.83,0,0,1,.475,4.991,6.61,6.61,0,0,1-3.716-2.857c-.972-1.383-1.89-4.472-.54-4.964" transform="translate(-35.982 -275.332)" fill="#00a099"/>
      <path id="Path_71038" data-name="Path 71038" d="M49.993,301.821a2.7,2.7,0,0,1-.54-2.641,3.565,3.565,0,0,1,1.853-2.052,1.507,1.507,0,0,1,1.258-.135,1.161,1.161,0,0,1,.6,1,2.366,2.366,0,0,1-.319,1.167,4.609,4.609,0,0,1-2.868,2.636" transform="translate(-41.916 -279.136)" fill="#00a099"/>
      <path id="Path_71039" data-name="Path 71039" d="M51.472,308.7s-.049-.113-.124-.313l-.308-.864a9.4,9.4,0,0,1-.643-2.954,5.79,5.79,0,0,1,.681-2.938,4.169,4.169,0,0,1,.54-.745,1.623,1.623,0,0,1,.178-.173c.043-.038.065-.059.065-.054a5.368,5.368,0,0,0-1.35,3.905,10.084,10.084,0,0,0,.6,2.933c.119.367.216.67.275.875a1.55,1.55,0,0,1,.086.329Z" transform="translate(-42.412 -280.859)" fill="#263238"/>
      <path id="Path_71040" data-name="Path 71040" d="M39.34,292.9s.032.038.086.113.14.211.232.351c.2.3.486.751.826,1.3.691,1.08,1.62,2.636,2.614,4.359s1.847,3.3,2.458,4.451c.3.573.54,1.042.708,1.367.076.151.135.281.184.373a.7.7,0,0,1,.059.135.953.953,0,0,1-.081-.119l-.205-.367-.74-1.35c-.627-1.14-1.5-2.7-2.485-4.429s-1.912-3.241-2.582-4.375l-.794-1.318-.211-.362Z" transform="translate(-37.329 -277.291)" fill="#263238"/>
      <path id="Path_71041" data-name="Path 71041" d="M42.149,307.8a6.292,6.292,0,0,0-5.245-2.252c-.508.043-1.08.216-1.248.7s.227.972.621,1.285a5.358,5.358,0,0,0,5.941.405" transform="translate(-35.617 -283.101)" fill="#00a099"/>
      <path id="Path_71042" data-name="Path 71042" d="M39.73,307.788a1.392,1.392,0,0,1,.313-.038h.864a5.033,5.033,0,0,1,.594.07,5.72,5.72,0,0,1,.67.14,6.422,6.422,0,0,1,2.7,1.512,5.766,5.766,0,0,1,.475.5,5.119,5.119,0,0,1,.367.47c.113.146.189.292.27.416a2.813,2.813,0,0,1,.173.324,1.62,1.62,0,0,1,.13.292,8.859,8.859,0,0,0-.637-.983,5.255,5.255,0,0,0-.373-.443,6.489,6.489,0,0,0-.47-.481,7.158,7.158,0,0,0-1.258-.9,7.56,7.56,0,0,0-1.426-.583c-.232-.059-.448-.119-.659-.151a5.274,5.274,0,0,0-.583-.086C40.184,307.766,39.73,307.815,39.73,307.788Z" transform="translate(-37.508 -284.12)" fill="#263238"/>
    </g>
  </g>
</svg>
