<svg xmlns="http://www.w3.org/2000/svg" width="46.851" height="46.851" viewBox="0 0 46.851 46.851">
  <g id="Group_68424" data-name="Group 68424" transform="translate(-135 -5018)">
    <circle id="Ellipse_549" data-name="Ellipse 549" cx="23.425" cy="23.425" r="23.425" transform="translate(135 5018)" fill="#fff"/>
    <g id="Group_56357" data-name="Group 56357" transform="translate(150.869 5027.823)">
      <g id="_x30_1._Facebook" transform="translate(0 0)">
        <path id="Icon_11_" d="M32.422,25.216H29.1c-.536,0-.7-.2-.7-.7V20.456c0-.536.2-.7.7-.7h3.318V16.8a7.445,7.445,0,0,1,.9-3.787,5.561,5.561,0,0,1,2.983-2.48A7.457,7.457,0,0,1,38.89,10.1h3.285c.469,0,.67.2.67.67v3.821c0,.469-.2.67-.67.67-.9,0-1.81,0-2.715.034a1.21,1.21,0,0,0-1.374,1.374c-.034,1.005,0,1.977,0,3.016h3.888c.536,0,.737.2.737.737v4.055c0,.536-.168.7-.737.7H38.086V36.108c0,.57-.168.771-.771.771H33.126c-.5,0-.7-.2-.7-.7V25.216Z" transform="translate(-28.4 -10.1)" fill="#00a099"/>
      </g>
    </g>
  </g>
</svg>
