<svg xmlns="http://www.w3.org/2000/svg" width="457.487" height="449.979" viewBox="0 0 457.487 449.979">
  <g id="Files_sent-amico" data-name="Files sent-amico" transform="translate(-21.24 -36.48)">
    <g id="freepik--Floor--inject-35">
      <path id="Path_8241" data-name="Path 8241" d="M411.22,260.26c-89.62-51.75-234.46-51.75-323.5,0s-88.57,135.64,1,187.39,234.47,51.74,323.51,0S500.85,312,411.22,260.26Z" fill="#f5f5f5"/>
    </g>
    <g id="freepik--Shadows--inject-35">
      <path id="Path_8242" data-name="Path 8242" d="M105,315.68c29.62-17.1,77.49-17.1,106.91,0,26,15.11,28.89,38.51,8.79,55.55,16.22-1,33,2.09,45.42,9.29,21.75,12.64,21.63,33.13-.25,45.76s-57.26,12.64-79,0c-17.3-10-20.75-25.07-10.42-37.16-24.93,3.61-52.37-.23-71.79-11.51C75.19,360.51,75.34,332.79,105,315.68Z" fill="#e0e0e0"/>
      <path id="Path_8243" data-name="Path 8243" d="M396.05,359.18l-122.88-71.5a2.29,2.29,0,0,1,0-4l45.68-26.55a2.3,2.3,0,0,1,2.3,0l124,72.17a2.29,2.29,0,0,1,0,4l-44.53,25.88a4.58,4.58,0,0,1-4.57,0Z" fill="#e0e0e0"/>
      <path id="Path_8244" data-name="Path 8244" d="M420,387.38c-7.29-4.2-19.06-4.2-26.3,0s-7.2,11,.09,15.23,19.06,4.21,26.29,0S427.29,391.59,420,387.38Z" fill="#e0e0e0"/>
    </g>
    <g id="freepik--Pictures--inject-35">
      <path id="Path_8245" data-name="Path 8245" d="M118.05,97.43,83.68,117.28l.07,26.27,34.38-19.85Z" fill="none"/>
      <path id="Path_8246" data-name="Path 8246" d="M118.05,97.43l.08,26.27,3.18,1.85-.08-29.95Z" fill="#f0f0f0"/>
      <path id="Path_8247" data-name="Path 8247" d="M83.75,143.55l.02,3.68,37.54-21.68-3.18-1.85Z" fill="#f5f5f5"/>
      <path id="Path_8248" data-name="Path 8248" d="M125.06,89,79.82,115.08l.11,38.79,45.24-26.12ZM83.77,147.23v-3.68l-.07-26.27,34.37-19.85,3.18-1.83.08,30Z" fill="#e0e0e0"/>
      <path id="Path_8249" data-name="Path 8249" d="M125.06,88.96l-3.18-1.85L76.64,113.23l3.18,1.85Z" fill="#f5f5f5"/>
      <path id="Path_8250" data-name="Path 8250" d="M76.64,113.23l.11,38.79,3.18,1.85-.11-38.79Z" fill="#f0f0f0"/>
      <path id="Path_8251" data-name="Path 8251" d="M118.03,156.39,83.66,176.24l.07,26.27,34.38-19.85Z" fill="none"/>
      <path id="Path_8252" data-name="Path 8252" d="M118.03,156.39l.08,26.27,3.18,1.85-.09-29.95Z" fill="#f0f0f0"/>
      <path id="Path_8253" data-name="Path 8253" d="M83.73,202.51l.01,3.68,37.55-21.68-3.18-1.85Z" fill="#f5f5f5"/>
      <path id="Path_8254" data-name="Path 8254" d="M125,147.92,79.8,174l.11,38.79,45.24-26.12ZM83.7,206.19v-3.68l-.07-26.28L118,156.39l3.17-1.83.09,29.95Z" fill="#e0e0e0"/>
      <path id="Path_8255" data-name="Path 8255" d="M125.04,147.92l-3.18-1.85L76.61,172.19l3.19,1.85Z" fill="#f5f5f5"/>
      <path id="Path_8256" data-name="Path 8256" d="M76.61,172.19l.11,38.79,3.19,1.85-.11-38.79Z" fill="#f0f0f0"/>
      <path id="Path_8257" data-name="Path 8257" d="M171.16,113.63h0c.41-.19.82-.4,1.23-.6h0C172,113.24,171.57,113.44,171.16,113.63Z" fill="none"/>
      <path id="Path_8258" data-name="Path 8258" d="M170.72,113.85h0l.46-.22h0Z" fill="none"/>
      <path id="Path_8259" data-name="Path 8259" d="M185.19,62.44l-9.4,5.43-9.56,5.52,9.56-5.52Z" fill="none"/>
      <path id="Path_8260" data-name="Path 8260" d="M185.27,93.43l-.02-8.72-.02-7.97.02,7.97Z" fill="none"/>
      <path id="Path_8261" data-name="Path 8261" d="M172.4,113l.26-.13Z" fill="none"/>
      <path id="Path_8262" data-name="Path 8262" d="M185.38,131.66l-.02-7.29-.02-6.38.02,6.38Z" fill="none"/>
      <path id="Path_8263" data-name="Path 8263" d="M167.07,115.35c1.2-.43,2.42-.94,3.64-1.5h0C169.49,114.41,168.27,114.92,167.07,115.35Z" fill="none"/>
      <path id="Path_8264" data-name="Path 8264" d="M157.27,89.36l.08,28.01.05,16.23-.05-16.23Z" fill="none"/>
      <path id="Path_8265" data-name="Path 8265" d="M185.36,124.37v-6.38l-.29.16-.53.32c-4.71,2.84-9.44,7.32-13.85,12.15-.73.8-1.45,1.61-2.16,2.42-3.71,4.26-7.34,8.76-11.08,13v10.31l4.5-2.59a98.94,98.94,0,0,1,23.41-29.39Z" fill="#ebebeb"/>
      <path id="Path_8266" data-name="Path 8266" d="M185.41,140.19v-8.53a53.79,53.79,0,0,0-9.56,14.06Z" fill="#ebebeb"/>
      <path id="Path_8267" data-name="Path 8267" d="M175.82,145.72a53.79,53.79,0,0,1,9.56-14.06v-7.29A98.94,98.94,0,0,0,162,153.73l13.86-8Z" fill="#fafafa"/>
      <path id="Path_8268" data-name="Path 8268" d="M170.72,113.85h0" fill="none" stroke="gray" stroke-linecap="round" stroke-linejoin="round"/>
      <path id="Path_8269" data-name="Path 8269" d="M171.16,113.63h0" fill="none" stroke="gray" stroke-linecap="round" stroke-linejoin="round"/>
      <path id="Path_8270" data-name="Path 8270" d="M166.42,115.58l.65-.23c1.2-.43,2.42-.94,3.65-1.5l.44-.22c.41-.19.83-.39,1.24-.6.71-.37,1.42-.74,2.14-1.15-.72.41-1.43.78-2.14,1.15l.26-.13c.62-.32,1.25-.66,1.88-1l.4-.23.33-.19a68.65,68.65,0,0,0,9.62-6.89l.42-.36V93.45c-6.84,3.5-13.57,4.59-19,2.9a16.7,16.7,0,0,1-9-7l.08,28A33.33,33.33,0,0,0,166.42,115.58Z" fill="#fafafa"/>
      <path id="Path_8271" data-name="Path 8271" d="M170.67,130.62c4.41-4.83,9.14-9.31,13.85-12.15l.53-.32.29-.16v-6.18A133.919,133.919,0,0,0,160.13,131c-.91.87-1.82,1.76-2.73,2.61v12.41c3.74-4.21,7.37-8.71,11.08-13C169.22,132.23,169.94,131.42,170.67,130.62Z" fill="#fafafa"/>
      <path id="Path_8272" data-name="Path 8272" d="M185.33,111.81v-7.6l-.42.36a68.649,68.649,0,0,1-9.62,6.89l-.33.19-.4.23c-.63.36-1.26.7-1.88,1l-.26.13a1.4,1.4,0,0,0-.17.09h0a1.4,1.4,0,0,1,.17-.09c-.41.2-.82.41-1.23.6l-.46.22c-1.22.56-2.44,1.07-3.64,1.5l.68-.25-.68.25-.65.23a33.33,33.33,0,0,1-9.07,1.79l.05,16.23c.91-.85,1.82-1.74,2.73-2.61a133.921,133.921,0,0,1,25.18-19.16Z" fill="#ebebeb"/>
      <path id="Path_8273" data-name="Path 8273" d="M185.25,84.71v-8c-4.32-1-7.68-4.16-9.44-8.87l-9.56,5.52a19.74,19.74,0,0,0,19,11.35Z" fill="#fafafa"/>
      <path id="Path_8274" data-name="Path 8274" d="M166.27,96.33c5.43,1.69,12.16.6,19-2.9V84.71a19.74,19.74,0,0,1-19-11.32l-9,5.19V89.35a16.7,16.7,0,0,0,9,6.98Z" fill="#ebebeb"/>
      <path id="Path_8275" data-name="Path 8275" d="M186.76,59.73l-31.1,18,.23,81.35,31.1-18Zm-29.3,96.59V133.6l-.05-16.23-.08-28V78.6l9-5.19,9.56-5.52,9.4-5.43V140.2l-9.59,5.53h0l-13.86,8Z" fill="#fff"/>
      <path id="Path_8276" data-name="Path 8276" d="M172.21,113.13h0" fill="none" stroke="gray" stroke-linecap="round" stroke-linejoin="round"/>
      <path id="Path_8277" data-name="Path 8277" d="M172.23,113.12a1.4,1.4,0,0,1,.17-.09" fill="none" stroke="gray" stroke-linecap="round" stroke-linejoin="round"/>
      <path id="Path_8278" data-name="Path 8278" d="M174.54,111.88c-.72.41-1.43.78-2.14,1.15" fill="none" stroke="gray" stroke-linecap="round" stroke-linejoin="round"/>
      <line id="Line_26" data-name="Line 26" transform="translate(172.4 113.03)" fill="none" stroke="gray" stroke-linecap="round" stroke-linejoin="round"/>
      <path id="Path_8279" data-name="Path 8279" d="M167.07,115.35l.68-.25" fill="none" stroke="gray" stroke-linecap="round" stroke-linejoin="round"/>
      <path id="Path_8280" data-name="Path 8280" d="M185.23,76.74V62.44l-9.4,5.43C177.55,72.58,180.91,75.73,185.23,76.74Z" fill="#ebebeb"/>
      <path id="Path_8281" data-name="Path 8281" d="M186.99,141.08l-31.1,17.96v2.16l32.96-19.03Z" fill="#cacaca"/>
      <path id="Path_8282" data-name="Path 8282" d="M186.75,59.73l.24,81.35,1.86,1.09-.23-83.51Z" fill="#f0f0f0"/>
      <path id="Path_8283" data-name="Path 8283" d="M193.62,50l-43,24.82.27,95,43-24.82ZM155.89,161.2V159l-.23-81.35,31.1-18,1.86-1.07.23,83.51Z" fill="#e0e0e0"/>
      <path id="Path_8284" data-name="Path 8284" d="M193.62,50l-3.55-1.91L147.08,72.91l3.54,1.91Z" fill="#f5f5f5"/>
      <path id="Path_8285" data-name="Path 8285" d="M147.08,72.91l.27,95.05,3.54,1.9-.27-95.04Z" fill="#f0f0f0"/>
      <path id="Path_8286" data-name="Path 8286" d="M107.13,107.41l9.38,7.37.02,7.22L85.35,140l-.02-7.21,5.94-11.81,5.34,4.15-1.89,5.86,2.74-5.21Z" fill="#e0e0e0"/>
      <path id="Path_8287" data-name="Path 8287" d="M96.89,111c1.47-.85,2.66-.17,2.67,1.52a5.86,5.86,0,0,1-2.65,4.59c-1.47.84-2.66.16-2.67-1.52A5.85,5.85,0,0,1,96.89,111Z" fill="#e0e0e0"/>
      <path id="Path_8288" data-name="Path 8288" d="M107.11,166.36l9.37,7.39.02,7.21-31.17,18-.02-7.21,5.94-11.81,5.33,4.15-1.88,5.86,2.73-5.21Z" fill="#e0e0e0"/>
      <path id="Path_8289" data-name="Path 8289" d="M96.87,170c1.47-.85,2.66-.17,2.66,1.52a5.85,5.85,0,0,1-2.64,4.59c-1.47.84-2.67.16-2.67-1.52A5.82,5.82,0,0,1,96.87,170Z" fill="#e0e0e0"/>
    </g>
    <g id="freepik--Furniture--inject-35">
      <path id="Path_8290" data-name="Path 8290" d="M287.13,285.93l-4.53,2.64.01-5.25Z" fill="#e6e6e6"/>
      <path id="Path_8291" data-name="Path 8291" d="M282.72,257.95v-.06h0Z" fill="#787878"/>
      <rect id="Rectangle_28300" data-name="Rectangle 28300" height="127.6" transform="translate(337.99 225.97)" fill="#cfcfcf"/>
      <path id="Path_8292" data-name="Path 8292" d="M282.79,232.44l110.53,63.75h0Z" fill="#cfcfcf"/>
      <path id="Path_8293" data-name="Path 8293" d="M287.13,285.93l106.09,61.2v5.24l4.72,2.73.17-61.63-120-69.25-.18,61.62,4.73,2.73v-5.25Zm106.14,30.25L282.74,252.42l.05-20,110.53,63.75h0Zm-.08,25.45L282.66,277.88l.06-19.93v-.06h0l110.53,63.76h0Z" fill="#ebebeb"/>
      <path id="Path_8294" data-name="Path 8294" d="M282.67,277.88l.05-19.93v-.06l110.53,63.76h0l-.06,19.98Z" fill="#f5f5f5"/>
      <path id="Path_8295" data-name="Path 8295" d="M282.74,252.42l.05-19.98,110.53,63.75h0l-.05,19.99Z" fill="#f5f5f5"/>
      <path id="Path_8296" data-name="Path 8296" d="M398.1,293.47l46.83-27.21-.18,61.63L397.93,355.1Z" fill="#e6e6e6"/>
      <path id="Path_8297" data-name="Path 8297" d="M398.1,293.47,278.05,224.22l46.82-27.21,120.06,69.25Z" fill="#f5f5f5"/>
      <path id="Path_8298" data-name="Path 8298" d="M345.33,276.14v3.59c0,1.8-1.28,2.53-2.85,1.62l-13.59-7.84a6.23,6.23,0,0,1-2.82-4.9V265Z" fill="#ebebeb"/>
      <path id="Path_8299" data-name="Path 8299" d="M345.33,272.77l-.01,3.37-19.25-11.12.01-3.37Z" fill="#e0e0e0"/>
      <g id="Group_68654" data-name="Group 68654" opacity="0.1">
        <path id="Path_8300" data-name="Path 8300" d="M345.33,272.77l-.01,3.37-19.25-11.12.01-3.37Z"/>
      </g>
      <path id="Path_8301" data-name="Path 8301" d="M345.33,301.81v3.58c0,1.81-1.28,2.53-2.85,1.63l-13.59-7.84a6.24,6.24,0,0,1-2.82-4.9v-3.59Z" fill="#ebebeb"/>
      <path id="Path_8302" data-name="Path 8302" d="M345.33,298.44l-.01,3.37-19.25-11.12.01-3.37Z" fill="#e0e0e0"/>
      <g id="Group_68655" data-name="Group 68655" opacity="0.1">
        <path id="Path_8303" data-name="Path 8303" d="M345.33,298.44l-.01,3.37-19.25-11.12.01-3.37Z"/>
      </g>
    </g>
    <g id="freepik--Plant--inject-35">
      <path id="Path_8304" data-name="Path 8304" d="M424.54,363.18l-17.64.52-17.63-.52c-.76,11.91,1.56,24.05,4.77,30h0a8.09,8.09,0,0,0,3.49,3.55c5.21,3,13.62,3,18.79,0a7.87,7.87,0,0,0,3.49-3.64C423,387.11,425.3,375,424.54,363.18Z" fill="#fff"/>
      <path id="Path_8305" data-name="Path 8305" d="M419.33,356c6.92,4,6.95,10.46.09,14.45s-18,4-24.95,0S387.53,360,394.39,356,412.42,352,419.33,356Z" fill="#ebebeb"/>
      <path id="Path_8306" data-name="Path 8306" d="M416.6,357.55c5.39,3.11,5.42,8.16.07,11.27s-14.07,3.11-19.46,0-5.42-8.16-.07-11.27S411.21,354.43,416.6,357.55Z" fill="#e0e0e0"/>
      <g id="Group_68656" data-name="Group 68656" opacity="0.15">
        <path id="Path_8307" data-name="Path 8307" d="M416.6,357.55c5.39,3.11,5.42,8.16.07,11.27s-14.07,3.11-19.46,0-5.42-8.16-.07-11.27S411.21,354.43,416.6,357.55Z"/>
      </g>
      <path id="Path_8308" data-name="Path 8308" d="M435.9,287.92c-39.74,13-40.1,39.61-31.14,58.54,2.26,3.83,9.1,5.89,15.05-17.66l-10.44,1.34L421.53,324l3.16-9.44-10.14.75,12.88-5.41a190.836,190.836,0,0,1,8.47-21.98Z" fill="#00a099"/>
      <path id="Path_8309" data-name="Path 8309" d="M435.9,287.92c-39.74,13-40.1,39.61-31.14,58.54,2.26,3.83,9.1,5.89,15.05-17.66l-10.44,1.34L421.53,324l3.16-9.44-10.14.75,12.88-5.41a190.836,190.836,0,0,1,8.47-21.98Z" opacity="0.2"/>
      <path id="Path_8310" data-name="Path 8310" d="M435.9,287.92c-39.74,13-40.1,39.61-31.14,58.54,2.26,3.83,9.1,5.89,15.05-17.66l-10.44,1.34L421.53,324l3.16-9.44-10.14.75,12.88-5.41a190.836,190.836,0,0,1,8.47-21.98Z" fill="#fff" opacity="0.2"/>
      <path id="Path_8311" data-name="Path 8311" d="M424.66,294.57c-21,15.91-22.85,34.15-16.93,53.19C405.63,331,403.37,314,424.66,294.57Z" fill="#fff"/>
      <path id="Path_8312" data-name="Path 8312" d="M368.58,314.93c39.18,5.52,43.93,30.22,38.73,49.35-1.46,3.94-7.49,7-16.95-13.95l9.95-.49L388,346.12l-4.51-8.27,9.57-1L380.12,334a180.637,180.637,0,0,0-11.54-19.07Z" fill="#00a099"/>
      <path id="Path_8313" data-name="Path 8313" d="M368.58,314.93c39.18,5.52,43.93,30.22,38.73,49.35-1.46,3.94-7.49,7-16.95-13.95l9.95-.49L388,346.12l-4.51-8.27,9.57-1L380.12,334a180.637,180.637,0,0,0-11.54-19.07Z" fill="#fff" opacity="0.2"/>
      <path id="Path_8314" data-name="Path 8314" d="M368.58,314.93c39.18,5.52,43.93,30.22,38.73,49.35-1.46,3.94-7.49,7-16.95-13.95l9.95-.49L388,346.12l-4.51-8.27,9.57-1L380.12,334a180.637,180.637,0,0,0-11.54-19.07Z" opacity="0.1"/>
      <path id="Path_8315" data-name="Path 8315" d="M380.16,319.26c22.16,11.33,26.95,28,24.6,46.72C403.93,350,403.22,333.85,380.16,319.26Z" fill="#fff"/>
      <path id="Path_8316" data-name="Path 8316" d="M447.37,324.19c-35.93.59-43,22.32-40.43,40.14.88,3.72,6,7.15,16.84-10.67l-8.91-1.56,11.55-2,5-6.95-8.52-2,11.95-1.17a164.688,164.688,0,0,1,12.52-15.79Z" fill="#00a099"/>
      <path id="Path_8317" data-name="Path 8317" d="M436.45,326.79c-21.24,7.74-27.43,22.23-27.4,39.36C411.59,351.85,414,337.37,436.45,326.79Z" fill="#fff"/>
      <path id="Path_8318" data-name="Path 8318" d="M447.37,324.19c-35.93.59-43,22.32-40.43,40.14.88,3.72,6,7.15,16.84-10.67l-8.91-1.56,11.55-2,5-6.95-8.52-2,11.95-1.17a164.688,164.688,0,0,1,12.52-15.79Z" fill="#fff" opacity="0.2"/>
    </g>
    <g id="freepik--Window--inject-35">
      <path id="Path_8319" data-name="Path 8319" d="M331.04,40.1l-6.34-3.62L324.3,175l.02.01,51.08,29.17.02-7.25.38-131.27Z" fill="#f0f0f0"/>
      <path id="Path_8320" data-name="Path 8320" d="M330.66,171.37l.38-131.27-6.34-3.62L324.3,175l.02.01,6.36-3.63Z" opacity="0.1"/>
      <path id="Path_8321" data-name="Path 8321" d="M375.42,196.93l-44.74-25.55-6.36,3.63,51.08,29.17Z" opacity="0.2"/>
      <path id="Path_8322" data-name="Path 8322" d="M400.94,80.01l-6.34-3.62-.4,138.52.02.01,51.08,29.17.02-7.25.38-131.27Z" fill="#f0f0f0"/>
      <path id="Path_8323" data-name="Path 8323" d="M400.56,211.28l.38-131.27-6.34-3.62-.4,138.52.02.01,6.36-3.63Z" opacity="0.1"/>
      <path id="Path_8324" data-name="Path 8324" d="M445.32,236.84l-44.74-25.55-6.36,3.63,51.08,29.17Z" opacity="0.2"/>
    </g>
    <g id="freepik--Character--inject-35">
      <path id="Path_8325" data-name="Path 8325" d="M197.56,256.76c10.1,7,21.48,11.87,29.92,21.28,15.75,17.56,16.12,45.82,3.75,65.91s-35.39,32.17-58.83,34.93c-24.59,2.9-50.39-3.9-69.68-19.42S71.16,319.7,71.17,294.94,83.86,245.53,104.6,232c18.92-12.34,46.1-15.86,65.08-1.74,9.6,7.14,16,17.67,25.57,24.83C196,255.67,196.78,256.22,197.56,256.76Z" fill="#00a099"/>
      <path id="Path_8326" data-name="Path 8326" d="M197.56,256.76c10.1,7,21.48,11.87,29.92,21.28,15.75,17.56,16.12,45.82,3.75,65.91s-35.39,32.17-58.83,34.93c-24.59,2.9-50.39-3.9-69.68-19.42S71.16,319.7,71.17,294.94,83.86,245.53,104.6,232c18.92-12.34,46.1-15.86,65.08-1.74,9.6,7.14,16,17.67,25.57,24.83C196,255.67,196.78,256.22,197.56,256.76Z" opacity="0.2"/>
      <path id="Path_8327" data-name="Path 8327" d="M197.56,256.76c10.1,7,21.48,11.87,29.92,21.28,15.75,17.56,16.12,45.82,3.75,65.91s-35.39,32.17-58.83,34.93c-24.59,2.9-50.39-3.9-69.68-19.42S71.16,319.7,71.17,294.94,83.86,245.53,104.6,232c18.92-12.34,46.1-15.86,65.08-1.74,9.6,7.14,16,17.67,25.57,24.83C196,255.67,196.78,256.22,197.56,256.76Z" fill="#fff" opacity="0.1"/>
      <path id="Path_8328" data-name="Path 8328" d="M84.37,291.55A72.27,72.27,0,0,1,146,221.39a52.806,52.806,0,0,1,7,1.17,70.45,70.45,0,0,0-66.7,69c-.46,23,10.81,46.53,30.14,62.83,15.15,12.77,35.28,21.24,57.4,24.28l-1.42.19q-3,.35-6,.51c-19.66-3.82-37.45-11.92-51.22-23.53C95.43,339.2,83.91,315.15,84.37,291.55Z" fill="#fff"/>
      <path id="Path_8329" data-name="Path 8329" d="M193.45,359.68a1.238,1.238,0,0,0-.07-.5A26.58,26.58,0,0,0,171.83,337a84.219,84.219,0,0,1-27.59-10.57c-6-3.65-11.73-8.12-18.5-10.1a30.17,30.17,0,0,0-19.93,1.16c5.68-6,15.43-8.6,23.22-5.9-5.39-8.25-10.14-17.14-12-26.82s-.54-20.31,5.3-28.25a28.43,28.43,0,0,1,43.88-2.35c5.78,6.33,9,15.23,12.83,22.91,2.73,5.52,5.55,11.16,10,15.37,6.78,6.34,16.53,8.63,23.57,14.7,8,6.88,11.41,17.88,11.45,28.42a83.909,83.909,0,0,1-3.09,21,80,80,0,0,1-28.84,17.63,31.18,31.18,0,0,0,1.32-14.52Z" opacity="0.1"/>
      <path id="Path_8330" data-name="Path 8330" d="M219.2,352a74.109,74.109,0,0,0-1.23,11.5l-2.73-1a7,7,0,0,0-7.58,1.73l-.13.14a2.76,2.76,0,0,1-3.8.17h0a2.74,2.74,0,0,1-.93-2l-.37-11.61Z" fill="#ffa8a7"/>
      <path id="Path_8331" data-name="Path 8331" d="M208.67,395.13c5.66,6.05,16.08,11.35,23.65,6.18l-.85,1.93c-7.57,5.16-18-.13-23.65-6.18s-2-10.25-7.08-15.62a18.63,18.63,0,0,1-4.41-6.55c.23-.57.45-1.33.71-2.19a23.34,23.34,0,0,0,4.55,6.81C206.68,384.88,203,389.07,208.67,395.13Z" fill="#f5f5f5"/>
      <path id="Path_8332" data-name="Path 8332" d="M199.83,366.37a10.91,10.91,0,0,0,1.78-4.13,2.41,2.41,0,0,1,1.12-1.68l.07,1.95a2.742,2.742,0,0,0,4.73,1.83l.13-.14a7,7,0,0,1,7.58-1.73L218,363.5a2.12,2.12,0,0,1,1.38,2c-.18,7.93,3.53,18.48,7.42,24.27,4,1.66,7.45,7.11,5.69,11.1l-.18.4c-7.57,5.17-18-.13-23.65-6.18s-2-10.25-7.08-15.62A23.339,23.339,0,0,1,197,372.7a25.179,25.179,0,0,1,2.83-6.33Z" fill="#00a099"/>
      <path id="Path_8333" data-name="Path 8333" d="M199.83,366.37a10.91,10.91,0,0,0,1.78-4.13,2.41,2.41,0,0,1,1.12-1.68l.07,1.95a2.742,2.742,0,0,0,4.73,1.83l.13-.14a7,7,0,0,1,7.58-1.73L218,363.5a2.12,2.12,0,0,1,1.38,2c-.18,7.93,3.53,18.48,7.42,24.27,4,1.66,7.45,7.11,5.69,11.1l-.18.4c-7.57,5.17-18-.13-23.65-6.18s-2-10.25-7.08-15.62A23.339,23.339,0,0,1,197,372.7a25.179,25.179,0,0,1,2.83-6.33Z" opacity="0.3"/>
      <path id="Path_8334" data-name="Path 8334" d="M199.83,366.37a10.91,10.91,0,0,0,1.78-4.13,2.41,2.41,0,0,1,1.12-1.68l.07,1.95a2.742,2.742,0,0,0,4.73,1.83l.13-.14a7,7,0,0,1,7.58-1.73L218,363.5a2.12,2.12,0,0,1,1.38,2c-.18,7.93,3.53,18.48,7.42,24.27,4,1.66,7.45,7.11,5.69,11.1l-.18.4c-7.57,5.17-18-.13-23.65-6.18s-2-10.25-7.08-15.62A23.339,23.339,0,0,1,197,372.7a25.179,25.179,0,0,1,2.83-6.33Z" fill="#fff" opacity="0.2"/>
      <path id="Path_8335" data-name="Path 8335" d="M210.91,377.83a.964.964,0,0,1-.89-1.71,11,11,0,0,1,10.87,0c.17.63.35,1.25.54,1.87A10.679,10.679,0,0,0,210.91,377.83Z" fill="#fff"/>
      <path id="Path_8336" data-name="Path 8336" d="M209.51,373.54a1,1,0,0,1-.89-1.72,11.64,11.64,0,0,1,11.32.09q.17,1,.39,1.95C217,372.12,213.7,371.42,209.51,373.54Z" fill="#fff"/>
      <path id="Path_8337" data-name="Path 8337" d="M212.44,382.1a.964.964,0,0,1-.89-1.71,11,11,0,0,1,10.64-.11q.36,1,.75,2A10.592,10.592,0,0,0,212.44,382.1Z" fill="#fff"/>
      <path id="Path_8338" data-name="Path 8338" d="M226.81,389.81c4,1.66,7.45,7.11,5.69,11.1l-.18.4c-7.46,5.09-17.67,0-23.39-5.92C213.7,386.05,223.66,388.38,226.81,389.81Z" fill="#fff"/>
      <path id="Path_8339" data-name="Path 8339" d="M214.11,386.27a1,1,0,0,1-.89-1.71,11,11,0,0,1,10.66-.1c.34.74.69,1.45,1,2.13C221.62,384.85,218.3,384.16,214.11,386.27Z" fill="#fff"/>
      <path id="Path_8340" data-name="Path 8340" d="M231.1,375.06c.71,4.17,3.51,11,3.51,11l-2.91.16a7.05,7.05,0,0,0-6.24,4.64l-.07.18a2.75,2.75,0,0,1-3.39,1.69h0a2.75,2.75,0,0,1-1.66-1.44l-5-10.47Z" fill="#ffa8a7"/>
      <path id="Path_8341" data-name="Path 8341" d="M238.88,418.79c7.62,3.25,19.29,3.89,24.13-3.89V417c-4.84,7.79-16.51,7.15-24.13,3.9s-6-8.58-12.79-11.44a18.619,18.619,0,0,1-6.67-4.21c0-.62-.13-1.39-.23-2.29a23.19,23.19,0,0,0,6.9,4.4C232.92,410.21,231.25,415.53,238.88,418.79Z" fill="#f5f5f5"/>
      <path id="Path_8342" data-name="Path 8342" d="M219.19,396a10.94,10.94,0,0,0,0-4.49,2.38,2.38,0,0,1,.34-2l.85,1.75a2.74,2.74,0,0,0,5-.25l.07-.18a7.05,7.05,0,0,1,6.24-4.64l3-.16a2.12,2.12,0,0,1,2.08,1.31c3,7.33,10.69,15.48,16.59,19.21,4.32-.1,9.68,3.5,9.68,7.86v.44c-4.84,7.78-16.51,7.14-24.13,3.89s-6-8.58-12.79-11.43a23.19,23.19,0,0,1-6.9-4.4,24.4,24.4,0,0,1-.03-6.91Z" fill="#00a099"/>
      <path id="Path_8343" data-name="Path 8343" d="M219.19,396a10.94,10.94,0,0,0,0-4.49,2.38,2.38,0,0,1,.34-2l.85,1.75a2.74,2.74,0,0,0,5-.25l.07-.18a7.05,7.05,0,0,1,6.24-4.64l3-.16a2.12,2.12,0,0,1,2.08,1.31c3,7.33,10.69,15.48,16.59,19.21,4.32-.1,9.68,3.5,9.68,7.86v.44c-4.84,7.78-16.51,7.14-24.13,3.89s-6-8.58-12.79-11.43a23.19,23.19,0,0,1-6.9-4.4,24.4,24.4,0,0,1-.03-6.91Z" opacity="0.3"/>
      <path id="Path_8344" data-name="Path 8344" d="M219.19,396a10.94,10.94,0,0,0,0-4.49,2.38,2.38,0,0,1,.34-2l.85,1.75a2.74,2.74,0,0,0,5-.25l.07-.18a7.05,7.05,0,0,1,6.24-4.64l3-.16a2.12,2.12,0,0,1,2.08,1.31c3,7.33,10.69,15.48,16.59,19.21,4.32-.1,9.68,3.5,9.68,7.86v.44c-4.84,7.78-16.51,7.14-24.13,3.89s-6-8.58-12.79-11.43a23.19,23.19,0,0,1-6.9-4.4,24.4,24.4,0,0,1-.03-6.91Z" fill="#fff" opacity="0.2"/>
      <path id="Path_8345" data-name="Path 8345" d="M233.94,402.06a1,1,0,0,1-1.5-1.21,11,11,0,0,1,9.95-4.37c.41.5.82,1,1.25,1.49A10.65,10.65,0,0,0,233.94,402.06Z" fill="#fff"/>
      <path id="Path_8346" data-name="Path 8346" d="M230.94,398.7a.971.971,0,0,1-1.51-1.22A11.62,11.62,0,0,1,239.82,393q.54.83,1.14,1.62C237.24,394.36,233.91,395.07,230.94,398.7Z" fill="#fff"/>
      <path id="Path_8347" data-name="Path 8347" d="M237.07,405.35a1,1,0,0,1-1.35.12.94.94,0,0,1-.16-1.33,11,11,0,0,1,9.69-4.39c.49.52,1,1,1.49,1.51a10.62,10.62,0,0,0-9.67,4.09Z" fill="#fff"/>
      <path id="Path_8348" data-name="Path 8348" d="M253.33,406.6c4.32-.1,9.68,3.5,9.68,7.86v.44c-4.77,7.67-16.16,7.16-23.78,4C239.81,408.45,249.87,406.57,253.33,406.6Z" fill="#fff"/>
      <path id="Path_8349" data-name="Path 8349" d="M240.28,408.49a1,1,0,0,1-1.51-1.21,11,11,0,0,1,9.72-4.39c.61.54,1.21,1.05,1.82,1.53C246.58,404.16,243.26,404.87,240.28,408.49Z" fill="#fff"/>
      <path id="Path_8350" data-name="Path 8350" d="M186.32,275.92l38.15,21.25a18.92,18.92,0,0,1,9.39,20L226.45,357l6.07,19.29c-5.24,7-17.26,7.39-17.26,7.39-6.71-13.46-11.64-19.18-15.45-30.45s-6.35-19.06-6.35-19.06l-31.68-8.66a37.52,37.52,0,0,1-27.46-31.94c-.54-4.79-.56-8.06-.56-8.06Z" fill="#455a64"/>
      <path id="Path_8351" data-name="Path 8351" d="M186,286.64a18.06,18.06,0,0,1-4.27,11.62l26.92,16.86a19.31,19.31,0,0,1,8.24,10.74L226.45,357l-8.59-34.7a15.73,15.73,0,0,0-7-9.6L186,297.35C188.54,291,186,286.64,186,286.64Z" opacity="0.2"/>
      <path id="Path_8352" data-name="Path 8352" d="M214.81,234.68l5.34,5.18c5.48-7,12.84-11.73,19.28-21.55,1.86-2.35,1.66-7,2.92-9.42,1-1.88,2.72-4.69,3.44-6.27a1.05,1.05,0,0,1,1.53-.46c1.84,1.33.87,4.51-.09,7.85-1.13,3.92,4.78-1.39,5.57-2.29,3.75-3.48,7-12,9.52-11.17s.53,5.1.53,5.1c2.35.5,1.46,4.25,1.46,4.25,1.4,2.45,1,6.24-1.85,9.75-2.08,2.56-7.69,6.06-10.6,7.78a9.58,9.58,0,0,0-3,2.87L230.5,253.53a11.12,11.12,0,0,1-15.88,2.7l-10-7.45Z" fill="#ffa8a7"/>
      <path id="Path_8353" data-name="Path 8353" d="M233.4,226c-3.37,4-9.32,6.51-13.11,12.86l-4.81-4.46c-7.76-7.76-21.54-24.24-31.69-23.79V233.8a220.654,220.654,0,0,0,20.88,16.32L216,258a10.71,10.71,0,0,0,15.24-3.27l12.87-21.3A11.83,11.83,0,0,1,233.4,226Z" fill="#00a099"/>
      <path id="Path_8354" data-name="Path 8354" d="M233.4,226c-3.37,4-9.32,6.51-13.11,12.86l-4.81-4.46c-7.76-7.76-21.54-24.24-31.69-23.79V233.8a220.654,220.654,0,0,0,20.88,16.32L216,258a10.71,10.71,0,0,0,15.24-3.27l12.87-21.3A11.83,11.83,0,0,1,233.4,226Z" fill="#fff" opacity="0.2"/>
      <path id="Path_8355" data-name="Path 8355" d="M133.15,288.5c6.76,6.5,39.27,7.7,55.86-8.09-1.59-11.15-1.06-23.09,0-34.9s8-32.47-5.22-34.87c-17.6-3.44-29.1-3.17-40.87,3.46C130.36,235,132.08,266.34,133.15,288.5Z" fill="#00a099"/>
      <path id="Path_8356" data-name="Path 8356" d="M133.15,288.5c6.76,6.5,39.27,7.7,55.86-8.09-1.59-11.15-1.06-23.09,0-34.9s8-32.47-5.22-34.87c-17.6-3.44-29.1-3.17-40.87,3.46C130.36,235,132.08,266.34,133.15,288.5Z" fill="#00a099"/>
      <path id="Path_8357" data-name="Path 8357" d="M133.15,288.5c6.76,6.5,39.27,7.7,55.86-8.09-1.59-11.15-1.06-23.09,0-34.9s8-32.47-5.22-34.87c-17.6-3.44-29.1-3.17-40.87,3.46C130.36,235,132.08,266.34,133.15,288.5Z" fill="#fff" opacity="0.4"/>
      <path id="Path_8358" data-name="Path 8358" d="M159.39,302.52a1.48,1.48,0,0,0,.05.51h0a1.2,1.2,0,0,0,.2.39v.05a2,2,0,0,0,.35.38h0a2.579,2.579,0,0,0,.51.37l27.92,16.23a5.227,5.227,0,0,0,.8.35l.31.09.41.1a3.857,3.857,0,0,0,.49.09h.12a5.317,5.317,0,0,0,.69,0h.1a5.077,5.077,0,0,0,.68,0h.1a4.636,4.636,0,0,0,.65-.11h.12a5.184,5.184,0,0,0,.56-.17h.1a5.072,5.072,0,0,0,.62-.29l46.06-26.6a3.78,3.78,0,0,0,.53-.37,1.8,1.8,0,0,1,.13-.14,2.914,2.914,0,0,0,.24-.27c0-.06.06-.12.09-.17a1.658,1.658,0,0,0,.13-.27,1.062,1.062,0,0,0,0-.19,2.17,2.17,0,0,0,0-.25v1.63a2.342,2.342,0,0,1,0,.26,1.292,1.292,0,0,1,0,.19,1.578,1.578,0,0,1-.13.26.911.911,0,0,1-.09.17,2,2,0,0,1-.24.27,1.779,1.779,0,0,1-.13.14,3.1,3.1,0,0,1-.53.37l-46.06,26.6a3.919,3.919,0,0,1-.62.29h-.1a5.212,5.212,0,0,1-.56.18h-.12c-.21.05-.43.09-.65.12h-1.69l-.49-.08-.41-.1-.31-.1a5.225,5.225,0,0,1-.8-.35l-27.87-16.2a2.549,2.549,0,0,1-.51-.36h0a2,2,0,0,1-.35-.38h0a1.45,1.45,0,0,1-.2-.39h0a1.541,1.541,0,0,1,0-.37h0v-1.77Z" fill="#e0e0e0"/>
      <path id="Path_8359" data-name="Path 8359" d="M159.39,302.52a1.48,1.48,0,0,0,.05.51h0a1.2,1.2,0,0,0,.2.39v.05a2,2,0,0,0,.35.38h0a2.579,2.579,0,0,0,.51.37l27.92,16.23a5.227,5.227,0,0,0,.8.35l.31.09.41.1a3.857,3.857,0,0,0,.49.09h.12a5.317,5.317,0,0,0,.69,0h.1a5.077,5.077,0,0,0,.68,0h.1a4.636,4.636,0,0,0,.65-.11h.12a5.184,5.184,0,0,0,.56-.17h.1a5.072,5.072,0,0,0,.62-.29l46.06-26.6a3.78,3.78,0,0,0,.53-.37,1.8,1.8,0,0,1,.13-.14,2.914,2.914,0,0,0,.24-.27c0-.06.06-.12.09-.17a1.658,1.658,0,0,0,.13-.27,1.062,1.062,0,0,0,0-.19,2.17,2.17,0,0,0,0-.25v1.63a2.342,2.342,0,0,1,0,.26,1.292,1.292,0,0,1,0,.19,1.578,1.578,0,0,1-.13.26.911.911,0,0,1-.09.17,2,2,0,0,1-.24.27,1.779,1.779,0,0,1-.13.14,3.1,3.1,0,0,1-.53.37l-46.06,26.6a3.919,3.919,0,0,1-.62.29h-.1a5.212,5.212,0,0,1-.56.18h-.12c-.21.05-.43.09-.65.12h-1.69l-.49-.08-.41-.1-.31-.1a5.225,5.225,0,0,1-.8-.35l-27.87-16.2a2.549,2.549,0,0,1-.51-.36h0a2,2,0,0,1-.35-.38h0a1.45,1.45,0,0,1-.2-.39h0a1.541,1.541,0,0,1,0-.37h0v-1.77Z" opacity="0.2"/>
      <path id="Path_8360" data-name="Path 8360" d="M241.4,292.68a1.657,1.657,0,0,1-.13.27c0,.05-.05.11-.09.17a2.915,2.915,0,0,1-.24.27,1.793,1.793,0,0,0-.13.14,3.778,3.778,0,0,1-.53.37l-46.06,26.6a5.071,5.071,0,0,1-.62.29h-.1a5.184,5.184,0,0,1-.56.17h-.12a4.635,4.635,0,0,1-.65.11h-.1a5.077,5.077,0,0,1-.68,0h-.1a5.317,5.317,0,0,1-.69,0h-.12A3.857,3.857,0,0,1,190,321l-.41-.1-.31-.09a5.228,5.228,0,0,1-.8-.35l-27.92-16.23a2.58,2.58,0,0,1-.51-.37h0a2,2,0,0,1-.35-.38v-.05a1.2,1.2,0,0,1-.2-.39,1.48,1.48,0,0,1-.05-.51,2.06,2.06,0,0,1,1.19-1.57l46.06-26.6a6.29,6.29,0,0,1,5.73,0l27.92,16.23a2,2,0,0,1,1.19,1.66,2.169,2.169,0,0,1,0,.25,1.058,1.058,0,0,1-.14.18Z" fill="#e0e0e0"/>
      <path id="Path_8361" data-name="Path 8361" d="M237.57,292.23l-44.75,25.84-.18.09h-.1a2.366,2.366,0,0,1-.35.1h-1.31l-.29-.05-.36-.1a1.2,1.2,0,0,1-.31-.13l-14.4-8.36L221.71,283Z" fill="#e0e0e0"/>
      <path id="Path_8362" data-name="Path 8362" d="M191.29,318.38Z" fill="#263238"/>
      <path id="Path_8363" data-name="Path 8363" d="M195,285.13l8.42,4.95a.85.85,0,0,1,0,1.47l-12.59,7.27a1.39,1.39,0,0,1-1.41,0L181,293.86a.85.85,0,0,1,0-1.47l12.58-7.27A1.39,1.39,0,0,1,195,285.13Z" fill="#e0e0e0"/>
      <path id="Path_8364" data-name="Path 8364" d="M237.57,292.23l-44.75,25.84-.18.09h-.1a2.366,2.366,0,0,1-.35.1h-1.31l-.29-.05-.36-.1a1.2,1.2,0,0,1-.31-.13l-14.4-8.36L221.71,283Z" opacity="0.4"/>
      <path id="Path_8365" data-name="Path 8365" d="M195,285.13l8.42,4.95a.85.85,0,0,1,0,1.47l-12.59,7.27a1.39,1.39,0,0,1-1.41,0L181,293.86a.85.85,0,0,1,0-1.47l12.58-7.27A1.39,1.39,0,0,1,195,285.13Z" opacity="0.4"/>
      <path id="Path_8366" data-name="Path 8366" d="M191.62,318.84l4.77-30.32a5.58,5.58,0,0,1,2.72-4l46.38-27a1.38,1.38,0,0,1,1.23-.08h0l1.1.55-.37.14a1.49,1.49,0,0,1,.12.82l-4.77,30.32a5.56,5.56,0,0,1-2.72,4l-46.38,27a1.248,1.248,0,0,1-.3.12v.45l-1.07-.53h0a1.38,1.38,0,0,1-.71-1.47Z" fill="#e0e0e0"/>
      <path id="Path_8367" data-name="Path 8367" d="M191.62,318.84l4.77-30.32a5.58,5.58,0,0,1,2.72-4l46.38-27a1.38,1.38,0,0,1,1.23-.08h0l1.1.55-.37.14a1.49,1.49,0,0,1,.12.82l-4.77,30.32a5.56,5.56,0,0,1-2.72,4l-46.38,27a1.248,1.248,0,0,1-.3.12v.45l-1.07-.53h0a1.38,1.38,0,0,1-.71-1.47Z" opacity="0.3"/>
      <path id="Path_8368" data-name="Path 8368" d="M200,285l46.38-27a1.4,1.4,0,0,1,2.09,1.42l-4.77,30.33a5.62,5.62,0,0,1-2.71,4l-46.39,27a1.4,1.4,0,0,1-2.08-1.43l4.8-30.32a5.59,5.59,0,0,1,2.68-4Z" fill="#e0e0e0"/>
      <path id="Path_8369" data-name="Path 8369" d="M222.52,285.8a10.22,10.22,0,0,0-4.6,6.63c-.31,2.37,1.26,3.24,3.5,1.95a10.27,10.27,0,0,0,4.61-6.63C226.33,285.38,224.76,284.51,222.52,285.8Z" fill="#fff"/>
      <path id="Path_8370" data-name="Path 8370" d="M145,251.58l-4.19,14.36,25.59,18.18,8.61,3.62a13.53,13.53,0,0,1,5.7,4.53l7,9.71c.79,1.63-2.87,4.28-4.63,4.73h0a6.29,6.29,0,0,1-5.81-1.45l-5.42-5-1.5-.52a22.78,22.78,0,0,1-10.88-8.17h0l-30-11.65a11.46,11.46,0,0,1-6.93-13.68l5-18.51Z" fill="#ffa8a7"/>
      <path id="Path_8371" data-name="Path 8371" d="M157.47,277.79l-16.69-11.85,3.9-11.41,7.42-22.18s.24-19.44-8-18.84-12.44,5.38-18.77,34.21l-3.76,17.21a14.26,14.26,0,0,0,9.31,16.52l21.24,7.29a10.72,10.72,0,0,1,5.35-10.95Z" fill="#00a099"/>
      <path id="Path_8372" data-name="Path 8372" d="M157.47,277.79l-16.69-11.85,3.9-11.41,7.42-22.18s.24-19.44-8-18.84-12.44,5.38-18.77,34.21l-3.76,17.21a14.26,14.26,0,0,0,9.31,16.52l21.24,7.29a10.72,10.72,0,0,1,5.35-10.95Z" fill="#fff" opacity="0.2"/>
      <path id="Path_8373" data-name="Path 8373" d="M161.15,203c-2.44-4.53-4.56-9.23-7-13.76-1.59-2.95-3.23-6-3.32-9.38A11,11,0,0,1,156,170.4c1.19-6,6.05-11.18,12.1-12,3.78-.49,7.57.5,11.37.85s8-.13,10.66-2.88a6.69,6.69,0,0,1,1.3,4,6.47,6.47,0,0,1-1.25,3.92,4.85,4.85,0,0,1,3.43.25,2.88,2.88,0,0,1,1,2.95,6,6,0,0,1-1.63,2.84,4.67,4.67,0,0,1,2.46,4.15,6.31,6.31,0,0,1-2.28,4.29c-2.43,2.08-5.82,2.49-9,2.81L168,183.21Z" fill="#37474f"/>
      <path id="Path_8374" data-name="Path 8374" d="M177.47,223.07h0a11.72,11.72,0,0,0,0-9.09V201.82L161.42,193l-.36,13.49C164,215,174.37,218.56,177.47,223.07Z" fill="#ffa8a7"/>
      <path id="Path_8375" data-name="Path 8375" d="M169.21,205.73c2.68,1.29,6,2.6,8.26,3.44v-7.35L161.42,193C161.55,201,164.76,203.58,169.21,205.73Z" opacity="0.2"/>
      <path id="Path_8376" data-name="Path 8376" d="M157.7,212.41c.45,3.71,3.53,9,10,14.33,0,0,2.4-5.57,5.47-6a38.29,38.29,0,0,1,4.31,2.29c-3.1-4.51-13.49-8-16.41-16.61C160,207.5,159,210,157.7,212.41Z" fill="#00a099"/>
      <path id="Path_8377" data-name="Path 8377" d="M177.47,223.07a11.72,11.72,0,0,0,0-9.09v-4.81c2.93,3,6.83,7.55,7.79,12.41-1.56-1.41-3.87-4.59-4.75-2.82C179.43,222.18,177.47,223.07,177.47,223.07Z" fill="#00a099"/>
      <path id="Path_8378" data-name="Path 8378" d="M157.7,212.41c.45,3.71,3.53,9,10,14.33,0,0,2.4-5.57,5.47-6a38.29,38.29,0,0,1,4.31,2.29c-3.1-4.51-13.49-8-16.41-16.61C160,207.5,159,210,157.7,212.41Z" fill="#fff" opacity="0.2"/>
      <path id="Path_8379" data-name="Path 8379" d="M177.47,223.07a11.72,11.72,0,0,0,0-9.09v-4.81c2.93,3,6.83,7.55,7.79,12.41-1.56-1.41-3.87-4.59-4.75-2.82C179.43,222.18,177.47,223.07,177.47,223.07Z" fill="#fff" opacity="0.2"/>
      <path id="Path_8380" data-name="Path 8380" d="M191.48,170.75a142.549,142.549,0,0,1-.77,28.1A8.16,8.16,0,0,1,181.4,206a107.81,107.81,0,0,1-11.62-2.52,10.94,10.94,0,0,1-7.77-8l-.59-2.46c-1.25,1.88-4,2.29-6.07,1.42a6.78,6.78,0,0,1-3.85-5.23,6.23,6.23,0,0,1,.29-3.31,4.32,4.32,0,0,1,2.22-2.4,4.84,4.84,0,0,1,5.35,1.52,10.43,10.43,0,0,1,2.16,5.46,16.86,16.86,0,0,0,4.22-12.14,6,6,0,0,0,3.88-2,5.31,5.31,0,0,0,1-4C176.94,175.53,185.59,174.67,191.48,170.75Z" fill="#ffa8a7"/>
      <path id="Path_8381" data-name="Path 8381" d="M180.28,184.17l5.57,6.75-5.11,1.81Z" fill="#f28f8f"/>
      <path id="Path_8382" data-name="Path 8382" d="M176.06,196.08l4.3,1.32a2.64,2.64,0,0,1-2.9,1.33,2.38,2.38,0,0,1-1.4-2.65Z" fill="#f28f8f"/>
      <path id="Path_8383" data-name="Path 8383" d="M176.06,196.08l4.3,1.32a2.64,2.64,0,0,1-2.9,1.33,2.38,2.38,0,0,1-1.4-2.65Z" opacity="0.3"/>
      <path id="Path_8384" data-name="Path 8384" d="M178.87,198.65a2.36,2.36,0,0,1-1.41.08,2.14,2.14,0,0,1-1.39-1.94,2.54,2.54,0,0,1,1.66.31,2.5,2.5,0,0,1,1.14,1.55Z" fill="#f28f8f"/>
      <path id="Path_8385" data-name="Path 8385" d="M172.7,185.65a1.52,1.52,0,1,0,.384-1.105A1.53,1.53,0,0,0,172.7,185.65Z" fill="#263238"/>
      <path id="Path_8386" data-name="Path 8386" d="M185.5,184.47a1.53,1.53,0,1,0,1.45-1.61A1.53,1.53,0,0,0,185.5,184.47Z" fill="#263238"/>
      <path id="Path_8387" data-name="Path 8387" d="M186.66,178.31l3.51,2.16a2.15,2.15,0,0,0-.79-2.36,2.56,2.56,0,0,0-2.72.2Z" fill="#263238"/>
      <path id="Path_8388" data-name="Path 8388" d="M173.57,178.83l-3.26,2.52a2.17,2.17,0,0,1,.53-2.43,2.58,2.58,0,0,1,2.73-.09Z" fill="#263238"/>
    </g>
    <g id="freepik--Progress--inject-35">
      <path id="Path_8389" data-name="Path 8389" d="M326.28,222.19c1.26-.73,2.29-.15,2.29,1.3v8.09a5,5,0,0,1-2.27,3.94l-70.57,40.74c-1.26.73-2.29.15-2.29-1.3v-8.09a5,5,0,0,1,2.27-3.94Z" fill="#00a099"/>
      <g id="Group_68657" data-name="Group 68657" opacity="0.3">
        <path id="Path_8390" data-name="Path 8390" d="M326.28,222.19c1.26-.73,2.29-.15,2.29,1.3v8.09a5,5,0,0,1-2.27,3.94l-70.57,40.74c-1.26.73-2.29.15-2.29-1.3v-8.09a5,5,0,0,1,2.27-3.94Z"/>
      </g>
      <g id="Group_68658" data-name="Group 68658" opacity="0.2">
        <path id="Path_8391" data-name="Path 8391" d="M326.28,222.19c1.26-.73,2.29-.15,2.29,1.3v8.09a5,5,0,0,1-2.27,3.94l-70.57,40.74c-1.26.73-2.29.15-2.29-1.3v-8.09a5,5,0,0,1,2.27-3.94Z" fill="#fff"/>
      </g>
      <path id="Path_8392" data-name="Path 8392" d="M327.74,237c.47-.27.84-.05.84.48v3a1.84,1.84,0,0,1-.83,1.44l-73.48,42.67c-.46.27-.84.06-.84-.48v-3a1.83,1.83,0,0,1,.83-1.45Z" fill="#00a099"/>
      <g id="Group_68659" data-name="Group 68659" opacity="0.3">
        <path id="Path_8393" data-name="Path 8393" d="M327.74,237c.47-.27.84-.05.84.48v3a1.84,1.84,0,0,1-.83,1.44l-73.48,42.67c-.46.27-.84.06-.84-.48v-3a1.83,1.83,0,0,1,.83-1.45Z" fill="#fff"/>
      </g>
      <path id="Path_8394" data-name="Path 8394" d="M327.74,244.16c.47-.27.84-.06.84.48v3a1.86,1.86,0,0,1-.83,1.45l-73.48,42.67a.52.52,0,0,1-.84-.48v-3a1.82,1.82,0,0,1,.83-1.44Z" fill="#00a099"/>
      <g id="Group_68660" data-name="Group 68660" opacity="0.3">
        <path id="Path_8395" data-name="Path 8395" d="M327.74,244.16c.47-.27.84-.06.84.48v3a1.86,1.86,0,0,1-.83,1.45l-73.48,42.67a.52.52,0,0,1-.84-.48v-3a1.82,1.82,0,0,1,.83-1.44Z" fill="#fff"/>
      </g>
      <path id="Path_8423" data-name="Path 8423" d="M283.01,249.91l.02,7.34-1.81,1.04-.02-5.73-1.18.68-.01-1.6Z" fill="#fff"/>
      <path id="Path_8424" data-name="Path 8424" d="M286.79,247.59c1.62-.94,2.81-.23,2.81,2.19a6.23,6.23,0,0,1-2.79,5.44c-1.63.94-2.83.23-2.83-2.19a6.23,6.23,0,0,1,2.81-5.44Zm0,5.93c.58-.33,1-1.15,1-2.69s-.42-1.88-1-1.55-1,1.16-1,2.7.42,1.87,1,1.54" fill="#fff"/>
      <path id="Path_8425" data-name="Path 8425" d="M293,244c1.63-.95,2.82-.24,2.82,2.19a6.22,6.22,0,0,1-2.8,5.44c-1.63.94-2.82.23-2.83-2.19A6.24,6.24,0,0,1,293,244Zm0,5.93c.58-.33,1-1.15,1-2.7s-.43-1.87-1-1.53-1,1.15-1,2.69.42,1.87,1,1.54" fill="#fff"/>
      <path id="Path_8426" data-name="Path 8426" d="M299.65,242.25a3.49,3.49,0,0,1-1.64,3c-.94.54-1.63.18-1.64-1.09a3.49,3.49,0,0,1,1.63-3C299,240.61,299.64,241,299.65,242.25Zm-2.18,1.26c0,.74.25.89.53.73a1.45,1.45,0,0,0,.54-1.35c0-.75-.23-.91-.54-.73a1.48,1.48,0,0,0-.53,1.35" fill="#fff"/>
      <path id="Path_8427" data-name="Path 8427" d="M301.78,239.07l1.31-.76-4.34,9.86-1.31.76Z" fill="#fff"/>
      <path id="Path_8428" data-name="Path 8428" d="M302.52,242c.94-.55,1.64-.19,1.65,1.09a3.51,3.51,0,0,1-1.64,3c-.95.54-1.64.18-1.64-1.09a3.46,3.46,0,0,1,1.63-3Zm0,3.07c.3-.17.53-.6.53-1.34s-.24-.91-.54-.73a1.46,1.46,0,0,0-.54,1.35c0,.74.25.9.55.72" fill="#fff"/>
    </g>
    <g id="freepik--speech-bubble--inject-35">
      <path id="Path_8429" data-name="Path 8429" d="M195.06,85.7l-28.79,16.51a5.67,5.67,0,0,0-2.82,4.87v21a5.55,5.55,0,0,0,8.49,4.57l5-2.86.45.73.07.07h0c.82.55,2.27,1.32,2.6,1.49h0a.31.31,0,0,0,.38-.19l1.84-5.22h0l18.37-10.5a5.62,5.62,0,0,0,2.83-4.88v-21C203.54,86.21,197.58,84.25,195.06,85.7Z" fill="#00a099"/>
      <path id="Path_8430" data-name="Path 8430" d="M171.28,105.62Z" fill="none"/>
      <path id="Path_8431" data-name="Path 8431" d="M177.39,130.47l.07.07h0c.82.55,2.27,1.32,2.6,1.49h0a.29.29,0,0,1-.18-.13l-1.73-2.9.36-.2h0l-1.57.9Z" fill="#fff" opacity="0.2"/>
      <path id="Path_8432" data-name="Path 8432" d="M169.77,107.51a5.71,5.71,0,0,1,1.5-1.89h0a4.81,4.81,0,0,1,.68-.47l28.78-16.51a1.87,1.87,0,0,1,2.8,1.62c0-4.05-6-6-8.48-4.56l-28.79,16.51a5.6,5.6,0,0,0-2.09,2.12Z" fill="#fff" opacity="0.4"/>
      <path id="Path_8433" data-name="Path 8433" d="M169.13,131V110a4.915,4.915,0,0,1,.05-.67,5.719,5.719,0,0,1,.59-1.85l-5.59-3.18a5.57,5.57,0,0,0-.73,2.75v21a5.55,5.55,0,0,0,8.49,4.57,1.88,1.88,0,0,1-2.81-1.62Z" fill="#fff" opacity="0.2"/>
      <path id="Path_8434" data-name="Path 8434" d="M196.54,96.22a1.18,1.18,0,0,1,1.16-.12c.65.37.65,1.57,0,2.68l-12.55,21.74a3.42,3.42,0,0,1-1.16,1.22,1.18,1.18,0,0,1-1.17.12l-5.52-3.14c-.64-.37-.65-1.56,0-2.67a3.28,3.28,0,0,1,1.15-1.23,1.2,1.2,0,0,1,1.17-.12l4.35,2.49,11.4-19.75a3.42,3.42,0,0,1,1.17-1.22Z" fill="#fff"/>
    </g>
    <g id="freepik--Folder--inject-35">
      <path id="Path_8435" data-name="Path 8435" d="M284.78,66.92a146.532,146.532,0,0,0,21.57,15c1.48.85,3,1.69,4.49,2.5l.49.27c4.29,2.48,6.31,6,5,9.47a8,8,0,0,0-.46,4c.46,3.18,2.83,6.09,6.73,8.34l-5.74,3.37a14.72,14.72,0,0,1-13.19,0,42.28,42.28,0,0,0,8.7-4c-.57.25-1.16.49-1.75.73a17.19,17.19,0,0,1-13.69-.82c-.18-.1-.35-.21-.51-.32a76.05,76.05,0,0,0,11.66-3.71c-5.92,2.22-13.51,1.59-18.31-1.18a11.67,11.67,0,0,1-1.35-.89c-1-.74-1.82-1.4-2.3-1.8a78.66,78.66,0,0,0,15.43-.41h-.2a37.51,37.51,0,0,1-17.86-4.46c-3.63-2.1-6.25-4.8-7.37-7.85l-.15-.45a80.36,80.36,0,0,0,22.56,7.16,97.451,97.451,0,0,1-16-6.6q-.33-.16-.66-.36c-5.13-3-6.84-7.41-4.33-11.37A83.82,83.82,0,0,0,287,79.91a111,111,0,0,0,13.71,6.61c-1.37-.71-2.71-1.43-4-2.18a75.269,75.269,0,0,1-13.45-9.79C280.6,72.1,281.23,68.93,284.78,66.92Z" fill="#00a099"/>
      <g id="Group_68663" data-name="Group 68663" opacity="0.2">
        <path id="Path_8436" data-name="Path 8436" d="M284.78,66.92a146.532,146.532,0,0,0,21.57,15c1.48.85,3,1.69,4.49,2.5l.49.27c4.29,2.48,6.31,6,5,9.47a8,8,0,0,0-.46,4c.46,3.18,2.83,6.09,6.73,8.34l-5.74,3.37a14.72,14.72,0,0,1-13.19,0,42.28,42.28,0,0,0,8.7-4c-.57.25-1.16.49-1.75.73a17.19,17.19,0,0,1-13.69-.82c-.18-.1-.35-.21-.51-.32a76.05,76.05,0,0,0,11.66-3.71c-5.92,2.22-13.51,1.59-18.31-1.18a11.67,11.67,0,0,1-1.35-.89c-1-.74-1.82-1.4-2.3-1.8a78.66,78.66,0,0,0,15.43-.41h-.2a37.51,37.51,0,0,1-17.86-4.46c-3.63-2.1-6.25-4.8-7.37-7.85l-.15-.45a80.36,80.36,0,0,0,22.56,7.16,97.451,97.451,0,0,1-16-6.6q-.33-.16-.66-.36c-5.13-3-6.84-7.41-4.33-11.37A83.82,83.82,0,0,0,287,79.91a111,111,0,0,0,13.71,6.61c-1.37-.71-2.71-1.43-4-2.18a75.269,75.269,0,0,1-13.45-9.79C280.6,72.1,281.23,68.93,284.78,66.92Z"/>
      </g>
      <g id="Group_68664" data-name="Group 68664" opacity="0.4">
        <path id="Path_8437" data-name="Path 8437" d="M284.78,66.92a146.532,146.532,0,0,0,21.57,15c1.48.85,3,1.69,4.49,2.5l.49.27c4.29,2.48,6.31,6,5,9.47a8,8,0,0,0-.46,4c.46,3.18,2.83,6.09,6.73,8.34l-5.74,3.37a14.72,14.72,0,0,1-13.19,0,42.28,42.28,0,0,0,8.7-4c-.57.25-1.16.49-1.75.73a17.19,17.19,0,0,1-13.69-.82c-.18-.1-.35-.21-.51-.32a76.05,76.05,0,0,0,11.66-3.71c-5.92,2.22-13.51,1.59-18.31-1.18a11.67,11.67,0,0,1-1.35-.89c-1-.74-1.82-1.4-2.3-1.8a78.66,78.66,0,0,0,15.43-.41h-.2a37.51,37.51,0,0,1-17.86-4.46c-3.63-2.1-6.25-4.8-7.37-7.85l-.15-.45a80.36,80.36,0,0,0,22.56,7.16,97.451,97.451,0,0,1-16-6.6q-.33-.16-.66-.36c-5.13-3-6.84-7.41-4.33-11.37A83.82,83.82,0,0,0,287,79.91a111,111,0,0,0,13.71,6.61c-1.37-.71-2.71-1.43-4-2.18a75.269,75.269,0,0,1-13.45-9.79C280.6,72.1,281.23,68.93,284.78,66.92Z" fill="#fff"/>
      </g>
      <path id="Path_8438" data-name="Path 8438" d="M327.92,98.08V96.42A2.12,2.12,0,0,1,329,94.59L343.85,86a1.05,1.05,0,0,1,1.58.91v35.27l-38.08,22v-33l19.51-11.27a2.11,2.11,0,0,0,1.06-1.83Z" fill="#455a64"/>
      <path id="Path_8439" data-name="Path 8439" d="M327.92,98.08V96.42A2.12,2.12,0,0,1,329,94.59L343.85,86a1.05,1.05,0,0,1,1.58.91v35.27l-38.08,22v-33l19.51-11.27a2.11,2.11,0,0,0,1.06-1.83Z" opacity="0.2"/>
      <path id="Path_8440" data-name="Path 8440" d="M327.92,98.08V96.42A2.12,2.12,0,0,1,329,94.59L343.85,86a1.05,1.05,0,0,1,1.58.91v35.27l-38.08,22v-33l19.51-11.27a2.11,2.11,0,0,0,1.06-1.83Z" fill="#fff" opacity="0.1"/>
      <path id="Path_8441" data-name="Path 8441" d="M307.35,144.69l2.82-31.13,38.08-22.52-2.82,31.13Z" fill="#455a64"/>
      <path id="Path_8442" data-name="Path 8442" d="M307.35,144.69l2.82-31.13,38.08-22.52-2.82,31.13Z" fill="#fff" opacity="0.6"/>
      <path id="Path_8443" data-name="Path 8443" d="M345.43,122.17l5.65-29.58L312.99,114.2l-5.64,29.96Z" fill="#455a64"/>
      <path id="Path_8444" data-name="Path 8444" d="M345.43,122.17l5.65-29.58L312.99,114.2l-5.64,29.96Z" opacity="0.2"/>
      <path id="Path_8445" data-name="Path 8445" d="M345.43,122.17l5.65-29.58L312.99,114.2l-5.64,29.96Z" fill="#fff" opacity="0.2"/>
      <path id="Path_8446" data-name="Path 8446" d="M404,135.68c-3.53,2.1-9,2.47-13.23,1a105.7,105.7,0,0,1-16.95-7.76q-1.95-1.14-3.78-2.32a84.732,84.732,0,0,0,11.46,7.92,91.387,91.387,0,0,0,11.09,5.42c-7,1.49-14.65.52-19.79-2.45l-.62-.38a60.14,60.14,0,0,1-11.45-9.25,35.841,35.841,0,0,0,12.45,13l-.78-.08a36.25,36.25,0,0,1-13.57-4.24c-4.66-2.69-7.58-6.34-7.77-10.33v-.12a15.63,15.63,0,0,0-.65,8.94c-.7-.28-1.83-.76-3.12-1.32a17,17,0,0,1-1.54-.78c-4.8-2.77-5.9-7.17-2.18-10.54a30.35,30.35,0,0,0-6.22,6.73,6.517,6.517,0,0,1-.61-.33c-3.64-2.1-4.33-5.42-1.46-7.92.4-.35.81-.68,1.24-1a29.76,29.76,0,0,0-6.9,5.06c-3.59-2.11-3.58-5.55,0-7.64l5.77-3.36a32.15,32.15,0,0,0,14.44,3.89,40.3,40.3,0,0,0,6.87-.28,27,27,0,0,1,16.35,2.88c.16.09.32.18.47.28q2.13,1.32,4.33,2.59A187,187,0,0,0,404,135.68Z" fill="#00a099"/>
      <g id="Group_68665" data-name="Group 68665" opacity="0.2">
        <path id="Path_8447" data-name="Path 8447" d="M404,135.68c-3.53,2.1-9,2.47-13.23,1a105.7,105.7,0,0,1-16.95-7.76q-1.95-1.14-3.78-2.32a84.732,84.732,0,0,0,11.46,7.92,91.387,91.387,0,0,0,11.09,5.42c-7,1.49-14.65.52-19.79-2.45l-.62-.38a60.14,60.14,0,0,1-11.45-9.25,35.841,35.841,0,0,0,12.45,13l-.78-.08a36.25,36.25,0,0,1-13.57-4.24c-4.66-2.69-7.58-6.34-7.77-10.33v-.12a15.63,15.63,0,0,0-.65,8.94c-.7-.28-1.83-.76-3.12-1.32a17,17,0,0,1-1.54-.78c-4.8-2.77-5.9-7.17-2.18-10.54a30.35,30.35,0,0,0-6.22,6.73,6.517,6.517,0,0,1-.61-.33c-3.64-2.1-4.33-5.42-1.46-7.92.4-.35.81-.68,1.24-1a29.76,29.76,0,0,0-6.9,5.06c-3.59-2.11-3.58-5.55,0-7.64l5.77-3.36a32.15,32.15,0,0,0,14.44,3.89,40.3,40.3,0,0,0,6.87-.28,27,27,0,0,1,16.35,2.88c.16.09.32.18.47.28q2.13,1.32,4.33,2.59A187,187,0,0,0,404,135.68Z"/>
      </g>
      <g id="Group_68666" data-name="Group 68666" opacity="0.4">
        <path id="Path_8448" data-name="Path 8448" d="M404,135.68c-3.53,2.1-9,2.47-13.23,1a105.7,105.7,0,0,1-16.95-7.76q-1.95-1.14-3.78-2.32a84.732,84.732,0,0,0,11.46,7.92,91.387,91.387,0,0,0,11.09,5.42c-7,1.49-14.65.52-19.79-2.45l-.62-.38a60.14,60.14,0,0,1-11.45-9.25,35.841,35.841,0,0,0,12.45,13l-.78-.08a36.25,36.25,0,0,1-13.57-4.24c-4.66-2.69-7.58-6.34-7.77-10.33v-.12a15.63,15.63,0,0,0-.65,8.94c-.7-.28-1.83-.76-3.12-1.32a17,17,0,0,1-1.54-.78c-4.8-2.77-5.9-7.17-2.18-10.54a30.35,30.35,0,0,0-6.22,6.73,6.517,6.517,0,0,1-.61-.33c-3.64-2.1-4.33-5.42-1.46-7.92.4-.35.81-.68,1.24-1a29.76,29.76,0,0,0-6.9,5.06c-3.59-2.11-3.58-5.55,0-7.64l5.77-3.36a32.15,32.15,0,0,0,14.44,3.89,40.3,40.3,0,0,0,6.87-.28,27,27,0,0,1,16.35,2.88c.16.09.32.18.47.28q2.13,1.32,4.33,2.59A187,187,0,0,0,404,135.68Z" fill="#fff"/>
      </g>
      <path id="Path_8449" data-name="Path 8449" d="M302.23,132.47a1,1,0,0,1-.5-1.86l1.72-1a1,1,0,0,1,1,1.72l-1.72,1a.94.94,0,0,1-.5.14Z" fill="#e0e0e0"/>
      <path id="Path_8450" data-name="Path 8450" d="M226.73,255.29h0a1,1,0,0,1-1-1c0-1.37.06-2.73.12-4.1a1,1,0,0,1,2,.08c-.06,1.35-.09,2.71-.12,4.06a1,1,0,0,1-1,.96Zm.5-10.19h-.09a1,1,0,0,1-.9-1.09c.12-1.4.27-2.78.44-4.1a1.008,1.008,0,0,1,2,.26c-.17,1.29-.32,2.64-.44,4a1,1,0,0,1-1.01.93ZM228.7,235a.76.76,0,0,1-.21,0,1,1,0,0,1-.77-1.18c.3-1.37.63-2.72,1-4a1,1,0,1,1,1.92.55c-.35,1.26-.68,2.57-1,3.9a1,1,0,0,1-.94.73Zm3-9.76a.991.991,0,0,1-.93-1.37c.53-1.3,1.11-2.58,1.72-3.8a1,1,0,1,1,1.79.91c-.59,1.16-1.15,2.39-1.65,3.64a1,1,0,0,1-.97.63Zm4.82-9a1,1,0,0,1-.82-1.57,38.771,38.771,0,0,1,2.58-3.3,1,1,0,1,1,1.51,1.32,36.384,36.384,0,0,0-2.45,3.13,1,1,0,0,1-.86.46Zm6.89-7.49a1,1,0,0,1-.66-1.76c1-.89,2.09-1.76,3.15-2.63a1,1,0,1,1,1.27,1.54c-1,.86-2.09,1.72-3.11,2.6a1,1,0,0,1-.69.29Zm7.79-6.59a1,1,0,0,1-.68-1.74,36.412,36.412,0,0,0,2.78-2.83,1,1,0,1,1,1.51,1.31,38.6,38.6,0,0,1-2.93,3,1,1,0,0,1-.72.3Zm6.2-8a1,1,0,0,1-.91-1.42c.15-.32.28-.64.41-1a17.281,17.281,0,0,0,.77-2.69,1.021,1.021,0,1,1,2,.41,20.082,20.082,0,0,1-.86,3c-.14.37-.29.73-.46,1.09a1,1,0,0,1-.99.64Zm1.9-10h0a1,1,0,0,1-1-1l.06-2c0-.71,0-1.42.07-2.12a1,1,0,1,1,2,.08c0,.7-.05,1.4-.07,2.1l-.06,2a1,1,0,0,1-1.04,1.01Zm.79-10.16h-.19a1,1,0,0,1-.79-1.17,32.932,32.932,0,0,1,1.06-4.07,1,1,0,1,1,1.9.62,33.22,33.22,0,0,0-1,3.83,1,1,0,0,1-1.02.86Zm3.41-9.58a.92.92,0,0,1-.46-.11,1,1,0,0,1-.43-1.35c.63-1.21,1.35-2.42,2.12-3.6a1,1,0,0,1,1.67,1.09,36.486,36.486,0,0,0-2,3.44,1,1,0,0,1-.94.6Zm5.74-8.41a1,1,0,0,1-.76-1.65c.88-1,1.83-2.05,2.81-3.06a1,1,0,1,1,1.43,1.41c-.95,1-1.87,2-2.72,2.95a1,1,0,0,1-.8.42Zm7.27-7.16a1,1,0,0,1-.65-1.76c1-.87,2.12-1.74,3.23-2.58a1,1,0,0,1,1.21,1.59c-1.08.82-2.14,1.67-3.15,2.52a1,1,0,0,1-.68.3Zm8.19-6.07a1,1,0,0,1-.54-1.84c1.13-.74,2.3-1.48,3.49-2.19a1,1,0,1,1,1,1.71c-1.16.7-2.32,1.42-3.43,2.15a1,1,0,0,1-.56.24Zm8.75-5.25a1,1,0,0,1-.5-1.87l3.53-2a1,1,0,1,1,1,1.73l-3.54,2a.9.9,0,0,1-.53.21Z" fill="#e0e0e0"/>
      <path id="Path_8451" data-name="Path 8451" d="M226.66,263.46h0a1,1,0,0,1-1-1v-2a1,1,0,0,1,2,0v2A1,1,0,0,1,226.66,263.46Z" fill="#e0e0e0"/>
    </g>
  </g>
</svg>
