<svg xmlns="http://www.w3.org/2000/svg" width="17.784" height="18.97" viewBox="0 0 17.784 18.97">
  <g id="Group_68682" data-name="Group 68682" transform="translate(-16)">
    <g id="Group_68679" data-name="Group 68679" transform="translate(20.15)">
      <g id="Group_68678" data-name="Group 68678">
        <path id="Path_8559" data-name="Path 8559" d="M137.43,8.647a.591.591,0,0,0-.539-.347h-2.371V.593A.593.593,0,0,0,133.926,0h-2.371a.593.593,0,0,0-.593.593V8.3h-2.371a.593.593,0,0,0-.446.983l4.15,4.742a.591.591,0,0,0,.892,0l4.15-4.742A.591.591,0,0,0,137.43,8.647Z" transform="translate(-127.998)" fill="#fff"/>
      </g>
    </g>
    <g id="Group_68681" data-name="Group 68681" transform="translate(16 13.042)">
      <g id="Group_68680" data-name="Group 68680">
        <path id="Path_8560" data-name="Path 8560" d="M31.413,352v3.557H18.371V352H16v4.742a1.185,1.185,0,0,0,1.186,1.186H32.6a1.185,1.185,0,0,0,1.186-1.186V352Z" transform="translate(-16 -352)" fill="#fff"/>
      </g>
    </g>
  </g>
</svg>
