<svg xmlns="http://www.w3.org/2000/svg" width="101" height="101" viewBox="0 0 101 101">
  <g id="Group_68633" data-name="Group 68633" transform="translate(-80 -24)">
    <circle id="Ellipse_3457" data-name="Ellipse 3457" cx="50.5" cy="50.5" r="50.5" transform="translate(80 24)" fill="#fff"/>
    <g id="Group_68633-2" data-name="Group 68633" transform="translate(107 50.977)">
      <g id="Group_68632" data-name="Group 68632" transform="translate(0 0.024)">
        <g id="Group_68631" data-name="Group 68631" transform="translate(0 0)">
          <path id="Path_8210" data-name="Path 8210" d="M45.345,29.149a4.793,4.793,0,0,0-2.309-3.809c-1.058-.648-1.915-.749-5.968-1.758v-.212h4.045a1.8,1.8,0,0,0,1.793-1.77c.511-8.659.588-9.651.553-10.06a.687.687,0,1,0-1.375,0v.652c-.577,9.779-.553,9.346-.553,9.385a.424.424,0,0,1-.418.418H37.069v-.178a7.823,7.823,0,0,0,3.058-2.805c1.321-2.132,1.137-3.934,1.14-5.679a1.29,1.29,0,0,0-1.242-1.295h0a10.992,10.992,0,0,1-8.395-3.966,1.146,1.146,0,0,0-1.763-.06A5.241,5.241,0,0,1,26.96,9.718a1.209,1.209,0,0,0-.979,1.186c0,4.321-.005,4.083.006,4.387A7.66,7.66,0,0,0,30.151,21.8V22h-4.1a.423.423,0,0,1-.418-.418c0-.04.023.376-.554-9.406,0-.013,0-.025,0-.038-.008-.071-.768-7.153,3.209-8.027a.687.687,0,0,0,.464-.357c.017-.032,1.712-3.2,7.183-2.133a8.623,8.623,0,0,1,6.048,6.824.687.687,0,1,0,1.358-.218,9.851,9.851,0,0,0-2.525-5.164l-.049-.052A10.07,10.07,0,0,0,36.191.267a9.372,9.372,0,0,0-6.725.9A6.008,6.008,0,0,0,27.7,2.837c-2.029.576-3.357,2.385-3.852,5.253a16.5,16.5,0,0,0-.14,4.181c.644,9.944.423,9.572.8,10.209a6.372,6.372,0,0,0-5.449,1.669l-.6-.15-1.672-.8V21.8a7.593,7.593,0,0,0,3.983-5.131A7.781,7.781,0,0,0,20.946,15v-.007a2.593,2.593,0,0,0,2.164-2.426,2.264,2.264,0,0,0-.433-1.322,14.555,14.555,0,0,0-.325-4.3,9.353,9.353,0,0,0-1.863-3.566l-.007-.008A9.374,9.374,0,0,0,3.929,9.4c0,.6,0,1.771,0,1.844a2.426,2.426,0,0,0,1.732,3.748,7.66,7.66,0,0,0,4.2,6.83v1.363l-1.741.833c-1.9.531-3.368.67-4.494,1.5a4.663,4.663,0,0,0-2.043,3.635C-.047,43.907-.009,43.012,0,43.668a3.132,3.132,0,0,0,3.231,3.28h6.01a.687.687,0,1,0,0-1.375H6.66L7.342,32.68a.687.687,0,0,0-1.373-.073l-.143,2.712-3.507-.368.011-.1c.708-5.6.453-6.453,1.4-7.578l.008-.009c1.152-1.36,2.978-1.39,4.392-1.831l2.113,2.705a1.365,1.365,0,0,0,2.045.121l.33-.332v3.327a.687.687,0,0,0,1.375,0V27.925l.33.332a1.365,1.365,0,0,0,.969.4l.081,0a1.366,1.366,0,0,0,.995-.522l.966-1.236a8.742,8.742,0,0,0-.29,2.808,2.136,2.136,0,0,0,1.215,3.673,5.271,5.271,0,0,0,2.694,3.756v.836c-2.425.653-4.332.68-5.2,2.737a2.563,2.563,0,0,0-.088.247c-.035.111-.068.243-.086.329-.106.513-.11.837-.514,4.288H12.451a.687.687,0,1,0,0,1.375h21.7a.687.687,0,1,0,0-1.375H31.863a36.191,36.191,0,0,0-.649-4.764A3.564,3.564,0,0,0,28.7,38.651l-2.723-.678v-.848a5.277,5.277,0,0,0,2.673-3.745,2.394,2.394,0,0,0,1.869-1.8,1.976,1.976,0,0,0-.192-1.269,8.018,8.018,0,0,0,3.28-1.833c3.5,3.039,6.65,2.658,6.907-2.624.5.156,2.886.521,3.362,2.824.036.173.077.418.1.627l.631,5.641-3.479.365-.143-2.707a.687.687,0,1,0-1.373.073L40.3,45.573H37.358a.687.687,0,0,0,0,1.375H43.7a3.141,3.141,0,0,0,2.3-.9,3.4,3.4,0,0,0,.932-2.387C46.936,43.087,46.984,43.9,45.345,29.149ZM5.711,36.69l-.446,8.884H3.233a1.763,1.763,0,0,1-1.856-1.918c-.008-.487.018-.322.789-7.337ZM20.946,13.554V11.572A1.017,1.017,0,0,1,20.946,13.554Zm-15.285,0a1.017,1.017,0,0,1,0-1.982Zm.594-3.489a3.185,3.185,0,0,0-.952.172A11.329,11.329,0,0,1,5.446,7.89,8.154,8.154,0,0,1,7.992,3.416h0a7.864,7.864,0,0,1,1.991-1.3,7.96,7.96,0,0,1,8.633,1.3A8.141,8.141,0,0,1,21.025,7.3a10.247,10.247,0,0,1,.278,2.937,3.18,3.18,0,0,0-.951-.172,1.921,1.921,0,0,1-.463-.375c-.937-1.08-.142-1.916-1.148-2.755-.709-.592-1.388-.366-2.642-.2-5.843.63-7.015-.816-8.234.2a1.674,1.674,0,0,0-.6,1.272A1.989,1.989,0,0,1,6.255,10.065ZM7.036,15V11.2A3.267,3.267,0,0,0,8.282,9.794a3.95,3.95,0,0,0,.359-1.588.3.3,0,0,1,.354-.285c7.259.966,8.95-.592,8.972.285a3.74,3.74,0,0,0,.9,2.4,3.632,3.632,0,0,0,.7.588c0,.715,0,3.105,0,3.181a6.417,6.417,0,0,1-3.393,6.186h0a6.28,6.28,0,0,1-2.459.681c-.364.024-.722.008-.713.008A6.269,6.269,0,0,1,7.036,15Zm4.283,12.285-1.851-2.37.931-.446,1.92,1.808ZM13.3,25.312l-2.067-1.946V22.354a7.7,7.7,0,0,0,4.151,0v1Zm1.985,1.969-1-1.008,1.931-1.818.929.445ZM18.183,31.9a.718.718,0,0,1,0-1.333ZM29.052,19.283c-2.175-2.417-1.694-4.6-1.7-8.242a6.623,6.623,0,0,0,3.355-1.916,12.46,12.46,0,0,0,9.18,4.284c0,1.827.005,1.5-.006,1.87v0a6.218,6.218,0,0,1-2.247,4.531l-.079.065a6.28,6.28,0,0,1-7.332.39C30.088,20.173,29.207,19.432,29.052,19.283ZM26.583,39.54l.029.007a10.056,10.056,0,0,1,2.454.738c1.253.751.9,1.676,1.4,5.288h-1.83L28.56,44.09a.687.687,0,0,0-1.373.075l.077,1.408h-7.58l.077-1.408a.687.687,0,0,0-1.373-.075l-.081,1.484H16.459c.455-3.907.263-4.6,1.4-5.288a9.652,9.652,0,0,1,2.483-.745,4.158,4.158,0,0,0,6.236,0Zm-4.257-1.893a5.287,5.287,0,0,0,.877.115l.05,0,.049,0a5.162,5.162,0,0,0,1.3-.123c.034.264-.151,1.032.424,1.449a2.779,2.779,0,0,1-3.126,0C22.475,38.676,22.294,37.9,22.326,37.647Zm5.017-4.926c0,.05-.006.1-.01.144A3.9,3.9,0,0,1,19.591,33c-.058-.448-.021-.806-.033-2.716A5.929,5.929,0,0,0,25.6,28.5a3.686,3.686,0,0,0,1.75,1.449C27.349,32.889,27.355,32.516,27.343,32.721Zm1.149-3.674a1.1,1.1,0,0,0-.612-.372A2.5,2.5,0,0,1,26.5,27.326a1.007,1.007,0,0,0-1.8.033c-.4.846-2.237,2.316-5.342,1.467a.921.921,0,0,0-.872.212l-.068.011c0-.451.005-.469.005-.459a5.045,5.045,0,0,1,8.37-3.555s.008,0,.008.007a5.007,5.007,0,0,1,1.6,2.818A5.906,5.906,0,0,1,28.492,29.046Zm-.631-4.894a5.883,5.883,0,0,0-1.007-.782h3.3v.212Zm.864,7.744V30.562a.817.817,0,0,1,.453.667A.837.837,0,0,1,28.725,31.9ZM29.867,29a6.553,6.553,0,0,0-.355-2.3,6.307,6.307,0,0,0,2.472,1.31A5.039,5.039,0,0,1,29.867,29Zm-.011-3.93.892-.222a.7.7,0,0,0,.118-.041,1.259,1.259,0,0,0,.66-1.178V22.346a7.654,7.654,0,0,0,4.168.008v1.279a1.259,1.259,0,0,0,.66,1.178.688.688,0,0,0,.118.041l.89.222A4.86,4.86,0,0,1,29.856,25.073Zm8.13,3.857c-.8.332-2.052-.414-2.761-.926a6.441,6.441,0,0,0,3.593-2.569l.335.084C39.1,27.434,38.687,28.638,37.986,28.93Zm7.031,16.157c-.729.739-1.718.4-3.343.486L41.2,36.69l3.559-.373.775,6.922A2.248,2.248,0,0,1,45.017,45.087Z" transform="translate(0 -0.024)" fill="#bb7f84"/>
        </g>
      </g>
    </g>
  </g>
</svg>
