<svg xmlns="http://www.w3.org/2000/svg" width="23.608" height="26.861" viewBox="0 0 23.608 26.861">
  <g id="Group_68692" data-name="Group 68692" transform="translate(-31)">
    <g id="Group_68689" data-name="Group 68689" transform="translate(34.148)">
      <g id="Group_68688" data-name="Group 68688" transform="translate(0)">
        <path id="Path_8566" data-name="Path 8566" d="M99.656,0A8.652,8.652,0,0,0,92.62,13.693l6.374,9.946a.787.787,0,0,0,1.325,0l6.4-9.98A8.656,8.656,0,0,0,99.656,0Zm0,12.591a3.935,3.935,0,1,1,3.935-3.935A3.939,3.939,0,0,1,99.656,12.591Z" transform="translate(-91)" fill="#fff"/>
      </g>
    </g>
    <g id="Group_68691" data-name="Group 68691" transform="translate(31 18.084)">
      <g id="Group_68690" data-name="Group 68690">
        <path id="Path_8567" data-name="Path 8567" d="M48.956,344.7l-3.963,6.2a2.6,2.6,0,0,1-4.38,0l-3.969-6.2C33.153,345.5,31,346.983,31,348.751c0,3.067,6.082,4.722,11.8,4.722s11.8-1.655,11.8-4.722C54.608,346.982,52.453,345.5,48.956,344.7Z" transform="translate(-31 -344.695)" fill="#fff"/>
      </g>
    </g>
  </g>
</svg>
