<svg xmlns="http://www.w3.org/2000/svg" width="101" height="101" viewBox="0 0 101 101">
  <g id="Group_68630" data-name="Group 68630" transform="translate(-80 -24)">
    <circle id="Ellipse_3459" data-name="Ellipse 3459" cx="50.5" cy="50.5" r="50.5" transform="translate(80 24)" fill="#fff"/>
    <g id="Group_68630-2" data-name="Group 68630" transform="translate(99 -12.783)">
      <g id="Group_68629" data-name="Group 68629" transform="translate(0 67.783)">
        <path id="Path_8209" data-name="Path 8209" d="M61.486,77.391a286.079,286.079,0,0,0-27.44-9.308,7.73,7.73,0,0,0-4.268,0c-6.293,1.8-12.365,3.743-18.046,5.762a.935.935,0,1,0,.626,1.762C18,73.6,24.037,71.675,30.294,69.88a5.862,5.862,0,0,1,3.237,0,284.213,284.213,0,0,1,27.26,9.246,1.855,1.855,0,0,1,0,3.443c-4.17,1.672-8.562,3.289-13.144,4.842a.932.932,0,0,0-.327-.261L32.314,80a.935.935,0,1,0-.8,1.688l13.708,6.529q-5.671,1.866-11.688,3.593a5.863,5.863,0,0,1-3.237,0A284.232,284.232,0,0,1,3.034,82.569a1.855,1.855,0,0,1,0-3.443c1.888-.757,3.846-1.513,5.821-2.246A.935.935,0,0,0,8.2,75.127c-1.99.739-3.964,1.5-5.866,2.264a3.725,3.725,0,0,0,0,6.914q5.108,2.048,10.641,3.982V98.612a2.787,2.787,0,0,0,1.7,2.573,143.076,143.076,0,0,0,16.6,5.754,2.822,2.822,0,0,0,1.523,0c4.7-1.334,9.115-2.8,13.18-4.374v2.93a3.491,3.491,0,0,0-2.55,3.357v4.923a.935.935,0,0,0,.935.935h5.1a.935.935,0,0,0,.935-.935V108.85a3.491,3.491,0,0,0-2.55-3.357v-3.671q.779-.316,1.54-.638A2.787,2.787,0,0,0,51.1,98.612V97.131a.935.935,0,1,0-1.87,0v1.481a.921.921,0,0,1-.564.851q-.4.171-.812.339V89.315q.691-.233,1.376-.468v4.545a.935.935,0,1,0,1.87,0V88.2q5.387-1.89,10.388-3.893a3.725,3.725,0,0,0,0-6.914ZM48.533,108.85v3.988H45.3V108.85a1.615,1.615,0,1,1,3.231,0Zm-2.55-8.293c-4.2,1.652-8.786,3.189-13.686,4.58a.966.966,0,0,1-.512,0,141.177,141.177,0,0,1-16.374-5.676.921.921,0,0,1-.562-.85V88.933c4.781,1.634,9.768,3.2,14.929,4.679a7.731,7.731,0,0,0,4.268,0q6.14-1.761,11.936-3.674Z" transform="translate(0 -67.783)" fill="#717895"/>
      </g>
    </g>
  </g>
</svg>
