<svg xmlns="http://www.w3.org/2000/svg" width="23.608" height="17.682" viewBox="0 0 23.608 17.682">
  <g id="Group_68687" data-name="Group 68687" transform="translate(0 -64.266)">
    <path id="Path_8564" data-name="Path 8564" d="M13.777,177.963a3.551,3.551,0,0,1-3.946,0l-9.674-6.45Q.077,171.46,0,171.4V181.97a2.173,2.173,0,0,0,2.173,2.173H21.435a2.173,2.173,0,0,0,2.173-2.173V171.4c-.051.038-.1.076-.158.112Z" transform="translate(0 -102.196)" fill="#fff"/>
    <path id="Path_8565" data-name="Path 8565" d="M.925,68.167l9.674,6.45a2.168,2.168,0,0,0,2.411,0l9.674-6.45a2.071,2.071,0,0,0,.925-1.728,2.175,2.175,0,0,0-2.173-2.173H2.173A2.175,2.175,0,0,0,0,66.44a2.071,2.071,0,0,0,.925,1.727Z" fill="#fff"/>
  </g>
</svg>
