<svg xmlns="http://www.w3.org/2000/svg" width="23.608" height="23.609" viewBox="0 0 23.608 23.609">
  <g id="Group_68686" data-name="Group 68686" transform="translate(-0.006)">
    <g id="Group_68685" data-name="Group 68685" transform="translate(0.006)">
      <g id="Group_68684" data-name="Group 68684" transform="translate(0)">
        <path id="Path_8561" data-name="Path 8561" d="M17.954,59.488a1.654,1.654,0,0,0-2.5,0c-.585.58-1.169,1.159-1.744,1.749a.345.345,0,0,1-.481.088c-.378-.206-.781-.373-1.145-.6a18.136,18.136,0,0,1-4.372-3.979,10.358,10.358,0,0,1-1.567-2.51.36.36,0,0,1,.088-.462c.585-.565,1.154-1.145,1.729-1.724a1.661,1.661,0,0,0,0-2.56c-.457-.462-.914-.914-1.371-1.376s-.938-.948-1.415-1.415a1.665,1.665,0,0,0-2.5,0c-.59.58-1.154,1.174-1.754,1.744A2.847,2.847,0,0,0,.023,50.37a8.138,8.138,0,0,0,.629,3.5A21.285,21.285,0,0,0,4.43,60.166a23.379,23.379,0,0,0,7.742,6.057,11.2,11.2,0,0,0,4.289,1.248,3.143,3.143,0,0,0,2.7-1.027c.5-.56,1.066-1.071,1.6-1.606a1.671,1.671,0,0,0,.01-2.545Q19.364,60.886,17.954,59.488Z" transform="translate(-0.006 -43.871)" fill="#fff"/>
        <path id="Path_8562" data-name="Path 8562" d="M243.179,102.986l1.813-.31A8.137,8.137,0,0,0,238.109,96l-.255,1.823a6.289,6.289,0,0,1,5.325,5.163Z" transform="translate(-226.169 -91.284)" fill="#fff"/>
        <path id="Path_8563" data-name="Path 8563" d="M250.673,3.822A13.367,13.367,0,0,0,243.009,0l-.255,1.823a11.664,11.664,0,0,1,9.87,9.565l1.813-.31A13.465,13.465,0,0,0,250.673,3.822Z" transform="translate(-230.828)" fill="#fff"/>
      </g>
    </g>
  </g>
</svg>
