<svg xmlns="http://www.w3.org/2000/svg" width="31.943" height="22.424" viewBox="0 0 31.943 22.424">
  <path id="Hend_Elgohary_s_Portfolio_-_Work-6" data-name="Hend Elgohary&apos;s Portfolio - Work-6" d="M35.2,21.575a6.9,6.9,0,0,1-1.261,3.167,4.526,4.526,0,0,1-3.2,1.345c-4.471.336-11.17.336-11.17.336s-8.283-.07-10.847-.322a5.415,5.415,0,0,1-3.518-1.359,6.984,6.984,0,0,1-1.275-3.167,47.654,47.654,0,0,1-.322-5.157V13.993a47.654,47.654,0,0,1,.322-5.157A6.815,6.815,0,0,1,5.208,5.668,4.505,4.505,0,0,1,8.4,4.322C12.874,4,19.573,4,19.573,4h0s6.727,0,11.212.28a5.429,5.429,0,0,1,3.223,1.345,7.186,7.186,0,0,1,1.261,3.167,40.159,40.159,0,0,1,.28,5.157v2.425a43.915,43.915,0,0,1-.42,5.2ZM16.279,10.391v8.955L24.9,14.889Z" transform="translate(-3.61 -4)" fill="#fff"/>
</svg>
