<svg id="Hend_Elgohary_s_Portfolio_-_Work-2" data-name="Hend Elgohary&apos;s Portfolio - Work-2" xmlns="http://www.w3.org/2000/svg" width="22.143" height="22.284" viewBox="0 0 22.143 22.284">
  <path id="Path_8238" data-name="Path 8238" d="M18.212,5.962H22.7a5.334,5.334,0,0,1,2.1.42,2.521,2.521,0,0,1,1.261.841A2.521,2.521,0,0,1,26.9,8.485a10.533,10.533,0,0,1,.42,2.1v8.969a5.334,5.334,0,0,1-.42,2.1,2.521,2.521,0,0,1-.841,1.261,2.521,2.521,0,0,1-1.261.841,10.533,10.533,0,0,1-2.1.42H13.727a5.335,5.335,0,0,1-2.1-.42,2.521,2.521,0,0,1-1.261-.841,2.521,2.521,0,0,1-.841-1.261,10.533,10.533,0,0,1-.42-2.1V10.587a5.334,5.334,0,0,1,.42-2.1,2.521,2.521,0,0,1,.841-1.261,2.521,2.521,0,0,1,1.261-.841,10.533,10.533,0,0,1,2.1-.42h4.485m0-1.962H13.587a6.293,6.293,0,0,0-2.663.561A5.879,5.879,0,0,0,8.962,5.822a5.051,5.051,0,0,0-1.4,2.1A10.951,10.951,0,0,0,7,10.587v9.25A6.292,6.292,0,0,0,7.561,22.5a5.49,5.49,0,0,0,3.223,3.223,10.951,10.951,0,0,0,2.663.561H22.7a6.293,6.293,0,0,0,2.663-.561A5.49,5.49,0,0,0,28.583,22.5a10.951,10.951,0,0,0,.561-2.663v-9.25a6.293,6.293,0,0,0-.561-2.663,5.879,5.879,0,0,0-1.261-1.962A5.879,5.879,0,0,0,25.359,4.7,10.951,10.951,0,0,0,22.7,4.14,29.808,29.808,0,0,0,18.212,4Z" transform="translate(-7 -4)" fill="#fff"/>
  <path id="Path_8239" data-name="Path 8239" d="M16.646,7.9a5.746,5.746,0,1,0,5.746,5.746A5.683,5.683,0,0,0,16.646,7.9Zm0,9.53a3.784,3.784,0,1,1,3.784-3.784,3.768,3.768,0,0,1-3.784,3.784Z" transform="translate(-5.434 -2.434)" fill="#fff"/>
  <path id="Path_8240" data-name="Path 8240" d="M21,8.1a1.4,1.4,0,0,1-1.4,1.4,1.324,1.324,0,0,1-1.4-1.4,1.324,1.324,0,0,1,1.4-1.4A1.4,1.4,0,0,1,21,8.1Z" transform="translate(-2.503 -2.916)" fill="#fff"/>
</svg>
