<svg id="Group_68637" data-name="Group 68637" xmlns="http://www.w3.org/2000/svg" width="48.816" height="46.925" viewBox="0 0 48.816 46.925">
  <path id="Path_8226" data-name="Path 8226" d="M48.1,186.52H45.283V155.558a.715.715,0,0,0-.715-.715H42.2a.715.715,0,0,0,0,1.43h1.65V186.52H37.219V156.273h1.867a.715.715,0,0,0,0-1.43H36.5a.715.715,0,0,0-.715.715v4.289H28.44a.715.715,0,0,0-.715.715v4.661H20.376a.715.715,0,0,0-.715.715V170.6H12.312a.715.715,0,0,0-.715.715v3.792H4.249a.715.715,0,0,0-.715.715V180.1a.715.715,0,1,0,1.43,0v-3.567H11.6v9.983H4.964v-3.3a.715.715,0,1,0-1.43,0v3.3H.715a.715.715,0,0,0,0,1.43H48.1a.715.715,0,0,0,0-1.43ZM13.027,172.029h6.634V186.52H13.027Zm8.064-.715v-4.661h6.634V186.52H21.091Zm8.064,15.206V161.277h6.634V186.52Z" transform="translate(0 -141.025)" fill="#6e9e79"/>
  <path id="Path_8227" data-name="Path 8227" d="M31.22,40.837a2.127,2.127,0,0,0,1.239-.395L64.665,17.615a2.145,2.145,0,0,0,4.258.454l.823-4.825a2.145,2.145,0,0,0-1.755-2.474l-4.825-.823a2.146,2.146,0,0,0-.982,4.169l-12.1,8.573a.715.715,0,1,0,.827,1.167L64.4,14.3a.715.715,0,0,0-.293-1.288l-1.421-.242a.717.717,0,0,1-.585-.826.715.715,0,0,1,.824-.585l4.826.823a.715.715,0,0,1,.585.824l-.823,4.826a.712.712,0,0,1-.7.594.7.7,0,0,1-.121-.011.715.715,0,0,1-.585-.824l.242-1.422a.715.715,0,0,0-1.118-.7l-33.6,23.813a.716.716,0,0,1-1-.17.717.717,0,0,1,.17-1L47.8,26.064a.715.715,0,0,0-.827-1.167L29.979,36.942a2.145,2.145,0,0,0,1.241,3.9Z" transform="translate(-26.301 -9.916)" fill="#6e9e79"/>
</svg>
