<svg xmlns="http://www.w3.org/2000/svg" width="46.704" height="46.925" viewBox="0 0 46.704 46.925">
  <g id="Group_68634" data-name="Group 68634" transform="translate(-2.24 -2.199)">
    <g id="healthcare-covid19-coronavirus-hand-hearth" transform="translate(2.24 2.199)">
      <path id="Path_8211" data-name="Path 8211" d="M35.2,12.139H32.847V9.785A.785.785,0,0,0,32.062,9H28.923a.785.785,0,0,0-.785.785v2.354H25.785a.785.785,0,0,0-.785.785v3.139a.785.785,0,0,0,.785.785h2.354V19.2a.785.785,0,0,0,.785.785h3.139a.785.785,0,0,0,.785-.785V16.847H35.2a.785.785,0,0,0,.785-.785V12.923A.785.785,0,0,0,35.2,12.139Zm-.785,3.139H32.062a.785.785,0,0,0-.785.785v2.354H29.708V16.062a.785.785,0,0,0-.785-.785H26.569V13.708h2.354a.785.785,0,0,0,.785-.785V10.569h1.569v2.354a.785.785,0,0,0,.785.785h2.354Z" transform="translate(-7.141 -3.663)" fill="#7eaaa8"/>
      <path id="Path_8212" data-name="Path 8212" d="M53.975,17.388A3.594,3.594,0,0,0,54,16.973,3.154,3.154,0,0,0,51.5,13.9a3.194,3.194,0,0,0-3.688,2.331l-3.453,9.934a1.281,1.281,0,0,0-.149.071L37.277,30.3a7.075,7.075,0,0,0-3.492,6.089v7.392A.785.785,0,0,0,33,44.57v6.277a.785.785,0,0,0,.785.785H44.77a.785.785,0,0,0,.785-.785V44.57a.785.785,0,0,0-.785-.785V42.059a2.385,2.385,0,0,1,.785-1.758l5.3-4.716a3.869,3.869,0,0,0,1.193-1.922l3.406-12.735a3.1,3.1,0,0,0,.11-.816,3.154,3.154,0,0,0-1.593-2.723ZM49.314,16.7a1.658,1.658,0,0,1,1.868-1.255,1.569,1.569,0,0,1,1.248,1.53v.016a3.217,3.217,0,0,0-3.052,2.4l-2.189,6.756a3.3,3.3,0,0,0-1.051-.3ZM43.986,50.063H34.569V45.355h9.416Zm9.958-29.543L50.53,33.263a2.339,2.339,0,0,1-.706,1.146l-5.312,4.716a3.967,3.967,0,0,0-1.31,2.935v1.726H35.354V36.393a5.534,5.534,0,0,1,2.715-4.739L45,27.6a1.569,1.569,0,0,1,2.15.573,1.616,1.616,0,0,1,.157,1.193,1.569,1.569,0,0,1-.738.949l-4.5,2.6a.785.785,0,0,0,.785,1.358l4.5-2.6a3.1,3.1,0,0,0,1.467-1.907,3.144,3.144,0,0,0-.314-2.378l-.047-.071,2.425-7.478a1.658,1.658,0,0,1,1.868-1.255A1.569,1.569,0,0,1,54,20.111,1.351,1.351,0,0,1,53.943,20.519Z" transform="translate(-8.863 -4.707)" fill="#7eaaa8"/>
      <path id="Path_8213" data-name="Path 8213" d="M24.023,43.786V36.394a7.075,7.075,0,0,0-3.492-6.089l-6.937-4.073c-.047-.024-.1-.039-.149-.063l-3.429-9.879A3.223,3.223,0,0,0,6.3,13.905a3.154,3.154,0,0,0-2.5,3.068,3.592,3.592,0,0,0,.024.416A3.154,3.154,0,0,0,2.24,20.112a3.469,3.469,0,0,0,.1.816L5.755,33.656a3.858,3.858,0,0,0,1.193,1.93l5.3,4.716a2.363,2.363,0,0,1,.793,1.758v1.726a.785.785,0,0,0-.785.785v6.277a.785.785,0,0,0,.785.785H24.023a.785.785,0,0,0,.785-.785V44.571A.785.785,0,0,0,24.023,43.786ZM5.379,16.973a1.569,1.569,0,0,1,1.24-1.53,1.7,1.7,0,0,1,1.9,1.31l3.154,9.094a3.3,3.3,0,0,0-1.051.3L8.447,19.429a3.256,3.256,0,0,0-3.068-2.44Zm7.91,22.152-5.3-4.716a2.327,2.327,0,0,1-.706-1.153L3.856,20.52a1.664,1.664,0,0,1-.047-.408,1.569,1.569,0,0,1,1.24-1.53A1.682,1.682,0,0,1,6.94,19.877l2.409,7.439-.047.071a3.144,3.144,0,0,0-.314,2.378,3.1,3.1,0,0,0,1.467,1.907l4.5,2.6a.785.785,0,0,0,.785-1.358l-4.5-2.6a1.569,1.569,0,0,1-.738-.949,1.616,1.616,0,0,1,.157-1.193A1.569,1.569,0,0,1,12.8,27.59l6.937,4.065a5.534,5.534,0,0,1,2.715,4.739v7.392H14.607V42.06A3.947,3.947,0,0,0,13.288,39.125Zm9.95,10.938H13.822V45.355h9.416Z" transform="translate(-2.24 -4.708)" fill="#7eaaa8"/>
      <path id="Path_8214" data-name="Path 8214" d="M39.426,4.5a7.842,7.842,0,0,0-11.1,0h0a7.846,7.846,0,1,0-11.1,11.091L27.771,26.138a.785.785,0,0,0,1.11,0L39.427,15.592a7.852,7.852,0,0,0,0-11.092Zm-11.1,19.973-9.991-9.991A6.277,6.277,0,0,1,22.777,3.769a6.212,6.212,0,0,1,4.436,1.842l.557.557a.785.785,0,0,0,1.11,0l.559-.559a6.275,6.275,0,0,1,8.878,8.872Z" transform="translate(-4.973 -2.199)" fill="#7eaaa8"/>
    </g>
  </g>
</svg>
