<svg id="Group_68628" data-name="Group 68628" xmlns="http://www.w3.org/2000/svg" width="47.979" height="46.925" viewBox="0 0 47.979 46.925">
  <g id="Group_68627" data-name="Group 68627" transform="translate(0 0)">
    <path id="Path_8206" data-name="Path 8206" d="M47.276,45.729H46.032V20.479a3.358,3.358,0,0,0-3.355-3.354H41.027a2.854,2.854,0,0,0-1.238-3.755L30.6,8.5a.7.7,0,0,0-.658,1.242l9.19,4.868a1.45,1.45,0,0,1,0,2.562L30.2,21.907,24.518,15.43a.7.7,0,0,0-1.057.927l5.46,6.226-3.38,1.791a3.314,3.314,0,0,1-3.1,0l-13.591-7.2a1.45,1.45,0,0,1,0-2.562l13.59-7.2a3.314,3.314,0,0,1,3.1,0l1.945,1.031A.7.7,0,0,0,28.144,7.2L26.2,6.171a4.718,4.718,0,0,0-4.417,0L8.19,13.371a2.854,2.854,0,0,0-1.238,3.755H5.3a3.358,3.358,0,0,0-3.355,3.354V45.729H.7a.7.7,0,0,0-.7.7v1.558a4.563,4.563,0,0,0,4.558,4.558H43.421a4.563,4.563,0,0,0,4.558-4.558V46.432A.7.7,0,0,0,47.276,45.729ZM30.035,33.536l.916,1.587a.727.727,0,0,1-.63,1.09h-.574a.727.727,0,0,1-.63-1.09Zm.7-10.324,2.908-1.541v2.791a5.143,5.143,0,0,1-2.908,4.655Zm-6.749,2.954a4.721,4.721,0,0,0,2.209-.549l3.134-1.66v5.7A17.047,17.047,0,0,1,17.5,29.232a5.141,5.141,0,0,1-3.163-4.77V21.671l7.448,3.946A4.717,4.717,0,0,0,23.989,26.165ZM3.352,20.479A1.951,1.951,0,0,1,5.3,18.531H8.406l3.538,1.874H5.929a.7.7,0,0,0-.7.7V43.152a.7.7,0,0,0,.7.7h3.71a.7.7,0,1,0,0-1.406H6.632V21.811h6.3v2.651a6.543,6.543,0,0,0,4.029,6.068,18.471,18.471,0,0,0,12.376.605v.807L27.9,34.42a2.133,2.133,0,0,0,1.847,3.2h.574a2.133,2.133,0,0,0,1.847-3.2l-1.431-2.478v-1.3c.1-.038.19-.075.285-.114a6.543,6.543,0,0,0,4.029-6.068V21.811h6.3V42.449H12.45a.7.7,0,1,0,0,1.406h29.6a.7.7,0,0,0,.7-.7V21.108a.7.7,0,0,0-.7-.7H36.035l3.538-1.874h3.105a1.951,1.951,0,0,1,1.949,1.948V45.729H3.352ZM28.336,47.135a1.928,1.928,0,0,1-1.82,1.3H21.464a1.928,1.928,0,0,1-1.821-1.3Zm18.238.855a3.156,3.156,0,0,1-3.153,3.153H4.558a3.156,3.156,0,0,1-3.152-3.153v-.855H18.193a3.335,3.335,0,0,0,3.271,2.706h5.051a3.335,3.335,0,0,0,3.27-2.706H46.573Z" transform="translate(0 -5.622)" fill="#81a176"/>
    <path id="Path_8207" data-name="Path 8207" d="M108.6,364.32a.7.7,0,0,0-.7-.7H93.826a.7.7,0,0,0,0,1.406H107.9A.7.7,0,0,0,108.6,364.32Z" transform="translate(-84.397 -330.07)" fill="#81a176"/>
    <path id="Path_8208" data-name="Path 8208" d="M93.826,333.479h9.407a.7.7,0,0,0,0-1.406H93.826a.7.7,0,0,0,0,1.406Z" transform="translate(-84.397 -301.482)" fill="#81a176"/>
  </g>
</svg>
