<svg xmlns="http://www.w3.org/2000/svg" width="46.925" height="46.925" viewBox="0 0 46.925 46.925">
  <g id="Group_68636" data-name="Group 68636" transform="translate(0 0)">
    <g id="Group_68635" data-name="Group 68635" transform="translate(0 0)">
      <path id="Path_8215" data-name="Path 8215" d="M82.654,117a6.676,6.676,0,0,1-2.446.724.687.687,0,0,0-.611.787,4.422,4.422,0,0,1,.058.673c0,2.862-2.719,5.19-6.061,5.19a6.154,6.154,0,0,1-5.58-3.163,1.246,1.246,0,0,0-.481-.517v-8.685L67.69,112c1.343-.048,3.014-.108,3.945.79a3.246,3.246,0,0,1,.834,2.147,2.065,2.065,0,1,0,1.378-.014A4.608,4.608,0,0,0,72.59,111.8c-1.351-1.3-3.43-1.229-4.948-1.175l-.109,0v-4.321c7.012.014,10.551.3,10.857,4.08a2.065,2.065,0,1,0,1.377-.014,4.966,4.966,0,0,0-3.883-4.744c-2.116-.652-5.005-.694-8.351-.7v-4.295c3.346,0,6.235-.044,8.351-.7A4.966,4.966,0,0,0,79.767,95.2a2.063,2.063,0,1,0-1.377-.014c-.306,3.778-3.846,4.065-10.857,4.08V95.081l.109,0c.322.011.668.024,1.028.024a5.471,5.471,0,0,0,3.92-1.2,4.608,4.608,0,0,0,1.257-3.122,2.063,2.063,0,1,0-1.378-.014,3.246,3.246,0,0,1-.834,2.147c-.931.9-2.6.838-3.945.79l-.158-.006V90.727a.687.687,0,0,0-1.375,0v29.966a1.246,1.246,0,0,0-.481.517,6.154,6.154,0,0,1-5.58,3.162c-3.342,0-6.061-2.328-6.061-5.19a4.422,4.422,0,0,1,.058-.673,3.686,3.686,0,0,1,.952-1.906.687.687,0,0,0-.954-.989,4.8,4.8,0,0,0-1.2,2.021,6.169,6.169,0,0,1-3.885-2.379.687.687,0,0,0-1.121.8,7.452,7.452,0,0,0,4.779,2.942c0,.064,0,.127,0,.189,0,3.62,3.336,6.565,7.436,6.565a7.559,7.559,0,0,0,6.748-3.8,7.559,7.559,0,0,0,6.748,3.8c4.1,0,7.436-2.945,7.436-6.565,0-.062,0-.125,0-.189a7.965,7.965,0,0,0,2.267-.778A.687.687,0,0,0,82.654,117Zm-9.475-.809a.687.687,0,1,1-.689.687A.689.689,0,0,1,73.179,116.189Zm5.921-4.549a.687.687,0,1,1-.689.687A.689.689,0,0,1,79.1,111.639Zm0-19.077a.687.687,0,1,1-.689.687A.689.689,0,0,1,79.1,92.563ZM73.179,88.15a.687.687,0,1,1-.689.687A.689.689,0,0,1,73.179,88.15Z" transform="translate(-43.383 -78.822)" fill="#7392a5"/>
      <path id="Path_8216" data-name="Path 8216" d="M4.749,93.953a4.872,4.872,0,0,1,1.434-3.4A.687.687,0,0,0,5.851,89.4a5.4,5.4,0,0,1-4.476-5,5.111,5.111,0,0,1,1.9-3.88.687.687,0,0,0,.031-1.015,3.416,3.416,0,0,1-1.089-2.452c0-2.019,1.861-3.651,4.236-3.714a3.082,3.082,0,0,1,1.8.669.687.687,0,1,0,.911-1.03A4.356,4.356,0,0,0,6.843,72a3.245,3.245,0,0,1-.407-1.554,3.532,3.532,0,0,1,1.648-2.908A.687.687,0,1,0,7.311,66.4a4.885,4.885,0,0,0-2.25,4.045,4.557,4.557,0,0,0,.306,1.636A5.249,5.249,0,0,0,.844,77.056a4.692,4.692,0,0,0,1.025,2.9A6.344,6.344,0,0,0,0,84.4a6.6,6.6,0,0,0,4.5,6.024,6.194,6.194,0,0,0-1.131,3.527.687.687,0,1,0,1.375,0Z" transform="translate(0 -60.205)" fill="#7392a5"/>
      <path id="Path_8217" data-name="Path 8217" d="M147.248,24.2a6.343,6.343,0,0,0-1.869-4.442,4.692,4.692,0,0,0,1.025-2.9,5.249,5.249,0,0,0-4.524-4.976,4.555,4.555,0,0,0,.306-1.636c0-2.81-2.579-5.1-5.749-5.1-.063,0-.131,0-.2,0a5.59,5.59,0,0,0-1.944-3.456A7,7,0,0,0,129.783,0h-.092a6.746,6.746,0,0,0-5.907,3.233A6.745,6.745,0,0,0,117.879,0h-.092a7,7,0,0,0-4.508,1.69,5.59,5.59,0,0,0-1.944,3.456c-.071,0-.139,0-.2,0a.687.687,0,1,0,0,1.375,6.381,6.381,0,0,1,.764.056.687.687,0,0,0,.775-.735l0-.047c0-.012,0-.025,0-.03.042-2.343,2.4-4.352,5.14-4.385a5.359,5.359,0,0,1,4.829,2.615,1.25,1.25,0,0,0,.465.485V8.731a.687.687,0,0,0,1.375,0V4.475a1.249,1.249,0,0,0,.465-.485,5.338,5.338,0,0,1,4.753-2.615h.075c2.744.034,5.1,2.042,5.14,4.379a4.224,4.224,0,0,1-.758,2.261A.687.687,0,1,0,135.2,8.9a4.974,4.974,0,0,0,1.006-2.373c.083,0,.161-.007.23-.007,2.412,0,4.374,1.669,4.374,3.721a3.293,3.293,0,0,1-.572,1.829.687.687,0,0,0,.553,1.069c2.375.063,4.236,1.695,4.236,3.714a3.416,3.416,0,0,1-1.089,2.452,3.058,3.058,0,0,1-1.7.815.687.687,0,0,0,.054,1.373l.055,0a4.169,4.169,0,0,0,2.039-.779,4.993,4.993,0,0,1,1.486,3.488,5.4,5.4,0,0,1-4.476,5,.687.687,0,0,0-.332,1.154,4.872,4.872,0,0,1,1.434,3.4,4.61,4.61,0,0,1-.743,2.488.687.687,0,1,0,1.157.742,5.98,5.98,0,0,0,.96-3.23,6.2,6.2,0,0,0-1.131-3.527,6.6,6.6,0,0,0,4.5-6.024Z" transform="translate(-100.323 0)" fill="#7392a5"/>
      <path id="Path_8218" data-name="Path 8218" d="M84.7,201.261a.687.687,0,0,0,.648.725h.039a.687.687,0,0,0,.686-.649,4.891,4.891,0,0,1,3.7-4.3.687.687,0,1,0-.325-1.336,5.968,5.968,0,0,0-4.066,3.192A6.654,6.654,0,0,0,84.7,201.261Z" transform="translate(-76.938 -177.745)" fill="#7392a5"/>
      <path id="Path_8219" data-name="Path 8219" d="M163.762,83.095a.689.689,0,0,0-.749.62,3.909,3.909,0,0,1-2.535,3.019.687.687,0,0,0,.457,1.3c.129-.045,3.16-1.141,3.447-4.186A.687.687,0,0,0,163.762,83.095Z" transform="translate(-145.354 -75.477)" fill="#7392a5"/>
      <path id="Path_8220" data-name="Path 8220" d="M163.1,354.194a.687.687,0,0,0,.591-1.241,4.542,4.542,0,0,1-2.408-4.38.687.687,0,0,0-1.369-.126A5.913,5.913,0,0,0,163.1,354.194Z" transform="translate(-145.243 -315.945)" fill="#7392a5"/>
      <path id="Path_8221" data-name="Path 8221" d="M173.156,248.354a.687.687,0,1,0,.59,1.241,3.726,3.726,0,0,0,2.012-3.623.687.687,0,1,0-1.369.128A2.359,2.359,0,0,1,173.156,248.354Z" transform="translate(-156.93 -222.864)" fill="#7392a5"/>
      <path id="Path_8222" data-name="Path 8222" d="M355.338,255.427a.687.687,0,1,0,.687-.687A.687.687,0,0,0,355.338,255.427Z" transform="translate(-322.771 -231.393)" fill="#7392a5"/>
      <path id="Path_8223" data-name="Path 8223" d="M407.015,256.115a.687.687,0,1,0-.687-.687A.687.687,0,0,0,407.015,256.115Z" transform="translate(-369.088 -231.393)" fill="#7392a5"/>
      <path id="Path_8224" data-name="Path 8224" d="M317.608,461.927a.687.687,0,1,0,.687-.687A.687.687,0,0,0,317.608,461.927Z" transform="translate(-288.499 -418.967)" fill="#7392a5"/>
      <path id="Path_8225" data-name="Path 8225" d="M318.982,48.927a.687.687,0,1,0-.687.687A.687.687,0,0,0,318.982,48.927Z" transform="translate(-288.498 -43.819)" fill="#7392a5"/>
    </g>
  </g>
</svg>
