<svg xmlns="http://www.w3.org/2000/svg" width="46.851" height="46.851" viewBox="0 0 46.851 46.851">
  <g id="Group_68429" data-name="Group 68429" transform="translate(-422.149 -5018)">
    <circle id="Ellipse_554" data-name="Ellipse 554" cx="23.425" cy="23.425" r="23.425" transform="translate(422.149 5018)" fill="#fff"/>
    <g id="Group_56366" data-name="Group 56366" transform="translate(434.996 5030.846)">
      <g id="_x31_0.Linkedin" transform="translate(0 0)">
        <path id="Path_7209" data-name="Path 7209" d="M51.974,49.767V42.018c0-3.809-.82-6.718-5.263-6.718a4.592,4.592,0,0,0-4.152,2.275h-.053V35.644H38.3V49.767h4.39V42.758c0-1.851.344-3.623,2.618-3.623,2.248,0,2.275,2.089,2.275,3.729v6.876h4.39Z" transform="translate(-30.815 -28.609)" fill="#00a099"/>
        <path id="Path_7210" data-name="Path 7210" d="M11.3,36.6h4.39V50.723H11.3Z" transform="translate(-10.956 -29.565)" fill="#00a099"/>
        <path id="Path_7211" data-name="Path 7211" d="M12.539,10a2.552,2.552,0,1,0,2.539,2.539A2.54,2.54,0,0,0,12.539,10Z" transform="translate(-10 -10)" fill="#00a099"/>
      </g>
    </g>
  </g>
</svg>
