<svg xmlns="http://www.w3.org/2000/svg" width="22.424" height="22.424" viewBox="0 0 22.424 22.424">
  <path id="path-1_24_" d="M24.659,25.424V17.3c0-1.962-.7-3.364-2.383-3.364a2.794,2.794,0,0,0-2.523,1.822,3.111,3.111,0,0,0-.14,1.261v8.409H14.848s.14-13.734,0-15.136h4.765v2.1h0a4.558,4.558,0,0,1,4.2-2.523c3.223,0,5.606,2.1,5.606,6.867v8.689Zm-15-17.238h0A2.467,2.467,0,0,1,7,5.663,2.577,2.577,0,0,1,9.663,3a2.577,2.577,0,0,1,2.663,2.663A2.394,2.394,0,0,1,9.663,8.185Zm2.383,17.238H7.28V10.288h4.765Z" transform="translate(-7 -3)" fill="#fff"/>
</svg>
