<svg xmlns="http://www.w3.org/2000/svg" width="46.851" height="46.851" viewBox="0 0 46.851 46.851">
  <g id="Group_68425" data-name="Group 68425" transform="translate(-192.43 -5018)">
    <circle id="Ellipse_550" data-name="Ellipse 550" cx="23.425" cy="23.425" r="23.425" transform="translate(192.43 5018)" fill="#fff"/>
    <g id="Group_56365" data-name="Group 56365" transform="translate(203.765 5031.602)">
      <path id="_x30_4.Twitter" d="M34.612,19.879a10.393,10.393,0,0,1-2.9.8,4.942,4.942,0,0,0,2.224-2.811,10.669,10.669,0,0,1-3.213,1.236,5.07,5.07,0,0,0-8.773,3.46,4.632,4.632,0,0,0,.124,1.143,14.26,14.26,0,0,1-10.41-5.282,5.084,5.084,0,0,0,1.545,6.765,4.864,4.864,0,0,1-2.286-.618,5.119,5.119,0,0,0,4.047,5.035,5.56,5.56,0,0,1-2.286.093,5.087,5.087,0,0,0,4.726,3.521,10.207,10.207,0,0,1-7.506,2.1A14.4,14.4,0,0,0,32.079,23.215a4.562,4.562,0,0,0-.031-.649A10.055,10.055,0,0,0,34.612,19.879Z" transform="translate(-9.9 -17.5)" fill="#00a099"/>
    </g>
  </g>
</svg>
