<svg xmlns="http://www.w3.org/2000/svg" width="46.851" height="46.851" viewBox="0 0 46.851 46.851">
  <g id="Group_68427" data-name="Group 68427" transform="translate(-307.29 -5018)">
    <circle id="Ellipse_552" data-name="Ellipse 552" cx="23.425" cy="23.425" r="23.425" transform="translate(307.29 5018)" fill="#fff"/>
    <g id="Group_56369" data-name="Group 56369" transform="translate(316.357 5030.846)">
      <g id="Group_56368" data-name="Group 56368" transform="translate(0 0)">
        <g id="Group_56367" data-name="Group 56367" transform="translate(0 0)">
          <path id="Path_7212" data-name="Path 7212" d="M29.06,63.136a3.292,3.292,0,0,0-2.643-2.694,94.71,94.71,0,0,0-23.361,0A3.291,3.291,0,0,0,.411,63.136a60.212,60.212,0,0,0,0,14.043,3.29,3.29,0,0,0,2.644,2.694,94.711,94.711,0,0,0,23.361,0A3.29,3.29,0,0,0,29.06,77.18,60.2,60.2,0,0,0,29.06,63.136ZM12.279,75.071V65.247l7.368,4.912Z" transform="translate(0 -59.72)" fill="#00a099"/>
        </g>
      </g>
    </g>
  </g>
</svg>
